<?xml version="1.0" encoding="UTF-8" standalone="no"?>
<!-- Created with Inkscape (http://www.inkscape.org/) -->

<svg
   version="1.1"
   id="svg1099"
   width="696.54321"
   height="502.65564"
   viewBox="0 0 696.54321 502.65564"
   xmlns="http://www.w3.org/2000/svg"
   xmlns:svg="http://www.w3.org/2000/svg">
  <defs
     id="defs1103" />
  <g
     id="layer1"
     transform="translate(0,-557.29944)">
    <path
       style="fill:#ffffff;fill-opacity:1;stroke:none"
       d="m 171.01597,981.22417 c -4.61843,-1.15986 -11.14003,-4.37826 -15.50668,-7.65252 l -3.27221,-2.45361 -3.22779,1.97938 c -6.16705,3.78183 -14.41947,5.4723 -23.76016,4.86714 -6.95765,-0.45077 -12.49893,-1.83392 -29.033217,-7.24694 -21.10111,-6.90812 -31.44275,-8.71674 -40.31969,-7.05142 -4.03855,0.75764 -7.61472,3.97533 -7.61472,6.85143 0,1.52727 0.61639,1.8248 3.23481,1.56144 2.50766,-0.25223 3.31549,0.0919 3.59377,1.53085 0.5204,2.6909 -1.11076,3.84378 -5.4384,3.84378 -9.06686,0 -10.05911,-11.13181 -1.46848,-16.47456 3.20143,-1.99105 4.89481,-2.22544 16.0783,-2.22544 h 12.5 l 18,6.18176 c 9.899997,3.39996 20.823547,6.72319 24.274567,7.38494 8.85295,1.6976 18.04245,0.74678 24.81715,-2.56777 4.79396,-2.34547 5.48654,-3.03148 4.91131,-4.86473 -0.36832,-1.17381 -0.91474,-4.51892 -1.21427,-7.43358 -0.47111,-4.58416 -0.23389,-5.63012 1.75763,-7.75 3.01144,-3.20553 7.29121,-3.20393 10.49906,0.004 3.16679,3.16678 3.14047,6.95753 -0.0905,13.03412 l -2.54504,4.78655 2.14343,2.28157 c 2.83772,3.02062 10.89317,6.41267 16.92548,7.12711 11.94466,1.41467 22.16888,-10.14121 15.95825,-18.03675 -3.54923,-4.51211 -12.91422,-5.2263 -15.19069,-1.15848 -1.10369,1.97219 -4.64226,1.94629 -5.4043,-0.0396 -0.34218,-0.89171 0.37121,-2.57951 1.67844,-3.97098 8.5326,-9.08254 25.97948,-2.21469 25.97948,10.22662 0,4.9507 -4.53986,12.66832 -8.89044,15.11349 -4.49583,2.5268 -13.77793,3.55786 -19.37509,2.1522 z m -14.71613,-23.01475 c 1.08705,-2.62436 1.04599,-3.31996 -0.27383,-4.63978 -0.85392,-0.85392 -2.04577,-1.24779 -2.64855,-0.87525 -1.18354,0.73147 -1.47214,5.41543 -0.49118,7.97178 0.79709,2.07717 1.8492,1.31996 3.41356,-2.45675 z m 370.74071,22.68219 c -8.4707,-3.16099 -12.7623,-8.82966 -12.7553,-16.84807 0.011,-13.08777 16.7775,-19.45466 25.7812,-9.79035 1.1374,1.22094 1.828,2.84553 1.5346,3.6102 -0.7596,1.97938 -3.712,1.71915 -5.7244,-0.50455 -2.1825,-2.41169 -5.9263,-3.12861 -10.1899,-1.95136 -9.9634,2.75103 -7.9357,16.18681 3.0777,20.39285 7.4631,2.85018 18.6015,0.0962 24.8393,-6.14158 l 2.505,-2.50503 -2.4016,-4.20001 c -3.2928,-5.75866 -3.2133,-10.93526 0.2092,-13.62743 3.5384,-2.78326 6.9181,-2.61059 10.0417,0.51303 2.3198,2.3198 2.5245,3.11655 1.9912,7.75 -0.3269,2.84042 -0.8886,6.17766 -1.2482,7.41611 -0.5749,1.98028 0.037,2.56785 5.0742,4.87405 6.9767,3.19404 16.1423,4.0933 24.7317,2.4265 3.451,-0.66969 14.1496,-3.91974 23.7746,-7.22234 15.5086,-5.32144 18.6379,-6.06519 27.5,-6.53611 14.9966,-0.79689 22.0754,1.85985 24.4957,9.19342 0.8911,2.69985 0.8505,4.06382 -0.1855,6.23436 -1.124,2.35504 -2.0239,2.82383 -5.9057,3.07656 -3.1997,0.20831 -4.9669,-0.16837 -5.8646,-1.25 -1.9062,-2.29691 0.2042,-4.31271 3.9411,-3.76425 2.4731,0.36297 3.019,0.0924 3.019,-1.4961 0,-1.06655 -1.1535,-3.02282 -2.5633,-4.34726 -2.1342,-2.00495 -3.8223,-2.47165 -10.0842,-2.78786 -9.733,-0.4915 -16.0052,0.80532 -35.295,7.29756 -26.5123,8.92306 -37.8475,9.73227 -50.3196,3.59229 l -6.5988,-3.2486 -3.9013,3.13516 c -7.8532,6.31104 -21.9485,9.51885 -29.4788,6.70881 z m 33.634,-21.2197 c 0.9041,-2.35625 0.7336,-6.22191 -0.3028,-6.86244 -1.6065,-0.99286 -4.0902,0.59625 -4.0902,2.61696 0,2.36462 1.7399,5.82727 2.9281,5.82727 0.4719,0 1.131,-0.7118 1.4649,-1.58179 z M 345.7815,941.25625 54.781503,940.7537 v -2.5 -2.5 l 302.682087,-0.25163 302.68206,-0.25163 0.6905,2.17543 c 1.2232,3.85412 -1.7291,4.85613 -13.4958,4.58038 -5.8074,-0.1361 -141.5088,-0.4736 -301.55885,-0.75 z M 63.031503,928.67104 c -0.4125,-0.41287 -0.75,-1.05269 -0.75,-1.42182 0,-0.36913 11.1375,-0.63163 24.75,-0.58333 27.979407,0.0993 29.957957,-0.25827 36.914677,-6.67076 3.35956,-3.09673 4.78253,-5.4495 6.33414,-10.47304 1.10065,-3.56348 2.00118,-7.33166 2.00118,-8.37373 0,-1.04206 0.45,-1.89466 1,-1.89466 1.50943,0 1.21254,3.1038 -0.97037,10.14466 -2.33535,7.53253 -6.44083,12.83679 -12.85325,16.60633 l -4.67638,2.74901 -25.499997,0.334 c -14.025,0.1837 -25.8375,-0.004 -26.25,-0.41666 z M 232.5315,928.51119 c -11.61388,-0.55284 -8.36315,-1.95025 4.9215,-2.11563 6.69432,-0.0833 12.28263,-0.26266 12.41846,-0.39849 0.13584,-0.13584 -0.70537,-2.27116 -1.86934,-4.74517 -1.62256,-3.44872 -2.21286,-7.01305 -2.53008,-15.2771 -0.39721,-10.34771 0.43369,-22.43021 1.47115,-21.39274 0.27321,0.27321 0.57589,7.39859 0.67263,15.83419 0.16468,14.36051 0.34707,15.70342 2.86341,21.08297 3.81431,8.15442 4.05737,8.05945 -17.94773,7.01197 z m 59.75,0.0265 c -6.04039,-0.46731 -7.87127,-1.12753 -6.12306,-2.20799 0.89028,-0.55022 0.10381,-1.04468 -2.41246,-1.51674 -6.85544,-1.28608 -13.38707,-8.81471 -20.95814,-24.15718 -6.91482,-14.01263 -8.71393,-16.07473 -14.90057,-17.07868 l -3.60577,-0.58508 v 16.67068 c 0,14.55177 0.24772,17.15625 1.94898,20.491 l 1.94898,3.82032 -6.69898,0.63273 c -10.77778,1.01798 -20.19898,0.79176 -20.19898,-0.48502 0,-0.62258 1.0125,-2.76008 2.25,-4.75 2.19138,-3.52377 2.26493,-4.54293 2.82314,-39.11803 0.61099,-37.8441 0.20598,-44.39491 -3.02536,-48.93289 -1.12628,-1.58172 -2.04778,-3.14388 -2.04778,-3.47148 0,-0.3276 11.86842,-0.59563 26.37427,-0.59563 29.03631,0 31.09119,0.3231 39.84428,6.26494 6.91704,4.69547 8.07469,7.47228 7.61386,18.26295 -0.25919,6.06904 -0.98499,10.20006 -2.24312,12.76718 -2.22896,4.54801 -8.38935,9.00417 -15.77732,11.41263 l -5.40809,1.76302 2.21649,4.01464 c 1.21906,2.20805 3.86584,9.09979 5.88173,15.31498 3.97789,12.26426 7.88413,17.72691 13.47589,18.84526 2.45505,0.49101 2.88302,1.09971 3.2141,4.57143 0.31514,3.30459 0.0257,4.14295 -1.65508,4.79382 -1.81957,0.70463 -1.85531,0.86236 -0.3349,1.4776 2.82648,1.14376 3.79863,-0.34597 3.78322,-5.79747 l -0.0147,-5.19098 -5.16419,-2.5 c -6.0194,-2.91401 -8.38331,-6.78209 -14.66721,-24 l -3.83211,-10.5 5.29496,-1.81618 c 5.83804,-2.00246 12.19266,-7.62422 14.77905,-13.07463 0.8813,-1.8572 1.97944,-6.46652 2.44032,-10.24295 0.73739,-6.04215 0.93783,-6.51065 1.67005,-3.90348 1.15995,4.13017 -0.88905,13.02365 -4.26466,18.51031 -3.12116,5.07307 -11.17016,11.02693 -14.90727,11.02693 -1.87618,0 -2.32739,0.41226 -1.91535,1.75 0.29647,0.9625 1.50304,4.9 2.68127,8.75 1.17823,3.85 3.2005,9.09197 4.49393,11.64882 2.55215,5.04508 8.79629,10.85118 11.66983,10.85118 2.90514,0 4.11447,4.09807 3.12579,10.59232 -0.95449,6.26962 -0.85888,6.19583 -7.37507,5.69172 z m -23.59198,-65.45437 c 8.62657,-2.18943 12.27071,-10.09329 6.87224,-14.90536 -1.72313,-1.53596 -2.18118,-1.71951 -1.25,-0.5009 1.37726,1.8024 1.31244,1.87585 -1.03026,1.16744 -5.95692,-1.80131 -12.93352,-2.52889 -18.69281,-1.94944 l -6.19281,0.62306 -0.69397,7.95547 c -0.8796,10.08353 -2.026,8.60649 -1.59614,-2.05649 0.29581,-7.33796 0.51519,-8.08099 2.5,-8.46745 1.48432,-0.28901 1.14294,-0.46691 -1.07427,-0.55982 l -3.25,-0.13613 v 10.34784 10.34783 l 10.25,-0.43707 c 5.6375,-0.24038 12.00861,-0.8834 14.15802,-1.42893 z m 0.32115,-18.43384 c -0.33229,-0.33229 -1.1948,-0.36781 -1.91667,-0.0789 -0.79773,0.31922 -0.56078,0.55618 0.60417,0.60416 1.05416,0.0434 1.64479,-0.19293 1.3125,-0.52522 z m 41.02083,84.02156 c -0.4125,-0.41287 -0.75,-1.04977 -0.75,-1.41534 0,-0.36557 10.9125,-0.62807 24.25,-0.58333 17.27339,0.0579 25.48901,-0.29377 28.55667,-1.22248 8.40095,-2.5433 14.90168,-11.09925 16.6745,-21.94619 0.38205,-2.3375 1.14463,-4.25 1.69463,-4.25 1.3989,0 0.0659,7.48563 -2.30526,12.94495 -2.82691,6.50876 -6.33217,10.65415 -11.65443,13.78275 l -4.71611,2.7723 -25.5,0.334 c -14.025,0.1837 -25.8375,-0.004 -26.25,-0.41666 z m 157.50005,-0.11005 c -11.5271,-0.62788 -8.4099,-1.99947 4.9215,-2.16543 6.6943,-0.0833 12.3524,-0.33253 12.5737,-0.55376 0.2212,-0.22123 -0.3531,-1.86289 -1.2763,-3.64813 -0.9232,-1.78524 -2.0284,-5.31455 -2.4561,-7.84293 l -0.7776,-4.59704 -0.1176,4.28518 c -0.068,2.46663 0.5764,5.34445 1.5178,6.78121 0.8995,1.37282 1.4129,2.71864 1.1408,2.99073 -0.2721,0.27208 -6.4081,0.77755 -13.6355,1.12326 -9.7607,0.46688 -13.1407,0.32609 -13.1407,-0.54735 0,-0.64675 1.2375,-3.04544 2.75,-5.33041 l 2.75,-4.15451 v -39.73845 c 0,-39.64132 -0.01,-39.74589 -2.25,-42.78356 -1.2375,-1.67481 -2.25,-3.51334 -2.25,-4.08561 0,-1.76925 50.533,-1.37277 56.5684,0.44384 6.7004,2.01671 14.6189,8.18051 16.1251,12.55178 2.7842,8.08019 0.8431,21.14409 -3.9533,26.60695 -3.2761,3.73125 -10.1966,7.66867 -15.4902,8.81318 -1.7876,0.38647 -3.25,0.88104 -3.25,1.09905 0,0.218 0.9038,1.86975 2.0085,3.67054 1.1047,1.80079 3.5872,8.31103 5.5166,14.4672 3.9349,12.55485 6.6912,16.63045 13.1918,19.50597 4.0023,1.77039 4.2831,2.15375 4.2831,5.84779 0,2.8473 -0.4197,3.95321 -1.5,3.95321 -0.825,0 -1.5,0.41018 -1.5,0.91152 0,0.50133 0.7875,0.79593 1.75,0.65467 1.4376,-0.211 1.75,-1.29951 1.75,-6.09795 0,-5.73505 -0.058,-5.8562 -3.2086,-6.67251 -5.1072,-1.32342 -9.177,-7.23921 -14.0295,-20.39305 -2.4151,-6.54647 -4.6096,-12.57768 -4.8768,-13.40268 -0.3467,-1.07035 0.9665,-2.01509 4.5847,-3.29831 10.1502,-3.59981 17.0009,-13.01525 17.0204,-23.39267 0,-2.85504 0.5232,-5.50828 1.1506,-5.89609 0.8314,-0.51384 1.0097,1.3403 0.657,6.83528 -0.3697,5.76071 -1.1093,8.60759 -3.1338,12.06213 -3.3841,5.77449 -10.0394,11.48185 -14.3268,12.28617 -1.8355,0.34434 -3.3372,1.13738 -3.3372,1.76231 0,0.62493 1.3729,5.25734 3.051,10.29425 4.0942,12.28936 7.7975,17.71941 14.0371,20.58186 l 4.9119,2.25337 v 6.17406 c 0,9.05802 -0.163,9.26509 -6.8263,8.6746 -7.6674,-0.67947 -9.0832,-1.15014 -7.1457,-2.37544 1.1874,-0.75093 1.0748,-0.93385 -0.5823,-0.94621 -3.2649,-0.0243 -11.0791,-5.52965 -14.5021,-10.21721 -1.7263,-2.36396 -5.9816,-9.95292 -9.4563,-16.86437 -6.0246,-11.98352 -6.5007,-12.62117 -10.2685,-13.75 -7.3628,-2.20597 -7.227,-2.3782 -7.1486,9.06627 0.046,6.65773 0.3715,9.54907 0.9298,8.25 0.4726,-1.1 0.891,-5.4875 0.9297,-9.75 0.046,-5.08137 0.4618,-7.75 1.2073,-7.75 0.8159,0 0.9467,2.61176 0.463,9.25 -0.8093,11.10772 0.5929,22.52123 3.5623,28.99709 1.1973,2.6109 1.8582,5.06567 1.4688,5.45505 -0.8571,0.85717 -10.4988,1.14344 -20.3811,0.60515 z m 31.4792,-64.8248 c 7.2428,-0.68572 11.8694,-3.11693 13.8419,-7.27377 1.2548,-2.64424 1.3905,-3.99751 0.5793,-5.77796 -1.1256,-2.47025 -5.8433,-6.07124 -6.757,-5.15752 -0.2993,0.29928 0.3897,0.84056 1.5312,1.20284 1.1414,0.36228 2.0754,1.07837 2.0754,1.59131 0,1.17216 -2.6987,1.2293 -3.4137,0.0723 -0.8665,-1.40191 -8.7168,-2.0962 -16.4096,-1.45127 l -7.1767,0.60165 -0.015,6.10497 c -0.01,3.35773 -0.4516,6.77996 -0.9847,7.60496 -1.1952,1.84935 -1.296,-0.87463 -0.363,-9.80172 0.5376,-5.14365 0.9669,-6.15995 2.75,-6.51051 1.4157,-0.27833 1.0737,-0.46034 -1.0364,-0.55159 -3.0592,-0.13228 -3.1603,-2.8e-4 -3.5364,4.61382 -0.2129,2.6125 -0.2071,7.29612 0.013,10.40805 l 0.4,5.65804 6.6364,-0.41925 c 3.6501,-0.2306 8.9897,-0.64205 11.8658,-0.91435 z m 4.9999,-19.08666 c -0.3323,-0.33229 -1.1948,-0.36781 -1.9166,-0.0789 -0.7978,0.31922 -0.5608,0.55618 0.6041,0.60416 1.0542,0.0434 1.6448,-0.19293 1.3125,-0.52522 z M 141.2815,927.2537 c 0,-0.59736 3.92577,-1.0055 9.75,-1.01365 5.3625,-0.008 10.75175,-0.28219 11.97611,-0.61039 1.93806,-0.51951 2.07454,-0.87358 1.05477,-2.73634 -0.64423,-1.17679 -1.47716,-3.93962 -1.85094,-6.13962 -0.63077,-3.71254 -0.6886,-3.77111 -0.80477,-0.8151 -0.0688,1.7517 0.31369,4.3392 0.85008,5.75 l 0.97525,2.5651 h -12.97525 c -10.66931,0 -12.97525,-0.25775 -12.97525,-1.45031 0,-0.79767 0.60931,-1.81017 1.35402,-2.25 3.48153,-2.05622 10.07602,-21.17071 18.727,-54.28124 7.14744,-27.35596 7.98588,-33.05023 5.40826,-36.7303 -0.8309,-1.18627 -1.13125,-2.39139 -0.66744,-2.67804 0.46381,-0.28665 6.3216,-0.42869 13.01731,-0.31565 10.39947,0.17558 12.07797,0.42419 11.51505,1.70554 -1.81786,4.13798 -1.40808,8.82777 1.71038,19.57436 1.81775,6.26417 3.46962,11.22478 3.67082,11.02357 0.20121,-0.20121 -1.04488,-5.85827 -2.76909,-12.57124 -2.68559,-10.456 -2.96212,-12.6226 -1.92929,-15.11605 1.24573,-3.00746 4.70463,-4.28573 3.5657,-1.31774 -2.16635,5.64543 -1.65093,8.45265 7.05174,38.4071 9.70007,33.38745 17.05428,53.46589 20.32316,55.48617 0.56231,0.34753 1.02238,1.50531 1.02238,2.57285 0,1.82927 -0.80916,1.94098 -14.05902,1.94098 -9.11803,0 -13.84181,-0.35145 -13.44098,-1 0.35561,-0.57539 5.63619,-1 12.43643,-1 h 11.81839 l -3.8018,-7.75 c -2.091,-4.2625 -5.43616,-13.375 -7.43369,-20.25 -4.38553,-15.09385 -11.51324,-37.30905 -12.19158,-37.99795 -1.59255,-1.61734 15.14624,52.29461 18.14417,58.43837 1.3259,2.71724 2.17034,5.3294 1.87652,5.80481 -0.48102,0.77831 -24.29777,-0.0265 -25.24094,-0.85298 -0.21588,-0.18915 0.21805,-1.07959 0.96429,-1.97875 2.0217,-2.436 1.5566,-11.17075 -0.8873,-16.6635 l -2.11342,-4.75 h -9.95517 -9.95517 l -1.66221,5.00446 c -0.91422,2.75245 -1.43591,5.56495 -1.15931,6.25 0.27659,0.68505 0.55728,0.34554 0.62376,-0.75446 0.0665,-1.1 0.9343,-3.52679 1.9285,-5.39286 l 1.80764,-3.39285 h 8.35283 c 5.37573,0 8.4886,0.40733 8.73377,1.14285 0.2658,0.7974 -2.18891,1.14286 -8.12075,1.14286 h -8.5017 l -1.54539,6.75 c -1.47749,6.45342 -1.4567,6.92074 0.47319,10.63596 3.27206,6.29905 2.69772,6.61404 -12.05968,6.61404 -8.02092,0 -13.03138,-0.38449 -13.03138,-1 z m 39.50121,-40.75 c -0.39202,-0.9625 -1.42196,-3.775 -2.28876,-6.25 l -1.57601,-4.5 -1.70779,4 c -3.62391,8.48796 -3.62163,8.5 1.61095,8.5 4.05665,0 4.58018,-0.23127 3.96161,-1.75 z m -4.50121,-12.25 c 0,-0.55 -0.45,-1 -1,-1 -0.55,0 -1,0.45 -1,1 0,0.55 0.45,1 1,1 0.55,0 1,-0.45 1,-1 z m 213.57525,53.12175 c -0.94633,-1.53119 4.63984,-2.00127 14.4366,-1.21484 5.2185,0.41891 16.4631,0.49873 24.9882,0.17737 l 15.5,-0.58428 3.3595,-9.75 c 1.8477,-5.3625 3.7602,-9.75 4.25,-9.75 1.4767,0 1.0524,1.89798 -2.7206,12.16943 l -3.6111,9.83057 h -27.8299 c -15.30646,0 -28.07417,-0.39521 -28.3727,-0.87825 z m 154.0129,0.0208 c -0.9,-1.45615 1.0944,-2.37812 3.4956,-1.616 1.1362,0.36063 6.7382,0.33722 12.4488,-0.052 l 10.383,-0.70771 -2.4871,-4.90797 c -1.4053,-2.77338 -2.8848,-8.05051 -3.4017,-12.13343 l -0.9147,-7.22545 0.3062,7.5 c 0.1898,4.6486 0.997,8.92092 2.1232,11.23744 0.9993,2.0556 1.5733,3.9812 1.2753,4.27912 -0.2979,0.29792 -6.6848,0.41607 -14.1932,0.26256 l -13.6514,-0.27911 2.7639,-4 2.764,-4 0.293,-39.11072 c 0.2966,-39.5807 0.2444,-40.35805 -3.2653,-48.63928 -0.6847,-1.61538 0.2665,-1.75 12.3653,-1.75 7.2088,0 13.107,0.39504 13.107,0.87788 0,0.48283 -0.7406,2.62033 -1.6457,4.75 -1.3265,3.12088 -1.7857,9.30445 -2.3674,31.87212 -0.3969,15.4 -0.59,28.15374 -0.4293,28.34165 0.7453,0.87113 1.3923,-10.30165 1.8543,-32.02288 0.4042,-19.00193 0.8305,-24.43581 2.1575,-27.5 1.9531,-4.50987 3.1813,-2.7505 1.3631,1.95248 -1.7092,4.42096 -2.6061,72.51374 -1.0321,78.35908 0.6065,2.25242 2.2299,5.75625 3.6075,7.7863 1.8473,2.7221 2.2589,4.15053 1.5679,5.44155 -0.8093,1.51223 -2.77,1.78719 -14.4019,2.01967 -8.2359,0.1646 -13.7062,-0.12094 -14.0858,-0.73527 z m 35.9119,-0.14255 c 0.3476,-0.56254 5.1497,-1 10.9772,-1 12.5665,0 13.9439,-0.37537 12.2924,-3.34996 -0.6565,-1.18252 -1.5201,-4.40004 -1.919,-7.15004 -0.6501,-4.48176 -0.6919,-4.30038 -0.4031,1.75 l 0.3221,6.75 h -12.8848 c -7.0867,0 -12.8848,-0.27809 -12.8848,-0.61798 0,-0.3399 1.2563,-2.04888 2.7918,-3.79774 1.8799,-2.14108 4.468,-8.22723 7.9232,-18.63201 5.9161,-17.81528 17.285,-61.11389 17.285,-65.82997 0,-1.75597 -0.7268,-4.30183 -1.6151,-5.65748 -0.8882,-1.35565 -1.2257,-2.55443 -0.75,-2.66395 2.0912,-0.48139 25.3562,-0.24471 25.3604,0.258 0,0.30738 -0.656,1.43238 -1.4635,2.5 -2.4994,3.30451 -2.8856,1.6754 12.0746,50.94113 10.3839,34.19536 11.2217,36.64387 13.558,39.628 1.3169,1.68211 1.0082,0.33606 -1.0615,-4.628 -1.6052,-3.85 -3.6741,-9.7 -4.5975,-13 -0.9235,-3.3 -4.7576,-15.9 -8.5202,-28 -9.3522,-30.07474 -11.6732,-39.64522 -10.4524,-43.09986 0.5319,-1.50519 1.5511,-2.93062 2.2647,-3.16763 1.0005,-0.33223 1.1507,0.67952 0.6561,4.41829 -0.689,5.20769 0.1207,9.09036 6.2247,29.8492 12.6878,43.14925 17.1006,55.50695 21.4896,60.17873 1.1747,1.25041 1.8252,2.89667 1.49,3.77039 -0.4972,1.29544 -2.8238,1.55088 -14.1266,1.55088 -8.3542,0 -13.5313,-0.3826 -13.5313,-1 0,-0.61111 4.6666,-1 12,-1 6.8315,0 12,-0.40528 12,-0.94098 0,-1.48099 -1.7915,-2.2054 -2.5238,-1.02052 -0.4503,0.72853 -4.5503,0.85148 -12.8191,0.38439 -6.6865,-0.37769 -12.3338,-0.84148 -12.5496,-1.03064 -0.2159,-0.18915 0.1757,-1.02867 0.8703,-1.86559 1.7792,-2.14378 0.8891,-12.08321 -1.5247,-17.02666 l -1.9531,-4 h -9.9561 -9.956 l -1.2822,4.42848 c -1.6597,5.73258 -0.9447,6.48847 0.9007,0.9522 l 1.4148,-4.24432 h 8.8788 c 5.9409,0 9.0091,0.39105 9.2727,1.18182 0.2825,0.84762 -2.0224,1.18182 -8.1507,1.18182 h -8.5446 l -1.5387,5.1815 c -1.9713,6.63809 -1.9388,7.70658 0.3931,12.91504 1.0625,2.37322 1.711,4.67236 1.441,5.1092 -0.27,0.43684 -6.5659,0.79426 -13.9909,0.79426 -8.7453,0 -13.2823,-0.3522 -12.8819,-1 z m 39.4991,-40.25 c -4e-4,-0.6875 -0.862,-3.5 -1.9147,-6.25 -1.838,-4.80179 -1.9522,-4.90089 -2.8803,-2.5 -0.5316,1.375 -1.672,4.1875 -2.5343,6.25 l -1.5678,3.75 h 4.449 c 2.8929,0 4.4487,-0.43719 4.4481,-1.25 z m -4.7015,-13.4166 c -0.4685,-1.22113 -0.7337,-1.25232 -1.4215,-0.16725 -1.2639,1.99392 -1.0507,2.83806 0.5607,2.21971 0.7903,-0.30326 1.1777,-1.22687 0.8608,-2.05246 z M 66.531503,924.50863 c -5.0875,-0.18149 -9.25,-0.59748 -9.25,-0.92442 0,-0.32694 1.0125,-2.22256 2.25,-4.21248 2.22245,-3.57373 2.25359,-4.11203 2.54292,-43.96269 0.28577,-39.35876 0.24201,-40.43096 -1.79063,-43.87603 -1.14596,-1.94226 -1.93778,-3.67716 -1.7596,-3.85533 1.06113,-1.06113 32.91984,-1.48513 42.496627,-0.56558 12.20755,1.17216 15.09646,2.2302 19.94935,7.30628 3.87606,4.05434 4.98502,6.82891 5.87559,14.70057 0.37658,3.32847 1.15206,5.95794 1.7233,5.84326 1.28446,-0.25787 0.95979,9.51072 -0.43833,13.18803 -0.54255,1.42703 -2.08058,4.02906 -3.41784,5.7823 -3.07569,4.03243 -3.0534,4.35105 0.54549,7.79901 3.99523,3.82767 5.43394,8.51918 5.40421,17.62267 -0.0196,6.00153 -0.53565,8.63113 -2.45296,12.49931 -2.86384,5.77783 -10.41822,11.88802 -15.79786,12.77775 -3.56872,0.59023 -27.705847,0.5257 -45.880267,-0.12265 z M 107.12556,906.3454 c 2.98382,-1.60738 6.26851,-8.88691 5.47884,-12.14221 -0.9316,-3.84038 -5.10629,-7.63952 -9.65842,-8.78955 -5.018907,-1.26795 -20.508777,-2.23608 -21.045247,-1.31534 -0.21003,0.36047 -0.70311,5.9179 -1.09573,12.34984 l -0.71385,11.69444 5.34517,0.30556 c 7.76649,0.44398 18.979737,-0.64313 21.689237,-2.10274 z m -24.627887,-9.8417 0.28383,-10.75 7.5,0.0444 c 8.70764,0.0516 16.174967,1.88643 18.604927,4.57151 2.15984,2.38659 0.25699,2.49491 -3.2669,0.18596 -1.77485,-1.16292 -5.38804,-1.83178 -11.464817,-2.12232 l -8.87321,-0.42419 -0.009,4.37232 c -0.0136,6.85412 -1.18054,14.87232 -2.16442,14.87232 -0.492,0 -0.76682,-4.8375 -0.61071,-10.75 z m 38.291247,-20.238 c -0.33584,-0.5434 0.55166,-2.2309 1.97223,-3.75 2.65168,-2.83561 4.24184,-6.87385 3.14045,-7.97524 -0.34106,-0.34105 -0.6201,0.33925 -0.6201,1.51178 0,1.17253 -1.38484,3.70912 -3.07743,5.63687 -2.6004,2.96168 -3.21061,5.56459 -1.30454,5.56459 0.275,0 0.22523,-0.4446 -0.11061,-0.988 z m -17.12042,-8.96904 c 5.22726,-1.9874 7.49339,-13.05112 3.91425,-19.11013 -2.29504,-3.88519 -5.895,-4.93283 -16.950467,-4.93283 h -9.35078 v 12.5 12.5 h 9.9349 c 5.4642,0 11.067637,-0.43067 12.452097,-0.95704 z M 82.281503,855.7537 v -10.5 l 7.25,0.006 c 8.14494,0.006 13.914137,1.30142 16.263877,3.65116 2.42433,2.42433 0.96927,2.80041 -3.19303,0.82527 -2.06286,-0.97889 -6.746217,-1.99413 -10.407447,-2.25609 l -6.65679,-0.47629 -0.72163,9.62518 c -0.3969,5.29344 -1.12963,9.62477 -1.62831,9.62477 -0.49867,0 -0.90667,-4.725 -0.90667,-10.5 z m 44.692987,3.76903 c -0.25354,-0.97297 -0.47766,-0.41903 -0.49804,1.23097 -0.0204,1.65 0.18706,2.44606 0.46099,1.76903 0.27392,-0.67703 0.29059,-2.02703 0.037,-3 z m 186.55701,64.9859 c -7.29965,-0.2604 -9.25,-0.63834 -9.25,-1.79246 0,-0.80436 0.37777,-1.46247 0.83948,-1.46247 0.46172,0 1.47422,-1.2375 2.25,-2.75 1.12933,-2.20178 1.47088,-10.798 1.71333,-43.12101 l 0.3028,-40.37101 -2.49899,-3.77623 -2.49899,-3.77622 15.19619,-0.70444 c 17.15944,-0.79544 38.10293,0.61603 42.39432,2.85714 6.69821,3.49802 10.60123,10.06369 11.81811,19.88045 0.39125,3.15627 1.11015,5.49222 1.59756,5.19098 1.2939,-0.79967 1.08326,8.18053 -0.30019,12.79809 -0.65251,2.17788 -2.47005,5.33396 -4.03898,7.0135 l -2.85261,3.05373 3.10012,3.03093 c 4.54891,4.44741 5.97923,8.77238 5.96808,18.04621 -0.0157,13.07274 -5.30085,21.46804 -15.90003,25.25676 -3.47161,1.24094 -23.32198,1.50071 -47.8402,0.62605 z m 39.39292,-17.88977 c 6.6605,-3.16062 8.72065,-12.28869 3.90737,-17.31267 -3.42044,-3.57016 -7.94917,-4.81231 -19.0357,-5.22114 l -8.98541,-0.33135 -0.64628,3 c -0.35545,1.65 -0.69951,7.1625 -0.76459,12.25 l -0.11831,9.25 h 11.09887 c 8.20097,0 11.9984,-0.42686 14.54405,-1.63484 z m -23.42675,-10.11516 0.28383,-10.75 7.5,0.0444 c 8.70764,0.0516 16.17497,1.88643 18.60493,4.57151 2.18688,2.41647 0.72293,2.38747 -4.74573,-0.094 -3.01869,-1.36976 -6.55997,-1.98479 -11.51588,-2 l -7.15667,-0.022 -0.71224,9.5 c -0.39174,5.225 -1.12396,9.5 -1.62716,9.5 -0.51408,0 -0.79056,-4.70969 -0.63108,-10.75 z m 42.03383,-26.48132 c 0.9625,-1.48407 1.74012,-3.50165 1.72804,-4.4835 -0.0121,-0.98185 -0.84077,0.0148 -1.84152,2.21482 -1.00076,2.2 -2.56588,4.6176 -3.47804,5.37244 -0.91216,0.75485 -1.65848,1.76735 -1.65848,2.25 0,1.15391 3.03999,-1.94616 5.25,-5.35376 z m -20.863,-2.72572 c 3.43878,-1.30742 5.613,-5.94698 5.613,-11.97752 0,-4.14759 -0.51338,-5.60888 -2.91586,-8.29966 l -2.91586,-3.26578 -11.08414,-0.33848 -11.08414,-0.33847 v 12.58847 12.58848 h 9.9349 c 5.4642,0 11.06764,-0.43067 12.4521,-0.95704 z m -21.387,-11.54296 v -10.5 l 7.25,0.006 c 8.14494,0.006 13.91414,1.30142 16.26388,3.65116 2.42433,2.42433 0.96927,2.80041 -3.19303,0.82527 -2.06286,-0.97889 -6.73405,-1.99326 -10.38042,-2.25416 l -6.62975,-0.47436 -0.65534,6.26995 c -0.36044,3.44805 -0.65534,7.77851 -0.65534,9.62283 0,1.84432 -0.45,3.35331 -1,3.35331 -0.60317,0 -1,-4.16667 -1,-10.5 z m 44.70726,2.26166 c -0.23919,-1.24391 -0.44398,-0.46166 -0.45508,1.73834 -0.0111,2.2 0.18461,3.21775 0.4349,2.26166 0.25029,-0.95609 0.25937,-2.75609 0.0202,-4 z m 28.04274,66.48986 c -11.16659,-0.18726 -17.75,-0.67478 -17.75,-1.31443 0,-0.55922 0.95521,-2.88913 2.12268,-5.17757 2.98284,-5.84684 4.10811,-22.32508 3.70529,-54.25952 l -0.32797,-26 -2.75,-4.87595 c -1.5125,-2.68178 -2.75,-5.22954 -2.75,-5.66169 0,-0.43215 13.32417,-0.7346 29.60925,-0.67211 28.6923,0.1101 29.6491,0.17704 30.8963,2.16168 1.6419,2.61271 5.0601,17.31573 4.2208,18.15508 -1.2296,1.22958 -5.4943,-0.6116 -6.0132,-2.59607 -0.5017,-1.91846 -1.335,-2.01094 -18.1195,-2.01094 h -17.5937 v 14 14 h 3.0658 c 3.8017,0 6.9342,-1.59703 6.9342,-3.53518 0,-0.90897 0.9818,-1.46482 2.5872,-1.46482 h 2.5872 l -0.515,10.25 c -0.2832,5.6375 -0.5474,10.3625 -0.5871,10.5 -0.3454,1.19564 -4.8698,-0.19623 -5.8762,-1.80771 -0.9934,-1.59069 -2.1261,-1.98787 -4.9906,-1.75 l -3.7055,0.30771 -0.2797,12.12558 c -0.2743,11.88463 -0.2345,12.13772 2,12.73635 1.2538,0.33592 9.2975,0.61691 17.8748,0.62442 14.3347,0.0125 15.7413,-0.14798 17.405,-1.98635 1.9958,-2.20534 6.8546,-2.78246 6.3143,-0.75 -0.1827,0.6875 -1.6409,5.13373 -3.2405,9.88051 l -2.9083,8.63051 -5.0827,0.6108 c -2.7956,0.33594 -8.2328,0.51328 -12.0829,0.39409 -3.85,-0.11919 -14.9874,-0.35067 -24.74995,-0.51439 z m 6.24995,-29.07587 c 0,-10.48161 0.094,-10.96697 2.2328,-11.52627 1.228,-0.32113 2.6828,-0.13387 3.2328,0.41613 0.6666,0.66666 0.2557,1.19462 -1.2328,1.58387 -2.1089,0.55151 -2.2328,1.10088 -2.2328,9.90823 0,5.13755 -0.449,9.60186 -1,9.94239 -0.6433,0.39764 -1,-3.28407 -1,-10.32435 z m 10,-6.10923 c 0,-0.58653 0.8476,-1.06642 1.8834,-1.06642 2.4799,0 3.0864,-2.5895 3.103,-13.25 0.01,-5.15756 0.4242,-8.75 1.0136,-8.75 1.1271,0 1.2168,16.99216 0.1108,21 -0.4838,1.75336 -1.4993,2.5945 -3.4003,2.81642 -1.4908,0.17403 -2.7105,-0.16347 -2.7105,-0.75 z m -10,-33.56642 v -11.5 h 16.4649 c 15.4413,0 16.5313,0.12432 17.5352,2 0.6933,1.29558 2.0938,2 3.9761,2 1.5982,0 3.1839,0.45 3.5239,1 0.3769,0.60997 -1.1339,1 -3.8736,1 -3.6134,0 -4.6158,-0.39106 -5.1264,-2 -0.5975,-1.88237 -1.5131,-2 -15.5674,-2 h -14.9327 v 10.5 c 0,6.33333 -0.3968,10.5 -1,10.5 -0.6087,0 -1,-4.5 -1,-11.5 z M 344.7815,815.25626 54.781503,814.7537 v -2.5 -2.5 l 302.682087,-0.25163 302.68206,-0.25163 0.6905,2.17543 c 1.2468,3.92834 -1.6847,4.85464 -14.4958,4.58039 -6.3574,-0.1361 -142.0588,-0.4736 -301.55885,-0.75 z M 170.01597,797.16565 c -4.7316,-1.11475 -10.59298,-4.08057 -14.40694,-7.28981 l -2.93954,-2.47345 -6.40194,3.17565 c -5.4929,2.72473 -7.6895,3.22378 -15.4694,3.51454 -10.56434,0.39481 -17.90561,-1.17852 -38.340777,-8.21696 -15.80194,-5.44262 -24.15559,-7.05791 -32.87937,-6.35765 -7.15683,0.57448 -11.62153,3.47326 -11.08809,7.19911 0.2367,1.65321 0.90343,1.97537 3.54159,1.71125 2.71099,-0.2714 3.25,0.013 3.25,1.71482 0,2.78191 -3.46421,4.43365 -7.65131,3.64814 -9.01908,-1.69199 -5.65075,-15.44684 4.47838,-18.28788 1.47011,-0.41234 7.39793,-0.71042 13.17293,-0.66241 10.2776,0.0855 10.92362,0.23294 30.5,6.96308 l 19.999997,6.87577 11.5,0.0369 c 10.55605,0.0339 11.91041,-0.18071 16.5,-2.61443 5.34169,-2.83254 5.14496,-2.26373 3.84196,-11.10839 -0.76068,-5.16342 0.23616,-8.41773 3.16663,-10.33785 4.57389,-2.99692 11.49141,0.87263 11.49141,6.42811 0,1.55679 -1.11406,5.03108 -2.4757,7.72065 l -2.47569,4.89013 2.66002,2.77647 c 1.46302,1.52705 5.06896,3.67776 8.01321,4.77935 10.21818,3.82311 19.29652,1.93528 24.02816,-4.99661 3.12437,-4.57724 2.90584,-8.49852 -0.67308,-12.07743 -3.87393,-3.87394 -9.58978,-4.0453 -13.90202,-0.41679 -2.824,2.37623 -6.1749,2.55042 -6.1749,0.32098 0,-6.86812 13.74962,-10.48196 21.10212,-5.54631 7.62829,5.12079 8.83218,14.36828 2.93107,22.51453 -4.53726,6.2635 -14.47574,8.66632 -25.29872,6.11646 z m -13.70084,-22.50041 c 1.17478,-3.08991 0.25643,-5.41154 -2.14062,-5.41154 -1.42489,0 -1.89301,0.72164 -1.89301,2.91821 0,6.12589 2.14778,7.45351 4.03363,2.49333 z m 368.35032,21.73822 c -5.8094,-2.72679 -9.5698,-8.02906 -10.1772,-14.34972 -0.9225,-9.60066 5.2644,-15.80004 15.7681,-15.80004 4.3707,0 5.5599,0.46581 8.7898,3.44287 3.5052,3.23075 3.6317,3.5478 2.0534,5.14619 -1.5829,1.60306 -1.867,1.54756 -4.8267,-0.94287 -6.68,-5.62089 -16.9913,-1.73222 -16.9913,6.40791 0,4.80636 4.4056,10.26463 9.6939,12.00989 7.1657,2.36491 20.5282,-1.22027 25.6422,-6.87985 1.7863,-1.97686 1.7765,-2.11274 -0.3611,-5.00401 -5.3937,-7.29543 -2.924,-16.58013 4.4104,-16.58013 6.5908,0 7.9777,3.76858 6.4033,17.4 -0.2436,2.10919 0.4929,2.89081 4.7113,5 4.5036,2.25183 6.1416,2.49195 16.5,2.41896 11.4864,-0.081 11.5235,-0.089 31.4166,-6.85357 17.6637,-6.00641 21.0008,-6.82927 29.5,-7.27413 15.2018,-0.79569 23.1292,3.34158 23.3803,12.20209 0.1423,5.02046 -3.2142,7.94404 -8.1929,7.1361 -5.9129,-0.95952 -6.8048,-5.12945 -1.0972,-5.12945 1.8264,0 3.5144,-0.57692 3.751,-1.28204 0.7748,-2.30901 -2.6623,-6.09744 -6.4984,-7.16277 -9.1238,-2.53376 -18.9874,-0.8744 -43.2594,7.27759 -24.6253,8.27059 -35.4571,8.91753 -48.3434,2.88733 l -6.6511,-3.11244 -3.247,2.9657 c -7.3278,6.69286 -24.2818,9.87494 -32.3746,6.07634 z m 36.1699,-21.58482 c 0.7193,-3.83447 0.053,-5.56494 -2.1442,-5.56494 -2.185,0 -2.8006,2.64193 -1.4022,6.01796 1.6216,3.91487 2.7541,3.77019 3.5464,-0.45307 z m -361.3734,-21.81494 0.31955,-2.25 h 158 158.00005 l 0.3195,2.25 0.3196,2.25 H 357.7815 199.1424 Z m 100.26826,-14.37953 c -2.56177,-2.74477 -2.65711,-3.22998 -2.17707,-11.08027 l 0.50202,-8.20979 -3.57288,-1.17916 c -1.96508,-0.64854 -6.26517,-1.14098 -9.55574,-1.09433 -6.65064,0.0943 -15.19276,3.6588 -22.2409,9.2808 -7.20046,5.74351 -13.26254,8.20121 -21.43949,8.69206 -6.9878,0.41947 -7.75956,0.26367 -10.62108,-2.14414 -7.29435,-6.13779 -3.4673,-18.0006 4.7139,-14.61183 5.02982,2.08341 4.71588,7.93107 -0.42991,8.00799 -2.08583,0.0312 -2.08948,0.0606 -0.18643,1.5 2.27156,1.71813 8.24509,1.9182 12.21435,0.40909 1.53212,-0.58251 5.27391,-3.12276 8.3151,-5.645 8.74895,-7.25604 16.55962,-10.46581 26.85557,-11.0362 7.1222,-0.39457 9.80889,-0.0954 15.01884,1.67252 l 6.34499,2.15304 4.23875,-3.47333 c 17.39174,-14.25123 39.18743,-15.17081 47.53656,-2.0056 2.46209,3.88231 2.94976,4.23669 3.4896,2.5358 1.91217,-6.02472 9.4134,-10.9634 17.99769,-11.84938 8.86618,-0.91507 22.64142,4.18363 30.51077,11.29312 l 3.8916,3.51578 7.1585,-2.17433 c 13.5659,-4.12054 28.6897,-1.17825 39.5932,7.70276 2.9834,2.42997 6.8798,5.30561 8.6588,6.39029 3.8668,2.35765 11.4918,2.63048 14.2934,0.51144 1.9031,-1.43939 1.8994,-1.46882 -0.1864,-1.5 -3.2197,-0.0481 -4.8984,-2.582 -3.5994,-5.43293 1.4199,-3.11653 5.7331,-4.15246 8.8328,-2.12145 1.9454,1.27464 2.3942,2.42229 2.3942,6.12256 0,6.03512 -3.9633,10.34336 -9.6731,10.51517 -9.2347,0.27788 -15.3616,-1.85043 -25.6895,-8.92382 -12.4197,-8.50601 -20.667,-10.84547 -30.6761,-8.70174 -4.9837,1.06741 -6.0391,2.1757 -4.9071,5.15297 0.5201,1.3682 0.9457,4.74296 0.9457,7.49946 0,4.25004 -0.462,5.47391 -3.04,8.05189 -2.5443,2.54424 -3.5636,2.93895 -6.25,2.42007 -1.7655,-0.341 -4.0438,-1.62573 -5.06293,-2.85495 -2.56631,-3.09532 -1.91684,-12.167 1.18273,-16.51992 l 2.2288,-3.1301 -5.32484,-4.02031 c -11.55388,-8.72326 -22.46436,-10.86911 -31.79699,-6.25376 -6.54156,3.23505 -8.43672,6.37809 -8.43672,13.9919 0,6.02897 0.17586,6.488 3.73531,9.75 3.07049,2.81389 4.51915,3.42316 8.13922,3.42316 5.53619,0 8.49502,-2.30532 9.28405,-7.23348 0.75698,-4.72804 -1.04986,-9.16814 -4.34108,-10.66772 -5.34428,-2.43502 -9.40473,1.90533 -4.87163,5.20746 1.40477,1.0233 2.55413,2.48219 2.55413,3.24196 0,2.23526 -3.51302,3.58743 -6.43453,2.47667 -2.31277,-0.87931 -2.56547,-1.50241 -2.56547,-6.32583 0,-4.28879 0.45599,-5.77881 2.29807,-7.50936 5.25325,-4.93517 13.88485,-3.22337 17.03277,3.3779 2.09253,4.38807 2.14859,11.60461 0.12061,15.52628 -4.81582,9.31278 -19.66019,9.30566 -26.54957,-0.0127 l -2.2464,-3.03841 -2.26668,3.33571 c -3.31321,4.87584 -8.35269,6.93688 -15.66771,6.40776 -5.38917,-0.38982 -6.35798,-0.81349 -9.36601,-4.09582 -3.04581,-3.32357 -3.35508,-4.22766 -3.35508,-9.8077 0,-10.15318 5.74399,-16.16922 13.64931,-14.2958 4.98765,1.18198 7.3526,4.19238 7.33538,9.33739 -0.008,2.51663 -0.34592,5.05851 -0.75,5.64863 -1.23668,1.80605 -4.27635,2.47513 -6.30713,1.38829 -2.71901,-1.45517 -2.39321,-4.65338 0.6357,-6.24038 2.54714,-1.33458 2.55134,-1.35775 0.66872,-3.68269 -3.93477,-4.85924 -10.23198,0.34738 -10.23198,8.45993 0,10.63256 16.32058,11.65571 20.47078,1.28332 2.63672,-6.5898 1.32171,-12.97638 -3.5919,-17.44471 -3.59188,-3.26637 -12.05698,-5.68704 -17.19382,-4.91672 -8.68073,1.30175 -26.15864,12.13324 -23.07459,14.29988 2.22718,1.56467 4.38953,7.2887 4.38953,11.6197 0,5.55813 -2.29193,8.52788 -7.1861,9.31133 -3.16786,0.5071 -4.06276,0.18649 -6.36519,-2.28042 z m 8.36993,-7.19943 c 0.18541,-1.92762 -0.39434,-4.40072 -1.38665,-5.91518 -1.63045,-2.48838 -1.76511,-2.52077 -3.06864,-0.7381 -0.74984,1.02548 -1.36335,3.26349 -1.36335,4.97337 0,6.05931 5.25154,7.57549 5.81864,1.67991 z m 103.98131,2.62896 c 2.2193,-2.21922 0.8475,-10.8 -1.7266,-10.8 -0.4709,0 -1.5847,1.82082 -2.4752,4.04627 -2.3241,5.80853 0.5413,10.41423 4.2018,6.75373 z m -258.1127,-8.96974 c -8.18892,-2.27367 -13.33976,-11.40626 -11.46642,-20.33026 1.46421,-6.97501 5.51517,-11.4705 15.81325,-17.54852 47.88517,-28.26227 96.96199,-45.15274 152.96592,-52.64535 19.51218,-2.61048 73.73219,-2.59162 92.99995,0.0324 54.2825,7.39242 100.3499,22.90025 148.4202,49.96315 15.4325,8.68829 20.5799,14.59891 20.5799,23.63161 0,11.26738 -9.9045,19.39556 -21.3627,17.53135 -2.3645,-0.38471 -10.9932,-4.47976 -20.1373,-9.55693 -45.1968,-25.09489 -88.511,-39.04687 -140.00005,-45.09554 -15.03922,-1.76673 -56.27517,-1.4548 -72.5,0.54843 -49.52478,6.11466 -94.1425,20.96849 -138.34455,46.05675 -14.17434,8.04509 -19.45932,9.49781 -26.9682,7.41295 z m 10.71659,-15.13629 c 2.81353,-2.0573 1.7448,-6.11959 -1.71431,-6.51623 -1.54576,-0.17724 -3.45826,0.21536 -4.25,0.87245 -1.48096,1.22908 -1.95698,5.09903 -0.77286,6.28314 1.10541,1.10542 4.83511,0.75147 6.73717,-0.63936 z m 386.44281,-4.44397 c 1.2269,-2.34132 -0.2355,-5.92127 -2.7441,-6.71746 -2.5643,-0.81386 -6.1025,1.02638 -6.1025,3.1739 0,4.36614 6.9556,7.15225 8.8466,3.54356 z m -361.2433,-1.30003 c 5.83675,-2.82552 6.74196,-4.09798 5.24793,-7.37704 -1.49547,-3.2822 -4.35128,-3.01291 -4.35128,0.41031 0,2.95427 -3.66831,5.15336 -7.96808,4.77674 -2.10047,-0.18399 -3.63511,-1.25322 -5.25,-3.65786 -3.20918,-4.77862 -2.96252,-8.35164 0.79481,-11.51323 3.52602,-2.96695 4.74908,-3.20641 5.56164,-1.08889 0.65123,1.69706 1.29575,1.82831 3.1628,0.64405 1.03978,-0.65954 1.05776,-1.35956 0.0895,-3.48469 -1.48299,-3.25481 -3.17275,-3.32733 -8.69587,-0.37318 -7.40345,3.95988 -9.98057,10.3598 -6.71476,16.67518 3.59643,6.95473 10.26823,8.7912 18.12333,4.98861 z m 343.5679,-1.60496 c 2.8386,-2.56886 2.2456,-6.49803 -1.6712,-11.07398 -3.7008,-4.32347 -4.3786,-6.71992 -2.1433,-7.57768 2.0621,-0.79132 6.1423,1.63914 6.1508,3.66394 0.012,2.85654 3.182,4.09138 4.4449,1.73154 1.624,-3.03439 1.3416,-3.62848 -3.1318,-6.58883 -5.1744,-3.42423 -11.3217,-3.9029 -13.4119,-1.04433 -2.3361,3.19478 -1.6167,6.08888 2.5913,10.42489 4.1887,4.31621 5.0004,6.79829 2.5329,7.74515 -2.7184,1.04317 -7.031,-1.1246 -7.0579,-3.54774 -0.014,-1.23564 -0.8008,-2.68079 -1.7491,-3.21145 -1.367,-0.76502 -1.9642,-0.43777 -2.8837,1.58026 -0.9593,2.10564 -0.8603,2.87581 0.5738,4.46043 4.2555,4.70236 12.3953,6.47846 15.7552,3.4378 z m -22.7053,-19.95476 c -0.037,-13.85297 0.088,-13.58366 -7.3624,-15.87947 -2.1512,-0.66294 -2.3331,-0.49667 -1.7776,1.62537 0.5087,1.94364 -0.4823,3.47488 -5.5747,8.61385 -3.4064,3.4375 -6.7424,6.25 -7.4133,6.25 -2.8955,0 -2.1175,2.06528 1.3189,3.50108 4.3263,1.80766 7.2584,1.30668 5.4072,-0.92389 -1.9913,-2.3994 0.7036,-2.93762 5.5128,-1.10099 4.6752,1.78546 5.7602,3.94089 2.4232,4.81355 -1.1,0.28766 -2,0.95408 -2,1.48093 0,0.88709 6.2237,3.91205 8.5,4.13127 0.6205,0.0598 0.987,-4.68848 0.9659,-12.5117 z m -8.7159,-0.99727 c -1.5125,-0.80127 -2.75,-1.71194 -2.75,-2.02371 0,-0.31177 1.4625,-1.93734 3.25,-3.61239 l 3.25,-3.04554 0.3141,4.28019 c 0.388,5.28613 -0.5259,6.27587 -4.0641,4.40145 z M 211.82849,693.2537 c 2.58613,0 8.37182,-6.05029 9.00299,-9.41473 0.65113,-3.4708 -1.39111,-9.64726 -4.22541,-12.77911 -3.89122,-4.29975 -13.93935,-2.65394 -18.39723,3.01334 -5.84215,7.42709 2.17713,21.78643 10.90445,19.52552 0.73248,-0.18976 1.95432,-0.34502 2.7152,-0.34502 z m -5.24463,-4.02111 c -3.91962,-1.56186 -6.80164,-10.18764 -4.53705,-13.57919 1.36129,-2.03871 5.40354,-3.57414 7.81567,-2.96873 2.66822,0.66968 6.41902,7.02375 6.41902,10.8742 0,4.18297 -5.44465,7.36842 -9.69764,5.67372 z m 31.69764,-8.57289 c 0,-0.7733 -0.62686,-1.406 -1.39301,-1.406 -1.42587,0 -2.60699,-2.06719 -2.60699,-4.56274 0,-1.92999 4.67305,-2.95349 6.51299,-1.42648 0.81785,0.67876 1.48701,2.52901 1.48701,4.11166 0,1.58266 0.14484,2.87756 0.32186,2.87756 0.17702,0 2.40018,-0.70815 4.94034,-1.57368 3.22474,-1.09877 4.45398,-2.00237 4.07336,-2.99425 -0.29982,-0.78132 -0.92103,-1.18826 -1.38047,-0.90431 -0.45944,0.28395 -2.43109,-0.88481 -4.38144,-2.59724 -2.97466,-2.61178 -3.37723,-3.42902 -2.49822,-5.07147 1.69956,-3.17565 0.70279,-7.14052 -2.2033,-8.76415 -2.40291,-1.3425 -3.36595,-1.22808 -11.25,1.33656 -8.50361,2.76619 -10.44138,4.28004 -6.72318,5.25237 2.5379,0.66367 7.47642,13.97241 6.55181,17.65635 l -0.65453,2.60786 4.60188,-1.56802 c 2.54367,-0.86672 4.60189,-2.19687 4.60189,-2.97402 z m -6.99922,-12.90396 c -1.61837,-4.25662 -1.20094,-5.24191 2.51623,-5.93925 4.26954,-0.80097 5.48299,-0.16497 5.48299,2.87378 0,2.55426 -1.33426,3.96128 -4.74922,5.00818 -1.8211,0.55828 -2.43972,0.1885 -3.25,-1.94271 z m 253.96517,10.26031 c 1.316,-2.35393 1.3366,-3.04829 0.1465,-4.95386 -1.241,-1.98718 -1.1633,-2.36277 0.7518,-3.63432 2.6597,-1.76599 2.8198,-6.2451 0.3047,-8.5213 -2.5655,-2.32169 -15.9815,-6.76514 -16.7367,-5.54325 -0.3324,0.53789 -0.1218,1.55951 0.4681,2.27027 1.443,1.73868 -3.4733,16.62011 -5.4907,16.62011 -0.7753,0 -1.4096,0.6375 -1.4096,1.41667 0,2.01159 10.5897,5.5118 15.9676,5.27776 3.728,-0.16224 4.7211,-0.6477 5.9983,-2.93208 z m -11.8225,-0.83295 c -1.9553,-0.78309 -2.2413,-1.41089 -1.6793,-3.68661 0.9855,-3.99031 2.0055,-4.60982 5.0953,-3.09448 4.1795,2.0498 5.3894,4.63553 2.9994,6.41026 -2.211,1.64182 -3.1119,1.6939 -6.4154,0.37083 z m 2.0678,-10.77768 c -1.6736,-1.06182 0.108,-6.15172 2.1532,-6.15172 2.4791,0 6.0222,3.55012 5.3337,5.34424 -0.674,1.7565 -5.2186,2.24664 -7.4869,0.80748 z m -16.8757,8.17943 c 0.3678,-0.36787 0.014,-1.39212 -0.7857,-2.27612 -0.8001,-0.88401 -1.737,-3.39552 -2.0821,-5.58115 -0.5541,-3.50938 -0.3551,-4.09077 1.7024,-4.97388 3.561,-1.52844 3.8268,-7.80065 0.4251,-10.02958 -3.586,-2.34962 -16.4413,-5.52844 -17.2256,-4.25948 -0.3442,0.55697 -0.037,1.37691 0.6838,1.8221 1.9935,1.23201 -1.7133,16.71454 -4.338,18.11925 -2.5785,1.37995 -1.1447,2.59688 4.0346,3.42433 3.5375,0.56516 4.25,0.4061 4.25,-0.94881 0,-0.8953 -0.4111,-1.62781 -0.9136,-1.62781 -1.2642,0 0.257,-5.28115 1.6556,-5.74734 1.6425,-0.54752 5.258,3.4044 5.258,5.74734 0,1.1 -0.45,2 -1,2 -0.55,0 -1,0.66213 -1,1.47141 0,1.96179 7.8337,4.3615 9.3355,2.85974 z m -11.0855,-14.99343 c -1.3382,-0.53995 -1.6328,-3.17682 -0.6431,-5.75593 1.1747,-3.06112 8.3931,-1.1231 8.3931,2.25339 0,3.3994 -3.7762,5.10601 -7.75,3.50254 z m -181.69287,13.54357 c 4.92019,-1.23892 5.6231,-2.48205 2.15008,-3.80249 -1.8392,-0.69926 -2.63301,-2.32637 -4.01282,-8.22525 -2.12023,-9.06426 -2.1275,-8.85355 0.30556,-8.85355 1.1,0 2,0.45 2,1 0,0.55 0.9,1 2,1 1.47328,0 2,-0.66667 2,-2.53138 0,-3.67932 -1.967,-3.92951 -11.36827,-1.44596 -10.54158,2.78479 -11.06604,3.11079 -10.24803,6.37001 0.77221,3.07671 3.5778,3.47054 4.32655,0.60733 0.28766,-1.1 1.35796,-2 2.37845,-2 1.38296,0 2.23377,1.33686 3.34121,5.25 2.82068,9.96692 2.89578,10.68779 1.1819,11.34547 -1.64667,0.63188 -1.27483,2.40453 0.50439,2.40453 0.54899,0 2.99743,-0.50342 5.44098,-1.11871 z m 24.08586,-5.49192 c 4.32133,-0.88584 7.99136,-1.73274 8.15563,-1.882 0.16427,-0.14925 0.003,-1.44947 -0.35841,-2.88937 -0.6931,-2.76155 -4.44026,-3.80346 -4.44026,-1.23463 0,1.37288 -2.89065,2.57676 -6.25,2.60298 -1.32485,0.0103 -1.75,-0.80907 -1.75,-3.37281 0,-3.24693 0.18539,-3.41425 4.5,-4.06127 2.475,-0.37115 4.5,-0.83544 4.5,-1.03176 0,-2.57772 -1.38531,-3.22134 -5.125,-2.38109 -2.20171,0.49469 -4.42428,0.63914 -4.93905,0.32099 -1.53148,-0.9465 -1.0624,-5.19791 0.64584,-5.85342 2.53918,-0.97438 5.21977,-0.70231 5.64485,0.57292 0.73563,2.20691 3.77336,-0.0374 3.77336,-2.78782 0,-2.60068 -0.12448,-2.65549 -4.75,-2.09153 -9.7942,1.19414 -15.16185,2.76557 -14.58463,4.26978 0.30173,0.78631 1.07288,1.42966 1.71366,1.42966 1.47749,0 4.97829,16.36489 3.60101,16.83333 -1.50736,0.51269 -1.16123,3.16667 0.413,3.16667 0.76617,0 4.92867,-0.72478 9.25,-1.61063 z m 141.35701,-0.80604 c 0,-0.77916 -0.3577,-1.56666 -0.7948,-1.75 -0.437,-0.18333 -1.7683,-5.00205 -2.9582,-10.70827 -1.19,-5.70622 -2.3852,-10.59649 -2.6559,-10.86727 -1.1414,-1.14133 -9.5912,-1.48302 -9.5912,-0.38784 0,0.62153 0.4501,1.13005 1,1.13005 0.55,0 1,0.40735 1,0.90523 0,1.56356 -8.9382,15.48071 -10.5058,16.35799 -2.5275,1.41445 -1.6745,2.53052 2.4691,3.23058 4.7618,0.8045 6.6745,-0.0204 4.9277,-2.12521 -2.0405,-2.4586 0.2905,-3.64816 5.2333,-2.67068 2.8824,0.57002 4.4722,1.44508 4.6912,2.58215 0.1999,1.03815 -0.2925,1.71994 -1.2421,1.71994 -2.7302,0 -1.7102,2.84642 1.1766,3.28375 5.6753,0.85973 7.2501,0.7076 7.2501,-0.70042 z m -13.2501,-10.27266 c -2.3198,-0.60624 -2.2294,-1.146 0.9761,-5.82854 l 2.726,-3.98213 0.6557,3 c 1.6011,7.3261 1.03,8.21865 -4.3578,6.81067 z m -99.99995,5.70029 c 2.63853,-1.60874 3.25,-2.6198 3.25,-5.37382 0,-4.2093 -1.63949,-5.61711 -8.28431,-7.11366 -4.53035,-1.02032 -5.21569,-1.49324 -5.21569,-3.59908 0,-1.94224 0.58682,-2.49118 2.95069,-2.76019 1.8649,-0.21222 3.38205,0.25414 4.12294,1.26737 1.42641,1.95073 4.42637,1.04352 4.42637,-1.33857 0,-2.61281 -2.07297,-4.09301 -5.73212,-4.09301 -7.28089,0 -12.76701,4.37531 -11.51057,9.17995 0.70247,2.68627 2.70716,3.91622 8.46818,5.19554 4.57899,1.01684 5.27451,1.48838 5.27451,3.57595 0,3.11405 -5.02147,4.7916 -7.5347,2.51716 -2.23334,-2.02115 -5.36159,-1.94371 -4.57229,0.11319 0.33385,0.86998 0.60699,2.21998 0.60699,3 0,2.26702 9.76016,1.86183 13.75,-0.57083 z m 44.18588,-4.57921 c -1.64808,-1.75431 -1.97741,-2.96617 -1.45385,-5.34991 0.37228,-1.69501 1.09113,-3.08184 1.59743,-3.08184 0.50629,0 0.92054,-0.675 0.92054,-1.5 0,-1.11111 -1.16667,-1.5 -4.5,-1.5 -3.33333,0 -4.5,0.38889 -4.5,1.5 0,0.825 0.45,1.5 1,1.5 0.55,0 1,0.675 1,1.5 0,2.33171 -1.38188,1.80235 -5.3466,-2.04814 -4.73917,-4.60262 -5.03675,-8.45186 -0.6534,-8.45186 2.28422,0 3,0.45485 3,1.90638 0,1.41405 0.51651,1.77131 2,1.38337 1.41665,-0.37046 2,-1.36402 2,-3.40638 0,-2.55387 -0.3714,-2.90148 -3.25,-3.04181 -4.96545,-0.24208 -7.03837,0.0534 -9.56188,1.36292 -1.88283,0.97707 -2.26177,1.89364 -2.04189,4.93892 0.18364,2.54348 -0.32954,4.40168 -1.60479,5.81081 -2.62762,2.90348 -2.43008,7.90779 0.40268,10.20162 2.59716,2.10306 9.56754,2.47943 13.41903,0.72457 1.95618,-0.8913 2.92048,-0.79514 4.7289,0.47152 1.70965,1.19749 2.606,1.31364 3.62311,0.46951 1.11339,-0.92403 0.97612,-1.52115 -0.77928,-3.38968 z m -17.39221,-0.77616 c -1.35438,-0.99034 -1.66306,-2.04378 -1.17208,-4 0.84706,-3.37492 1.34943,-3.33422 5.9825,0.48475 2.86147,2.35867 3.47824,3.35052 2.47785,3.98469 -1.98349,1.25737 -5.21101,1.04949 -7.28827,-0.46944 z m 55.873,3.83049 c 2.45477,-1.85748 2.55663,-7.30122 0.16927,-9.0469 -1.6435,-1.20175 -1.61908,-1.40604 0.41065,-3.43577 1.19831,-1.19831 1.9013,-2.82712 1.58073,-3.66252 -0.31753,-0.82745 -0.57732,-1.84543 -0.57732,-2.26216 0,-1.56585 -5.74574,-3.28618 -12.75,-3.81748 -6.28358,-0.47662 -7.25,-0.33074 -7.25,1.09441 0,0.90439 0.5167,1.64434 1.14822,1.64434 1.4743,0 0.39559,15.63982 -1.21234,17.57727 -2.0933,2.52227 0.13068,3.42293 8.37314,3.39093 5.56634,-0.0216 8.80514,-0.49653 10.10765,-1.48212 z m -12.41667,-4.95997 c 0,-4.12318 1.57627,-5.16735 5.71701,-3.78711 2.19584,0.73195 2.78299,1.54302 2.78299,3.84433 0,2.71647 -0.29171,2.93778 -4.25,3.22417 l -4.25,0.3075 z m 1,-10.52611 c 0,-2.99469 0.15146,-3.1082 3.75,-2.81037 3.25057,0.26904 3.75,0.64332 3.75,2.81037 0,2.16705 -0.49943,2.54133 -3.75,2.81037 -3.59854,0.29783 -3.75,0.18432 -3.75,-2.81037 z m -36.79064,54.82754 c -2.86515,-2.73316 -5.20936,-5.16247 -5.20936,-5.39846 0,-0.23599 1.3151,-0.42908 2.92245,-0.42908 2.44023,0 3.10869,-0.56431 4.05115,-3.42001 1.75391,-5.31438 3.42739,-6.15696 5.92421,-2.98277 1.15621,1.46987 2.10219,3.51181 2.10219,4.53764 0,1.40571 0.73897,1.86514 3,1.86514 1.65,0 3,0.39534 3,0.87853 0,0.48319 -2.38079,2.91249 -5.29064,5.39846 l -5.29064,4.51993 z"
       id="path2306-6" />
    <path
       style="fill:#ffffff;fill-opacity:1;stroke:none"
       d="m 171.01597,981.22417 c -4.61843,-1.15986 -11.14003,-4.37826 -15.50668,-7.65252 l -3.27221,-2.45361 -3.22779,1.97938 c -6.16705,3.78183 -14.41947,5.4723 -23.76016,4.86714 -6.95765,-0.45077 -12.49893,-1.83392 -29.033217,-7.24694 -21.10111,-6.90812 -31.44275,-8.71674 -40.31969,-7.05142 -4.03855,0.75764 -7.61472,3.97533 -7.61472,6.85143 0,1.52727 0.61639,1.8248 3.23481,1.56144 2.50766,-0.25223 3.31549,0.0919 3.59377,1.53085 0.5204,2.6909 -1.11076,3.84378 -5.4384,3.84378 -9.06686,0 -10.05911,-11.13181 -1.46848,-16.47456 3.20143,-1.99105 4.89481,-2.22544 16.0783,-2.22544 h 12.5 l 18,6.18176 c 9.899997,3.39996 20.823547,6.72319 24.274567,7.38494 8.85295,1.6976 18.04245,0.74678 24.81715,-2.56777 4.79396,-2.34547 5.48654,-3.03148 4.91131,-4.86473 -0.36832,-1.17381 -0.91474,-4.51892 -1.21427,-7.43358 -0.47111,-4.58416 -0.23389,-5.63012 1.75763,-7.75 3.01144,-3.20553 7.29121,-3.20393 10.49906,0.004 3.16679,3.16678 3.14047,6.95753 -0.0905,13.03412 l -2.54504,4.78655 2.14343,2.28157 c 2.83772,3.02062 10.89317,6.41267 16.92548,7.12711 11.94466,1.41467 22.16888,-10.14121 15.95825,-18.03675 -3.54923,-4.51211 -12.91422,-5.2263 -15.19069,-1.15848 -1.10369,1.97219 -4.64226,1.94629 -5.4043,-0.0396 -0.34218,-0.89171 0.37121,-2.57951 1.67844,-3.97098 8.5326,-9.08254 25.97948,-2.21469 25.97948,10.22662 0,4.9507 -4.53986,12.66832 -8.89044,15.11349 -4.49583,2.5268 -13.77793,3.55786 -19.37509,2.1522 z m -14.71613,-23.01475 c 1.08705,-2.62436 1.04599,-3.31996 -0.27383,-4.63978 -0.85392,-0.85392 -2.04577,-1.24779 -2.64855,-0.87525 -1.18354,0.73147 -1.47214,5.41543 -0.49118,7.97178 0.79709,2.07717 1.8492,1.31996 3.41356,-2.45675 z m 370.74071,22.68219 c -8.4707,-3.16099 -12.7623,-8.82966 -12.7553,-16.84807 0.011,-13.08777 16.7775,-19.45466 25.7812,-9.79035 1.1374,1.22094 1.828,2.84553 1.5346,3.6102 -0.7596,1.97938 -3.712,1.71915 -5.7244,-0.50455 -2.1825,-2.41169 -5.9263,-3.12861 -10.1899,-1.95136 -9.9634,2.75103 -7.9357,16.18681 3.0777,20.39285 7.4631,2.85018 18.6015,0.0962 24.8393,-6.14158 l 2.505,-2.50503 -2.4016,-4.20001 c -3.2928,-5.75866 -3.2133,-10.93526 0.2092,-13.62743 3.5384,-2.78326 6.9181,-2.61059 10.0417,0.51303 2.3198,2.3198 2.5245,3.11655 1.9912,7.75 -0.3269,2.84042 -0.8886,6.17766 -1.2482,7.41611 -0.5749,1.98028 0.037,2.56785 5.0742,4.87405 6.9767,3.19404 16.1423,4.0933 24.7317,2.4265 3.451,-0.66969 14.1496,-3.91974 23.7746,-7.22234 15.5086,-5.32144 18.6379,-6.06519 27.5,-6.53611 14.9966,-0.79689 22.0754,1.85985 24.4957,9.19342 0.8911,2.69985 0.8505,4.06382 -0.1855,6.23436 -1.124,2.35504 -2.0239,2.82383 -5.9057,3.07656 -3.1997,0.20831 -4.9669,-0.16837 -5.8646,-1.25 -1.9062,-2.29691 0.2042,-4.31271 3.9411,-3.76425 2.4731,0.36297 3.019,0.0924 3.019,-1.4961 0,-1.06655 -1.1535,-3.02282 -2.5633,-4.34726 -2.1342,-2.00495 -3.8223,-2.47165 -10.0842,-2.78786 -9.733,-0.4915 -16.0052,0.80532 -35.295,7.29756 -26.5123,8.92306 -37.8475,9.73227 -50.3196,3.59229 l -6.5988,-3.2486 -3.9013,3.13516 c -7.8532,6.31104 -21.9485,9.51885 -29.4788,6.70881 z m 33.634,-21.2197 c 0.9041,-2.35625 0.7336,-6.22191 -0.3028,-6.86244 -1.6065,-0.99286 -4.0902,0.59625 -4.0902,2.61696 0,2.36462 1.7399,5.82727 2.9281,5.82727 0.4719,0 1.131,-0.7118 1.4649,-1.58179 z M 345.7815,941.25625 54.781503,940.7537 v -2.5 -2.5 l 302.682087,-0.25163 302.68206,-0.25163 0.6905,2.17543 c 1.2232,3.85412 -1.7291,4.85613 -13.4958,4.58038 -5.8074,-0.1361 -141.5088,-0.4736 -301.55885,-0.75 z M 63.031503,928.67104 c -0.4125,-0.41287 -0.75,-1.05269 -0.75,-1.42182 0,-0.36913 11.1375,-0.63163 24.75,-0.58333 27.979407,0.0993 29.957957,-0.25827 36.914677,-6.67076 3.35956,-3.09673 4.78253,-5.4495 6.33414,-10.47304 1.10065,-3.56348 2.00118,-7.33166 2.00118,-8.37373 0,-1.04206 0.45,-1.89466 1,-1.89466 1.50943,0 1.21254,3.1038 -0.97037,10.14466 -2.33535,7.53253 -6.44083,12.83679 -12.85325,16.60633 l -4.67638,2.74901 -25.499997,0.334 c -14.025,0.1837 -25.8375,-0.004 -26.25,-0.41666 z M 232.5315,928.51119 c -11.61388,-0.55284 -8.36315,-1.95025 4.9215,-2.11563 6.69432,-0.0833 12.28263,-0.26266 12.41846,-0.39849 0.13584,-0.13584 -0.70537,-2.27116 -1.86934,-4.74517 -1.62256,-3.44872 -2.21286,-7.01305 -2.53008,-15.2771 -0.39721,-10.34771 0.43369,-22.43021 1.47115,-21.39274 0.27321,0.27321 0.57589,7.39859 0.67263,15.83419 0.16468,14.36051 0.34707,15.70342 2.86341,21.08297 3.81431,8.15442 4.05737,8.05945 -17.94773,7.01197 z m 59.75,0.0265 c -6.04039,-0.46731 -7.87127,-1.12753 -6.12306,-2.20799 0.89028,-0.55022 0.10381,-1.04468 -2.41246,-1.51674 -6.85544,-1.28608 -13.38707,-8.81471 -20.95814,-24.15718 -6.91482,-14.01263 -8.71393,-16.07473 -14.90057,-17.07868 l -3.60577,-0.58508 v 16.67068 c 0,14.55177 0.24772,17.15625 1.94898,20.491 l 1.94898,3.82032 -6.69898,0.63273 c -10.77778,1.01798 -20.19898,0.79176 -20.19898,-0.48502 0,-0.62258 1.0125,-2.76008 2.25,-4.75 2.19138,-3.52377 2.26493,-4.54293 2.82314,-39.11803 0.61099,-37.8441 0.20598,-44.39491 -3.02536,-48.93289 -1.12628,-1.58172 -2.04778,-3.14388 -2.04778,-3.47148 0,-0.3276 11.86842,-0.59563 26.37427,-0.59563 29.03631,0 31.09119,0.3231 39.84428,6.26494 6.91704,4.69547 8.07469,7.47228 7.61386,18.26295 -0.25919,6.06904 -0.98499,10.20006 -2.24312,12.76718 -2.22896,4.54801 -8.38935,9.00417 -15.77732,11.41263 l -5.40809,1.76302 2.21649,4.01464 c 1.21906,2.20805 3.86584,9.09979 5.88173,15.31498 3.97789,12.26426 7.88413,17.72691 13.47589,18.84526 2.45505,0.49101 2.88302,1.09971 3.2141,4.57143 0.31514,3.30459 0.0257,4.14295 -1.65508,4.79382 -1.81957,0.70463 -1.85531,0.86236 -0.3349,1.4776 2.82648,1.14376 3.79863,-0.34597 3.78322,-5.79747 l -0.0147,-5.19098 -5.16419,-2.5 c -6.0194,-2.91401 -8.38331,-6.78209 -14.66721,-24 l -3.83211,-10.5 5.29496,-1.81618 c 5.83804,-2.00246 12.19266,-7.62422 14.77905,-13.07463 0.8813,-1.8572 1.97944,-6.46652 2.44032,-10.24295 0.73739,-6.04215 0.93783,-6.51065 1.67005,-3.90348 1.15995,4.13017 -0.88905,13.02365 -4.26466,18.51031 -3.12116,5.07307 -11.17016,11.02693 -14.90727,11.02693 -1.87618,0 -2.32739,0.41226 -1.91535,1.75 0.29647,0.9625 1.50304,4.9 2.68127,8.75 1.17823,3.85 3.2005,9.09197 4.49393,11.64882 2.55215,5.04508 8.79629,10.85118 11.66983,10.85118 2.90514,0 4.11447,4.09807 3.12579,10.59232 -0.95449,6.26962 -0.85888,6.19583 -7.37507,5.69172 z m -23.59198,-65.45437 c 8.62657,-2.18943 12.27071,-10.09329 6.87224,-14.90536 -1.72313,-1.53596 -2.18118,-1.71951 -1.25,-0.5009 1.37726,1.8024 1.31244,1.87585 -1.03026,1.16744 -5.95692,-1.80131 -12.93352,-2.52889 -18.69281,-1.94944 l -6.19281,0.62306 -0.69397,7.95547 c -0.8796,10.08353 -2.026,8.60649 -1.59614,-2.05649 0.29581,-7.33796 0.51519,-8.08099 2.5,-8.46745 1.48432,-0.28901 1.14294,-0.46691 -1.07427,-0.55982 l -3.25,-0.13613 v 10.34784 10.34783 l 10.25,-0.43707 c 5.6375,-0.24038 12.00861,-0.8834 14.15802,-1.42893 z m 0.32115,-18.43384 c -0.33229,-0.33229 -1.1948,-0.36781 -1.91667,-0.0789 -0.79773,0.31922 -0.56078,0.55618 0.60417,0.60416 1.05416,0.0434 1.64479,-0.19293 1.3125,-0.52522 z m 41.02083,84.02156 c -0.4125,-0.41287 -0.75,-1.04977 -0.75,-1.41534 0,-0.36557 10.9125,-0.62807 24.25,-0.58333 17.27339,0.0579 25.48901,-0.29377 28.55667,-1.22248 8.40095,-2.5433 14.90168,-11.09925 16.6745,-21.94619 0.38205,-2.3375 1.14463,-4.25 1.69463,-4.25 1.3989,0 0.0659,7.48563 -2.30526,12.94495 -2.82691,6.50876 -6.33217,10.65415 -11.65443,13.78275 l -4.71611,2.7723 -25.5,0.334 c -14.025,0.1837 -25.8375,-0.004 -26.25,-0.41666 z m 157.50005,-0.11005 c -11.5271,-0.62788 -8.4099,-1.99947 4.9215,-2.16543 6.6943,-0.0833 12.3524,-0.33253 12.5737,-0.55376 0.2212,-0.22123 -0.3531,-1.86289 -1.2763,-3.64813 -0.9232,-1.78524 -2.0284,-5.31455 -2.4561,-7.84293 l -0.7776,-4.59704 -0.1176,4.28518 c -0.068,2.46663 0.5764,5.34445 1.5178,6.78121 0.8995,1.37282 1.4129,2.71864 1.1408,2.99073 -0.2721,0.27208 -6.4081,0.77755 -13.6355,1.12326 -9.7607,0.46688 -13.1407,0.32609 -13.1407,-0.54735 0,-0.64675 1.2375,-3.04544 2.75,-5.33041 l 2.75,-4.15451 v -39.73845 c 0,-39.64132 -0.01,-39.74589 -2.25,-42.78356 -1.2375,-1.67481 -2.25,-3.51334 -2.25,-4.08561 0,-1.76925 50.533,-1.37277 56.5684,0.44384 6.7004,2.01671 14.6189,8.18051 16.1251,12.55178 2.7842,8.08019 0.8431,21.14409 -3.9533,26.60695 -3.2761,3.73125 -10.1966,7.66867 -15.4902,8.81318 -1.7876,0.38647 -3.25,0.88104 -3.25,1.09905 0,0.218 0.9038,1.86975 2.0085,3.67054 1.1047,1.80079 3.5872,8.31103 5.5166,14.4672 3.9349,12.55485 6.6912,16.63045 13.1918,19.50597 4.0023,1.77039 4.2831,2.15375 4.2831,5.84779 0,2.8473 -0.4197,3.95321 -1.5,3.95321 -0.825,0 -1.5,0.41018 -1.5,0.91152 0,0.50133 0.7875,0.79593 1.75,0.65467 1.4376,-0.211 1.75,-1.29951 1.75,-6.09795 0,-5.73505 -0.058,-5.8562 -3.2086,-6.67251 -5.1072,-1.32342 -9.177,-7.23921 -14.0295,-20.39305 -2.4151,-6.54647 -4.6096,-12.57768 -4.8768,-13.40268 -0.3467,-1.07035 0.9665,-2.01509 4.5847,-3.29831 10.1502,-3.59981 17.0009,-13.01525 17.0204,-23.39267 0,-2.85504 0.5232,-5.50828 1.1506,-5.89609 0.8314,-0.51384 1.0097,1.3403 0.657,6.83528 -0.3697,5.76071 -1.1093,8.60759 -3.1338,12.06213 -3.3841,5.77449 -10.0394,11.48185 -14.3268,12.28617 -1.8355,0.34434 -3.3372,1.13738 -3.3372,1.76231 0,0.62493 1.3729,5.25734 3.051,10.29425 4.0942,12.28936 7.7975,17.71941 14.0371,20.58186 l 4.9119,2.25337 v 6.17406 c 0,9.05802 -0.163,9.26509 -6.8263,8.6746 -7.6674,-0.67947 -9.0832,-1.15014 -7.1457,-2.37544 1.1874,-0.75093 1.0748,-0.93385 -0.5823,-0.94621 -3.2649,-0.0243 -11.0791,-5.52965 -14.5021,-10.21721 -1.7263,-2.36396 -5.9816,-9.95292 -9.4563,-16.86437 -6.0246,-11.98352 -6.5007,-12.62117 -10.2685,-13.75 -7.3628,-2.20597 -7.227,-2.3782 -7.1486,9.06627 0.046,6.65773 0.3715,9.54907 0.9298,8.25 0.4726,-1.1 0.891,-5.4875 0.9297,-9.75 0.046,-5.08137 0.4618,-7.75 1.2073,-7.75 0.8159,0 0.9467,2.61176 0.463,9.25 -0.8093,11.10772 0.5929,22.52123 3.5623,28.99709 1.1973,2.6109 1.8582,5.06567 1.4688,5.45505 -0.8571,0.85717 -10.4988,1.14344 -20.3811,0.60515 z m 31.4792,-64.8248 c 7.2428,-0.68572 11.8694,-3.11693 13.8419,-7.27377 1.2548,-2.64424 1.3905,-3.99751 0.5793,-5.77796 -1.1256,-2.47025 -5.8433,-6.07124 -6.757,-5.15752 -0.2993,0.29928 0.3897,0.84056 1.5312,1.20284 1.1414,0.36228 2.0754,1.07837 2.0754,1.59131 0,1.17216 -2.6987,1.2293 -3.4137,0.0723 -0.8665,-1.40191 -8.7168,-2.0962 -16.4096,-1.45127 l -7.1767,0.60165 -0.015,6.10497 c -0.01,3.35773 -0.4516,6.77996 -0.9847,7.60496 -1.1952,1.84935 -1.296,-0.87463 -0.363,-9.80172 0.5376,-5.14365 0.9669,-6.15995 2.75,-6.51051 1.4157,-0.27833 1.0737,-0.46034 -1.0364,-0.55159 -3.0592,-0.13228 -3.1603,-2.8e-4 -3.5364,4.61382 -0.2129,2.6125 -0.2071,7.29612 0.013,10.40805 l 0.4,5.65804 6.6364,-0.41925 c 3.6501,-0.2306 8.9897,-0.64205 11.8658,-0.91435 z m 4.9999,-19.08666 c -0.3323,-0.33229 -1.1948,-0.36781 -1.9166,-0.0789 -0.7978,0.31922 -0.5608,0.55618 0.6041,0.60416 1.0542,0.0434 1.6448,-0.19293 1.3125,-0.52522 z M 141.2815,927.2537 c 0,-0.59736 3.92577,-1.0055 9.75,-1.01365 5.3625,-0.008 10.75175,-0.28219 11.97611,-0.61039 1.93806,-0.51951 2.07454,-0.87358 1.05477,-2.73634 -0.64423,-1.17679 -1.47716,-3.93962 -1.85094,-6.13962 -0.63077,-3.71254 -0.6886,-3.77111 -0.80477,-0.8151 -0.0688,1.7517 0.31369,4.3392 0.85008,5.75 l 0.97525,2.5651 h -12.97525 c -10.66931,0 -12.97525,-0.25775 -12.97525,-1.45031 0,-0.79767 0.60931,-1.81017 1.35402,-2.25 3.48153,-2.05622 10.07602,-21.17071 18.727,-54.28124 7.14744,-27.35596 7.98588,-33.05023 5.40826,-36.7303 -0.8309,-1.18627 -1.13125,-2.39139 -0.66744,-2.67804 0.46381,-0.28665 6.3216,-0.42869 13.01731,-0.31565 10.39947,0.17558 12.07797,0.42419 11.51505,1.70554 -1.81786,4.13798 -1.40808,8.82777 1.71038,19.57436 1.81775,6.26417 3.46962,11.22478 3.67082,11.02357 0.20121,-0.20121 -1.04488,-5.85827 -2.76909,-12.57124 -2.68559,-10.456 -2.96212,-12.6226 -1.92929,-15.11605 1.24573,-3.00746 4.70463,-4.28573 3.5657,-1.31774 -2.16635,5.64543 -1.65093,8.45265 7.05174,38.4071 9.70007,33.38745 17.05428,53.46589 20.32316,55.48617 0.56231,0.34753 1.02238,1.50531 1.02238,2.57285 0,1.82927 -0.80916,1.94098 -14.05902,1.94098 -9.11803,0 -13.84181,-0.35145 -13.44098,-1 0.35561,-0.57539 5.63619,-1 12.43643,-1 h 11.81839 l -3.8018,-7.75 c -2.091,-4.2625 -5.43616,-13.375 -7.43369,-20.25 -4.38553,-15.09385 -11.51324,-37.30905 -12.19158,-37.99795 -1.59255,-1.61734 15.14624,52.29461 18.14417,58.43837 1.3259,2.71724 2.17034,5.3294 1.87652,5.80481 -0.48102,0.77831 -24.29777,-0.0265 -25.24094,-0.85298 -0.21588,-0.18915 0.21805,-1.07959 0.96429,-1.97875 2.0217,-2.436 1.5566,-11.17075 -0.8873,-16.6635 l -2.11342,-4.75 h -9.95517 -9.95517 l -1.66221,5.00446 c -0.91422,2.75245 -1.43591,5.56495 -1.15931,6.25 0.27659,0.68505 0.55728,0.34554 0.62376,-0.75446 0.0665,-1.1 0.9343,-3.52679 1.9285,-5.39286 l 1.80764,-3.39285 h 8.35283 c 5.37573,0 8.4886,0.40733 8.73377,1.14285 0.2658,0.7974 -2.18891,1.14286 -8.12075,1.14286 h -8.5017 l -1.54539,6.75 c -1.47749,6.45342 -1.4567,6.92074 0.47319,10.63596 3.27206,6.29905 2.69772,6.61404 -12.05968,6.61404 -8.02092,0 -13.03138,-0.38449 -13.03138,-1 z m 39.50121,-40.75 c -0.39202,-0.9625 -1.42196,-3.775 -2.28876,-6.25 l -1.57601,-4.5 -1.70779,4 c -3.62391,8.48796 -3.62163,8.5 1.61095,8.5 4.05665,0 4.58018,-0.23127 3.96161,-1.75 z m -4.50121,-12.25 c 0,-0.55 -0.45,-1 -1,-1 -0.55,0 -1,0.45 -1,1 0,0.55 0.45,1 1,1 0.55,0 1,-0.45 1,-1 z m 213.57525,53.12175 c -0.94633,-1.53119 4.63984,-2.00127 14.4366,-1.21484 5.2185,0.41891 16.4631,0.49873 24.9882,0.17737 l 15.5,-0.58428 3.3595,-9.75 c 1.8477,-5.3625 3.7602,-9.75 4.25,-9.75 1.4767,0 1.0524,1.89798 -2.7206,12.16943 l -3.6111,9.83057 h -27.8299 c -15.30646,0 -28.07417,-0.39521 -28.3727,-0.87825 z m 154.0129,0.0208 c -0.9,-1.45615 1.0944,-2.37812 3.4956,-1.616 1.1362,0.36063 6.7382,0.33722 12.4488,-0.052 l 10.383,-0.70771 -2.4871,-4.90797 c -1.4053,-2.77338 -2.8848,-8.05051 -3.4017,-12.13343 l -0.9147,-7.22545 0.3062,7.5 c 0.1898,4.6486 0.997,8.92092 2.1232,11.23744 0.9993,2.0556 1.5733,3.9812 1.2753,4.27912 -0.2979,0.29792 -6.6848,0.41607 -14.1932,0.26256 l -13.6514,-0.27911 2.7639,-4 2.764,-4 0.293,-39.11072 c 0.2966,-39.5807 0.2444,-40.35805 -3.2653,-48.63928 -0.6847,-1.61538 0.2665,-1.75 12.3653,-1.75 7.2088,0 13.107,0.39504 13.107,0.87788 0,0.48283 -0.7406,2.62033 -1.6457,4.75 -1.3265,3.12088 -1.7857,9.30445 -2.3674,31.87212 -0.3969,15.4 -0.59,28.15374 -0.4293,28.34165 0.7453,0.87113 1.3923,-10.30165 1.8543,-32.02288 0.4042,-19.00193 0.8305,-24.43581 2.1575,-27.5 1.9531,-4.50987 3.1813,-2.7505 1.3631,1.95248 -1.7092,4.42096 -2.6061,72.51374 -1.0321,78.35908 0.6065,2.25242 2.2299,5.75625 3.6075,7.7863 1.8473,2.7221 2.2589,4.15053 1.5679,5.44155 -0.8093,1.51223 -2.77,1.78719 -14.4019,2.01967 -8.2359,0.1646 -13.7062,-0.12094 -14.0858,-0.73527 z m 35.9119,-0.14255 c 0.3476,-0.56254 5.1497,-1 10.9772,-1 12.5665,0 13.9439,-0.37537 12.2924,-3.34996 -0.6565,-1.18252 -1.5201,-4.40004 -1.919,-7.15004 -0.6501,-4.48176 -0.6919,-4.30038 -0.4031,1.75 l 0.3221,6.75 h -12.8848 c -7.0867,0 -12.8848,-0.27809 -12.8848,-0.61798 0,-0.3399 1.2563,-2.04888 2.7918,-3.79774 1.8799,-2.14108 4.468,-8.22723 7.9232,-18.63201 5.9161,-17.81528 17.285,-61.11389 17.285,-65.82997 0,-1.75597 -0.7268,-4.30183 -1.6151,-5.65748 -0.8882,-1.35565 -1.2257,-2.55443 -0.75,-2.66395 2.0912,-0.48139 25.3562,-0.24471 25.3604,0.258 0,0.30738 -0.656,1.43238 -1.4635,2.5 -2.4994,3.30451 -2.8856,1.6754 12.0746,50.94113 10.3839,34.19536 11.2217,36.64387 13.558,39.628 1.3169,1.68211 1.0082,0.33606 -1.0615,-4.628 -1.6052,-3.85 -3.6741,-9.7 -4.5975,-13 -0.9235,-3.3 -4.7576,-15.9 -8.5202,-28 -9.3522,-30.07474 -11.6732,-39.64522 -10.4524,-43.09986 0.5319,-1.50519 1.5511,-2.93062 2.2647,-3.16763 1.0005,-0.33223 1.1507,0.67952 0.6561,4.41829 -0.689,5.20769 0.1207,9.09036 6.2247,29.8492 12.6878,43.14925 17.1006,55.50695 21.4896,60.17873 1.1747,1.25041 1.8252,2.89667 1.49,3.77039 -0.4972,1.29544 -2.8238,1.55088 -14.1266,1.55088 -8.3542,0 -13.5313,-0.3826 -13.5313,-1 0,-0.61111 4.6666,-1 12,-1 6.8315,0 12,-0.40528 12,-0.94098 0,-1.48099 -1.7915,-2.2054 -2.5238,-1.02052 -0.4503,0.72853 -4.5503,0.85148 -12.8191,0.38439 -6.6865,-0.37769 -12.3338,-0.84148 -12.5496,-1.03064 -0.2159,-0.18915 0.1757,-1.02867 0.8703,-1.86559 1.7792,-2.14378 0.8891,-12.08321 -1.5247,-17.02666 l -1.9531,-4 h -9.9561 -9.956 l -1.2822,4.42848 c -1.6597,5.73258 -0.9447,6.48847 0.9007,0.9522 l 1.4148,-4.24432 h 8.8788 c 5.9409,0 9.0091,0.39105 9.2727,1.18182 0.2825,0.84762 -2.0224,1.18182 -8.1507,1.18182 h -8.5446 l -1.5387,5.1815 c -1.9713,6.63809 -1.9388,7.70658 0.3931,12.91504 1.0625,2.37322 1.711,4.67236 1.441,5.1092 -0.27,0.43684 -6.5659,0.79426 -13.9909,0.79426 -8.7453,0 -13.2823,-0.3522 -12.8819,-1 z m 39.4991,-40.25 c -4e-4,-0.6875 -0.862,-3.5 -1.9147,-6.25 -1.838,-4.80179 -1.9522,-4.90089 -2.8803,-2.5 -0.5316,1.375 -1.672,4.1875 -2.5343,6.25 l -1.5678,3.75 h 4.449 c 2.8929,0 4.4487,-0.43719 4.4481,-1.25 z m -4.7015,-13.4166 c -0.4685,-1.22113 -0.7337,-1.25232 -1.4215,-0.16725 -1.2639,1.99392 -1.0507,2.83806 0.5607,2.21971 0.7903,-0.30326 1.1777,-1.22687 0.8608,-2.05246 z M 66.531503,924.50863 c -5.0875,-0.18149 -9.25,-0.59748 -9.25,-0.92442 0,-0.32694 1.0125,-2.22256 2.25,-4.21248 2.22245,-3.57373 2.25359,-4.11203 2.54292,-43.96269 0.28577,-39.35876 0.24201,-40.43096 -1.79063,-43.87603 -1.14596,-1.94226 -1.93778,-3.67716 -1.7596,-3.85533 1.06113,-1.06113 32.91984,-1.48513 42.496627,-0.56558 12.20755,1.17216 15.09646,2.2302 19.94935,7.30628 3.87606,4.05434 4.98502,6.82891 5.87559,14.70057 0.37658,3.32847 1.15206,5.95794 1.7233,5.84326 1.28446,-0.25787 0.95979,9.51072 -0.43833,13.18803 -0.54255,1.42703 -2.08058,4.02906 -3.41784,5.7823 -3.07569,4.03243 -3.0534,4.35105 0.54549,7.79901 3.99523,3.82767 5.43394,8.51918 5.40421,17.62267 -0.0196,6.00153 -0.53565,8.63113 -2.45296,12.49931 -2.86384,5.77783 -10.41822,11.88802 -15.79786,12.77775 -3.56872,0.59023 -27.705847,0.5257 -45.880267,-0.12265 z M 107.12556,906.3454 c 2.98382,-1.60738 6.26851,-8.88691 5.47884,-12.14221 -0.9316,-3.84038 -5.10629,-7.63952 -9.65842,-8.78955 -5.018907,-1.26795 -20.508777,-2.23608 -21.045247,-1.31534 -0.21003,0.36047 -0.70311,5.9179 -1.09573,12.34984 l -0.71385,11.69444 5.34517,0.30556 c 7.76649,0.44398 18.979737,-0.64313 21.689237,-2.10274 z m -24.627887,-9.8417 0.28383,-10.75 7.5,0.0444 c 8.70764,0.0516 16.174967,1.88643 18.604927,4.57151 2.15984,2.38659 0.25699,2.49491 -3.2669,0.18596 -1.77485,-1.16292 -5.38804,-1.83178 -11.464817,-2.12232 l -8.87321,-0.42419 -0.009,4.37232 c -0.0136,6.85412 -1.18054,14.87232 -2.16442,14.87232 -0.492,0 -0.76682,-4.8375 -0.61071,-10.75 z m 38.291247,-20.238 c -0.33584,-0.5434 0.55166,-2.2309 1.97223,-3.75 2.65168,-2.83561 4.24184,-6.87385 3.14045,-7.97524 -0.34106,-0.34105 -0.6201,0.33925 -0.6201,1.51178 0,1.17253 -1.38484,3.70912 -3.07743,5.63687 -2.6004,2.96168 -3.21061,5.56459 -1.30454,5.56459 0.275,0 0.22523,-0.4446 -0.11061,-0.988 z m -17.12042,-8.96904 c 5.22726,-1.9874 7.49339,-13.05112 3.91425,-19.11013 -2.29504,-3.88519 -5.895,-4.93283 -16.950467,-4.93283 h -9.35078 v 12.5 12.5 h 9.9349 c 5.4642,0 11.067637,-0.43067 12.452097,-0.95704 z M 82.281503,855.7537 v -10.5 l 7.25,0.006 c 8.14494,0.006 13.914137,1.30142 16.263877,3.65116 2.42433,2.42433 0.96927,2.80041 -3.19303,0.82527 -2.06286,-0.97889 -6.746217,-1.99413 -10.407447,-2.25609 l -6.65679,-0.47629 -0.72163,9.62518 c -0.3969,5.29344 -1.12963,9.62477 -1.62831,9.62477 -0.49867,0 -0.90667,-4.725 -0.90667,-10.5 z m 44.692987,3.76903 c -0.25354,-0.97297 -0.47766,-0.41903 -0.49804,1.23097 -0.0204,1.65 0.18706,2.44606 0.46099,1.76903 0.27392,-0.67703 0.29059,-2.02703 0.037,-3 z m 186.55701,64.9859 c -7.29965,-0.2604 -9.25,-0.63834 -9.25,-1.79246 0,-0.80436 0.37777,-1.46247 0.83948,-1.46247 0.46172,0 1.47422,-1.2375 2.25,-2.75 1.12933,-2.20178 1.47088,-10.798 1.71333,-43.12101 l 0.3028,-40.37101 -2.49899,-3.77623 -2.49899,-3.77622 15.19619,-0.70444 c 17.15944,-0.79544 38.10293,0.61603 42.39432,2.85714 6.69821,3.49802 10.60123,10.06369 11.81811,19.88045 0.39125,3.15627 1.11015,5.49222 1.59756,5.19098 1.2939,-0.79967 1.08326,8.18053 -0.30019,12.79809 -0.65251,2.17788 -2.47005,5.33396 -4.03898,7.0135 l -2.85261,3.05373 3.10012,3.03093 c 4.54891,4.44741 5.97923,8.77238 5.96808,18.04621 -0.0157,13.07274 -5.30085,21.46804 -15.90003,25.25676 -3.47161,1.24094 -23.32198,1.50071 -47.8402,0.62605 z m 39.39292,-17.88977 c 6.6605,-3.16062 8.72065,-12.28869 3.90737,-17.31267 -3.42044,-3.57016 -7.94917,-4.81231 -19.0357,-5.22114 l -8.98541,-0.33135 -0.64628,3 c -0.35545,1.65 -0.69951,7.1625 -0.76459,12.25 l -0.11831,9.25 h 11.09887 c 8.20097,0 11.9984,-0.42686 14.54405,-1.63484 z m -23.42675,-10.11516 0.28383,-10.75 7.5,0.0444 c 8.70764,0.0516 16.17497,1.88643 18.60493,4.57151 2.18688,2.41647 0.72293,2.38747 -4.74573,-0.094 -3.01869,-1.36976 -6.55997,-1.98479 -11.51588,-2 l -7.15667,-0.022 -0.71224,9.5 c -0.39174,5.225 -1.12396,9.5 -1.62716,9.5 -0.51408,0 -0.79056,-4.70969 -0.63108,-10.75 z m 42.03383,-26.48132 c 0.9625,-1.48407 1.74012,-3.50165 1.72804,-4.4835 -0.0121,-0.98185 -0.84077,0.0148 -1.84152,2.21482 -1.00076,2.2 -2.56588,4.6176 -3.47804,5.37244 -0.91216,0.75485 -1.65848,1.76735 -1.65848,2.25 0,1.15391 3.03999,-1.94616 5.25,-5.35376 z m -20.863,-2.72572 c 3.43878,-1.30742 5.613,-5.94698 5.613,-11.97752 0,-4.14759 -0.51338,-5.60888 -2.91586,-8.29966 l -2.91586,-3.26578 -11.08414,-0.33848 -11.08414,-0.33847 v 12.58847 12.58848 h 9.9349 c 5.4642,0 11.06764,-0.43067 12.4521,-0.95704 z m -21.387,-11.54296 v -10.5 l 7.25,0.006 c 8.14494,0.006 13.91414,1.30142 16.26388,3.65116 2.42433,2.42433 0.96927,2.80041 -3.19303,0.82527 -2.06286,-0.97889 -6.73405,-1.99326 -10.38042,-2.25416 l -6.62975,-0.47436 -0.65534,6.26995 c -0.36044,3.44805 -0.65534,7.77851 -0.65534,9.62283 0,1.84432 -0.45,3.35331 -1,3.35331 -0.60317,0 -1,-4.16667 -1,-10.5 z m 44.70726,2.26166 c -0.23919,-1.24391 -0.44398,-0.46166 -0.45508,1.73834 -0.0111,2.2 0.18461,3.21775 0.4349,2.26166 0.25029,-0.95609 0.25937,-2.75609 0.0202,-4 z m 28.04274,66.48986 c -11.16659,-0.18726 -17.75,-0.67478 -17.75,-1.31443 0,-0.55922 0.95521,-2.88913 2.12268,-5.17757 2.98284,-5.84684 4.10811,-22.32508 3.70529,-54.25952 l -0.32797,-26 -2.75,-4.87595 c -1.5125,-2.68178 -2.75,-5.22954 -2.75,-5.66169 0,-0.43215 13.32417,-0.7346 29.60925,-0.67211 28.6923,0.1101 29.6491,0.17704 30.8963,2.16168 1.6419,2.61271 5.0601,17.31573 4.2208,18.15508 -1.2296,1.22958 -5.4943,-0.6116 -6.0132,-2.59607 -0.5017,-1.91846 -1.335,-2.01094 -18.1195,-2.01094 h -17.5937 v 14 14 h 3.0658 c 3.8017,0 6.9342,-1.59703 6.9342,-3.53518 0,-0.90897 0.9818,-1.46482 2.5872,-1.46482 h 2.5872 l -0.515,10.25 c -0.2832,5.6375 -0.5474,10.3625 -0.5871,10.5 -0.3454,1.19564 -4.8698,-0.19623 -5.8762,-1.80771 -0.9934,-1.59069 -2.1261,-1.98787 -4.9906,-1.75 l -3.7055,0.30771 -0.2797,12.12558 c -0.2743,11.88463 -0.2345,12.13772 2,12.73635 1.2538,0.33592 9.2975,0.61691 17.8748,0.62442 14.3347,0.0125 15.7413,-0.14798 17.405,-1.98635 1.9958,-2.20534 6.8546,-2.78246 6.3143,-0.75 -0.1827,0.6875 -1.6409,5.13373 -3.2405,9.88051 l -2.9083,8.63051 -5.0827,0.6108 c -2.7956,0.33594 -8.2328,0.51328 -12.0829,0.39409 -3.85,-0.11919 -14.9874,-0.35067 -24.74995,-0.51439 z m 6.24995,-29.07587 c 0,-10.48161 0.094,-10.96697 2.2328,-11.52627 1.228,-0.32113 2.6828,-0.13387 3.2328,0.41613 0.6666,0.66666 0.2557,1.19462 -1.2328,1.58387 -2.1089,0.55151 -2.2328,1.10088 -2.2328,9.90823 0,5.13755 -0.449,9.60186 -1,9.94239 -0.6433,0.39764 -1,-3.28407 -1,-10.32435 z m 10,-6.10923 c 0,-0.58653 0.8476,-1.06642 1.8834,-1.06642 2.4799,0 3.0864,-2.5895 3.103,-13.25 0.01,-5.15756 0.4242,-8.75 1.0136,-8.75 1.1271,0 1.2168,16.99216 0.1108,21 -0.4838,1.75336 -1.4993,2.5945 -3.4003,2.81642 -1.4908,0.17403 -2.7105,-0.16347 -2.7105,-0.75 z m -10,-33.56642 v -11.5 h 16.4649 c 15.4413,0 16.5313,0.12432 17.5352,2 0.6933,1.29558 2.0938,2 3.9761,2 1.5982,0 3.1839,0.45 3.5239,1 0.3769,0.60997 -1.1339,1 -3.8736,1 -3.6134,0 -4.6158,-0.39106 -5.1264,-2 -0.5975,-1.88237 -1.5131,-2 -15.5674,-2 h -14.9327 v 10.5 c 0,6.33333 -0.3968,10.5 -1,10.5 -0.6087,0 -1,-4.5 -1,-11.5 z M 344.7815,815.25626 54.781503,814.7537 v -2.5 -2.5 l 302.682087,-0.25163 302.68206,-0.25163 0.6905,2.17543 c 1.2468,3.92834 -1.6847,4.85464 -14.4958,4.58039 -6.3574,-0.1361 -142.0588,-0.4736 -301.55885,-0.75 z M 170.01597,797.16565 c -4.7316,-1.11475 -10.59298,-4.08057 -14.40694,-7.28981 l -2.93954,-2.47345 -6.40194,3.17565 c -5.4929,2.72473 -7.6895,3.22378 -15.4694,3.51454 -10.56434,0.39481 -17.90561,-1.17852 -38.340777,-8.21696 -15.80194,-5.44262 -24.15559,-7.05791 -32.87937,-6.35765 -7.15683,0.57448 -11.62153,3.47326 -11.08809,7.19911 0.2367,1.65321 0.90343,1.97537 3.54159,1.71125 2.71099,-0.2714 3.25,0.013 3.25,1.71482 0,2.78191 -3.46421,4.43365 -7.65131,3.64814 -9.01908,-1.69199 -5.65075,-15.44684 4.47838,-18.28788 1.47011,-0.41234 7.39793,-0.71042 13.17293,-0.66241 10.2776,0.0855 10.92362,0.23294 30.5,6.96308 l 19.999997,6.87577 11.5,0.0369 c 10.55605,0.0339 11.91041,-0.18071 16.5,-2.61443 5.34169,-2.83254 5.14496,-2.26373 3.84196,-11.10839 -0.76068,-5.16342 0.23616,-8.41773 3.16663,-10.33785 4.57389,-2.99692 11.49141,0.87263 11.49141,6.42811 0,1.55679 -1.11406,5.03108 -2.4757,7.72065 l -2.47569,4.89013 2.66002,2.77647 c 1.46302,1.52705 5.06896,3.67776 8.01321,4.77935 10.21818,3.82311 19.29652,1.93528 24.02816,-4.99661 3.12437,-4.57724 2.90584,-8.49852 -0.67308,-12.07743 -3.87393,-3.87394 -9.58978,-4.0453 -13.90202,-0.41679 -2.824,2.37623 -6.1749,2.55042 -6.1749,0.32098 0,-6.86812 13.74962,-10.48196 21.10212,-5.54631 7.62829,5.12079 8.83218,14.36828 2.93107,22.51453 -4.53726,6.2635 -14.47574,8.66632 -25.29872,6.11646 z m -13.70084,-22.50041 c 1.17478,-3.08991 0.25643,-5.41154 -2.14062,-5.41154 -1.42489,0 -1.89301,0.72164 -1.89301,2.91821 0,6.12589 2.14778,7.45351 4.03363,2.49333 z m 368.35032,21.73822 c -5.8094,-2.72679 -9.5698,-8.02906 -10.1772,-14.34972 -0.9225,-9.60066 5.2644,-15.80004 15.7681,-15.80004 4.3707,0 5.5599,0.46581 8.7898,3.44287 3.5052,3.23075 3.6317,3.5478 2.0534,5.14619 -1.5829,1.60306 -1.867,1.54756 -4.8267,-0.94287 -6.68,-5.62089 -16.9913,-1.73222 -16.9913,6.40791 0,4.80636 4.4056,10.26463 9.6939,12.00989 7.1657,2.36491 20.5282,-1.22027 25.6422,-6.87985 1.7863,-1.97686 1.7765,-2.11274 -0.3611,-5.00401 -5.3937,-7.29543 -2.924,-16.58013 4.4104,-16.58013 6.5908,0 7.9777,3.76858 6.4033,17.4 -0.2436,2.10919 0.4929,2.89081 4.7113,5 4.5036,2.25183 6.1416,2.49195 16.5,2.41896 11.4864,-0.081 11.5235,-0.089 31.4166,-6.85357 17.6637,-6.00641 21.0008,-6.82927 29.5,-7.27413 15.2018,-0.79569 23.1292,3.34158 23.3803,12.20209 0.1423,5.02046 -3.2142,7.94404 -8.1929,7.1361 -5.9129,-0.95952 -6.8048,-5.12945 -1.0972,-5.12945 1.8264,0 3.5144,-0.57692 3.751,-1.28204 0.7748,-2.30901 -2.6623,-6.09744 -6.4984,-7.16277 -9.1238,-2.53376 -18.9874,-0.8744 -43.2594,7.27759 -24.6253,8.27059 -35.4571,8.91753 -48.3434,2.88733 l -6.6511,-3.11244 -3.247,2.9657 c -7.3278,6.69286 -24.2818,9.87494 -32.3746,6.07634 z m 36.1699,-21.58482 c 0.7193,-3.83447 0.053,-5.56494 -2.1442,-5.56494 -2.185,0 -2.8006,2.64193 -1.4022,6.01796 1.6216,3.91487 2.7541,3.77019 3.5464,-0.45307 z m -361.3734,-21.81494 0.31955,-2.25 h 158 158.00005 l 0.3195,2.25 0.3196,2.25 H 357.7815 199.1424 Z m 100.26826,-14.37953 c -2.56177,-2.74477 -2.65711,-3.22998 -2.17707,-11.08027 l 0.50202,-8.20979 -3.57288,-1.17916 c -1.96508,-0.64854 -6.26517,-1.14098 -9.55574,-1.09433 -6.65064,0.0943 -15.19276,3.6588 -22.2409,9.2808 -7.20046,5.74351 -13.26254,8.20121 -21.43949,8.69206 -6.9878,0.41947 -7.75956,0.26367 -10.62108,-2.14414 -7.29435,-6.13779 -3.4673,-18.0006 4.7139,-14.61183 5.02982,2.08341 4.71588,7.93107 -0.42991,8.00799 -2.08583,0.0312 -2.08948,0.0606 -0.18643,1.5 2.27156,1.71813 8.24509,1.9182 12.21435,0.40909 1.53212,-0.58251 5.27391,-3.12276 8.3151,-5.645 8.74895,-7.25604 16.55962,-10.46581 26.85557,-11.0362 7.1222,-0.39457 9.80889,-0.0954 15.01884,1.67252 l 6.34499,2.15304 4.23875,-3.47333 c 17.39174,-14.25123 39.18743,-15.17081 47.53656,-2.0056 2.46209,3.88231 2.94976,4.23669 3.4896,2.5358 1.91217,-6.02472 9.4134,-10.9634 17.99769,-11.84938 8.86618,-0.91507 22.64142,4.18363 30.51077,11.29312 l 3.8916,3.51578 7.1585,-2.17433 c 13.5659,-4.12054 28.6897,-1.17825 39.5932,7.70276 2.9834,2.42997 6.8798,5.30561 8.6588,6.39029 3.8668,2.35765 11.4918,2.63048 14.2934,0.51144 1.9031,-1.43939 1.8994,-1.46882 -0.1864,-1.5 -3.2197,-0.0481 -4.8984,-2.582 -3.5994,-5.43293 1.4199,-3.11653 5.7331,-4.15246 8.8328,-2.12145 1.9454,1.27464 2.3942,2.42229 2.3942,6.12256 0,6.03512 -3.9633,10.34336 -9.6731,10.51517 -9.2347,0.27788 -15.3616,-1.85043 -25.6895,-8.92382 -12.4197,-8.50601 -20.667,-10.84547 -30.6761,-8.70174 -4.9837,1.06741 -6.0391,2.1757 -4.9071,5.15297 0.5201,1.3682 0.9457,4.74296 0.9457,7.49946 0,4.25004 -0.462,5.47391 -3.04,8.05189 -2.5443,2.54424 -3.5636,2.93895 -6.25,2.42007 -1.7655,-0.341 -4.0438,-1.62573 -5.06293,-2.85495 -2.56631,-3.09532 -1.91684,-12.167 1.18273,-16.51992 l 2.2288,-3.1301 -5.32484,-4.02031 c -11.55388,-8.72326 -22.46436,-10.86911 -31.79699,-6.25376 -6.54156,3.23505 -8.43672,6.37809 -8.43672,13.9919 0,6.02897 0.17586,6.488 3.73531,9.75 3.07049,2.81389 4.51915,3.42316 8.13922,3.42316 5.53619,0 8.49502,-2.30532 9.28405,-7.23348 0.75698,-4.72804 -1.04986,-9.16814 -4.34108,-10.66772 -5.34428,-2.43502 -9.40473,1.90533 -4.87163,5.20746 1.40477,1.0233 2.55413,2.48219 2.55413,3.24196 0,2.23526 -3.51302,3.58743 -6.43453,2.47667 -2.31277,-0.87931 -2.56547,-1.50241 -2.56547,-6.32583 0,-4.28879 0.45599,-5.77881 2.29807,-7.50936 5.25325,-4.93517 13.88485,-3.22337 17.03277,3.3779 2.09253,4.38807 2.14859,11.60461 0.12061,15.52628 -4.81582,9.31278 -19.66019,9.30566 -26.54957,-0.0127 l -2.2464,-3.03841 -2.26668,3.33571 c -3.31321,4.87584 -8.35269,6.93688 -15.66771,6.40776 -5.38917,-0.38982 -6.35798,-0.81349 -9.36601,-4.09582 -3.04581,-3.32357 -3.35508,-4.22766 -3.35508,-9.8077 0,-10.15318 5.74399,-16.16922 13.64931,-14.2958 4.98765,1.18198 7.3526,4.19238 7.33538,9.33739 -0.008,2.51663 -0.34592,5.05851 -0.75,5.64863 -1.23668,1.80605 -4.27635,2.47513 -6.30713,1.38829 -2.71901,-1.45517 -2.39321,-4.65338 0.6357,-6.24038 2.54714,-1.33458 2.55134,-1.35775 0.66872,-3.68269 -3.93477,-4.85924 -10.23198,0.34738 -10.23198,8.45993 0,10.63256 16.32058,11.65571 20.47078,1.28332 2.63672,-6.5898 1.32171,-12.97638 -3.5919,-17.44471 -3.59188,-3.26637 -12.05698,-5.68704 -17.19382,-4.91672 -8.68073,1.30175 -26.15864,12.13324 -23.07459,14.29988 2.22718,1.56467 4.38953,7.2887 4.38953,11.6197 0,5.55813 -2.29193,8.52788 -7.1861,9.31133 -3.16786,0.5071 -4.06276,0.18649 -6.36519,-2.28042 z m 8.36993,-7.19943 c 0.18541,-1.92762 -0.39434,-4.40072 -1.38665,-5.91518 -1.63045,-2.48838 -1.76511,-2.52077 -3.06864,-0.7381 -0.74984,1.02548 -1.36335,3.26349 -1.36335,4.97337 0,6.05931 5.25154,7.57549 5.81864,1.67991 z m 103.98131,2.62896 c 2.2193,-2.21922 0.8475,-10.8 -1.7266,-10.8 -0.4709,0 -1.5847,1.82082 -2.4752,4.04627 -2.3241,5.80853 0.5413,10.41423 4.2018,6.75373 z m -258.1127,-8.96974 c -8.18892,-2.27367 -13.33976,-11.40626 -11.46642,-20.33026 1.46421,-6.97501 5.51517,-11.4705 15.81325,-17.54852 47.88517,-28.26227 96.96199,-45.15274 152.96592,-52.64535 19.51218,-2.61048 73.73219,-2.59162 92.99995,0.0324 54.2825,7.39242 100.3499,22.90025 148.4202,49.96315 15.4325,8.68829 20.5799,14.59891 20.5799,23.63161 0,11.26738 -9.9045,19.39556 -21.3627,17.53135 -2.3645,-0.38471 -10.9932,-4.47976 -20.1373,-9.55693 -45.1968,-25.09489 -88.511,-39.04687 -140.00005,-45.09554 -15.03922,-1.76673 -56.27517,-1.4548 -72.5,0.54843 -49.52478,6.11466 -94.1425,20.96849 -138.34455,46.05675 -14.17434,8.04509 -19.45932,9.49781 -26.9682,7.41295 z m 10.71659,-15.13629 c 2.81353,-2.0573 1.7448,-6.11959 -1.71431,-6.51623 -1.54576,-0.17724 -3.45826,0.21536 -4.25,0.87245 -1.48096,1.22908 -1.95698,5.09903 -0.77286,6.28314 1.10541,1.10542 4.83511,0.75147 6.73717,-0.63936 z m 386.44281,-4.44397 c 1.2269,-2.34132 -0.2355,-5.92127 -2.7441,-6.71746 -2.5643,-0.81386 -6.1025,1.02638 -6.1025,3.1739 0,4.36614 6.9556,7.15225 8.8466,3.54356 z m -361.2433,-1.30003 c 5.83675,-2.82552 6.74196,-4.09798 5.24793,-7.37704 -1.49547,-3.2822 -4.35128,-3.01291 -4.35128,0.41031 0,2.95427 -3.66831,5.15336 -7.96808,4.77674 -2.10047,-0.18399 -3.63511,-1.25322 -5.25,-3.65786 -3.20918,-4.77862 -2.96252,-8.35164 0.79481,-11.51323 3.52602,-2.96695 4.74908,-3.20641 5.56164,-1.08889 0.65123,1.69706 1.29575,1.82831 3.1628,0.64405 1.03978,-0.65954 1.05776,-1.35956 0.0895,-3.48469 -1.48299,-3.25481 -3.17275,-3.32733 -8.69587,-0.37318 -7.40345,3.95988 -9.98057,10.3598 -6.71476,16.67518 3.59643,6.95473 10.26823,8.7912 18.12333,4.98861 z m 343.5679,-1.60496 c 2.8386,-2.56886 2.2456,-6.49803 -1.6712,-11.07398 -3.7008,-4.32347 -4.3786,-6.71992 -2.1433,-7.57768 2.0621,-0.79132 6.1423,1.63914 6.1508,3.66394 0.012,2.85654 3.182,4.09138 4.4449,1.73154 1.624,-3.03439 1.3416,-3.62848 -3.1318,-6.58883 -5.1744,-3.42423 -11.3217,-3.9029 -13.4119,-1.04433 -2.3361,3.19478 -1.6167,6.08888 2.5913,10.42489 4.1887,4.31621 5.0004,6.79829 2.5329,7.74515 -2.7184,1.04317 -7.031,-1.1246 -7.0579,-3.54774 -0.014,-1.23564 -0.8008,-2.68079 -1.7491,-3.21145 -1.367,-0.76502 -1.9642,-0.43777 -2.8837,1.58026 -0.9593,2.10564 -0.8603,2.87581 0.5738,4.46043 4.2555,4.70236 12.3953,6.47846 15.7552,3.4378 z m -22.7053,-19.95476 c -0.037,-13.85297 0.088,-13.58366 -7.3624,-15.87947 -2.1512,-0.66294 -2.3331,-0.49667 -1.7776,1.62537 0.5087,1.94364 -0.4823,3.47488 -5.5747,8.61385 -3.4064,3.4375 -6.7424,6.25 -7.4133,6.25 -2.8955,0 -2.1175,2.06528 1.3189,3.50108 4.3263,1.80766 7.2584,1.30668 5.4072,-0.92389 -1.9913,-2.3994 0.7036,-2.93762 5.5128,-1.10099 4.6752,1.78546 5.7602,3.94089 2.4232,4.81355 -1.1,0.28766 -2,0.95408 -2,1.48093 0,0.88709 6.2237,3.91205 8.5,4.13127 0.6205,0.0598 0.987,-4.68848 0.9659,-12.5117 z m -8.7159,-0.99727 c -1.5125,-0.80127 -2.75,-1.71194 -2.75,-2.02371 0,-0.31177 1.4625,-1.93734 3.25,-3.61239 l 3.25,-3.04554 0.3141,4.28019 c 0.388,5.28613 -0.5259,6.27587 -4.0641,4.40145 z M 211.82849,693.2537 c 2.58613,0 8.37182,-6.05029 9.00299,-9.41473 0.65113,-3.4708 -1.39111,-9.64726 -4.22541,-12.77911 -3.89122,-4.29975 -13.93935,-2.65394 -18.39723,3.01334 -5.84215,7.42709 2.17713,21.78643 10.90445,19.52552 0.73248,-0.18976 1.95432,-0.34502 2.7152,-0.34502 z m -5.24463,-4.02111 c -3.91962,-1.56186 -6.80164,-10.18764 -4.53705,-13.57919 1.36129,-2.03871 5.40354,-3.57414 7.81567,-2.96873 2.66822,0.66968 6.41902,7.02375 6.41902,10.8742 0,4.18297 -5.44465,7.36842 -9.69764,5.67372 z m 31.69764,-8.57289 c 0,-0.7733 -0.62686,-1.406 -1.39301,-1.406 -1.42587,0 -2.60699,-2.06719 -2.60699,-4.56274 0,-1.92999 4.67305,-2.95349 6.51299,-1.42648 0.81785,0.67876 1.48701,2.52901 1.48701,4.11166 0,1.58266 0.14484,2.87756 0.32186,2.87756 0.17702,0 2.40018,-0.70815 4.94034,-1.57368 3.22474,-1.09877 4.45398,-2.00237 4.07336,-2.99425 -0.29982,-0.78132 -0.92103,-1.18826 -1.38047,-0.90431 -0.45944,0.28395 -2.43109,-0.88481 -4.38144,-2.59724 -2.97466,-2.61178 -3.37723,-3.42902 -2.49822,-5.07147 1.69956,-3.17565 0.70279,-7.14052 -2.2033,-8.76415 -2.40291,-1.3425 -3.36595,-1.22808 -11.25,1.33656 -8.50361,2.76619 -10.44138,4.28004 -6.72318,5.25237 2.5379,0.66367 7.47642,13.97241 6.55181,17.65635 l -0.65453,2.60786 4.60188,-1.56802 c 2.54367,-0.86672 4.60189,-2.19687 4.60189,-2.97402 z m -6.99922,-12.90396 c -1.61837,-4.25662 -1.20094,-5.24191 2.51623,-5.93925 4.26954,-0.80097 5.48299,-0.16497 5.48299,2.87378 0,2.55426 -1.33426,3.96128 -4.74922,5.00818 -1.8211,0.55828 -2.43972,0.1885 -3.25,-1.94271 z m 253.96517,10.26031 c 1.316,-2.35393 1.3366,-3.04829 0.1465,-4.95386 -1.241,-1.98718 -1.1633,-2.36277 0.7518,-3.63432 2.6597,-1.76599 2.8198,-6.2451 0.3047,-8.5213 -2.5655,-2.32169 -15.9815,-6.76514 -16.7367,-5.54325 -0.3324,0.53789 -0.1218,1.55951 0.4681,2.27027 1.443,1.73868 -3.4733,16.62011 -5.4907,16.62011 -0.7753,0 -1.4096,0.6375 -1.4096,1.41667 0,2.01159 10.5897,5.5118 15.9676,5.27776 3.728,-0.16224 4.7211,-0.6477 5.9983,-2.93208 z m -11.8225,-0.83295 c -1.9553,-0.78309 -2.2413,-1.41089 -1.6793,-3.68661 0.9855,-3.99031 2.0055,-4.60982 5.0953,-3.09448 4.1795,2.0498 5.3894,4.63553 2.9994,6.41026 -2.211,1.64182 -3.1119,1.6939 -6.4154,0.37083 z m 2.0678,-10.77768 c -1.6736,-1.06182 0.108,-6.15172 2.1532,-6.15172 2.4791,0 6.0222,3.55012 5.3337,5.34424 -0.674,1.7565 -5.2186,2.24664 -7.4869,0.80748 z m -16.8757,8.17943 c 0.3678,-0.36787 0.014,-1.39212 -0.7857,-2.27612 -0.8001,-0.88401 -1.737,-3.39552 -2.0821,-5.58115 -0.5541,-3.50938 -0.3551,-4.09077 1.7024,-4.97388 3.561,-1.52844 3.8268,-7.80065 0.4251,-10.02958 -3.586,-2.34962 -16.4413,-5.52844 -17.2256,-4.25948 -0.3442,0.55697 -0.037,1.37691 0.6838,1.8221 1.9935,1.23201 -1.7133,16.71454 -4.338,18.11925 -2.5785,1.37995 -1.1447,2.59688 4.0346,3.42433 3.5375,0.56516 4.25,0.4061 4.25,-0.94881 0,-0.8953 -0.4111,-1.62781 -0.9136,-1.62781 -1.2642,0 0.257,-5.28115 1.6556,-5.74734 1.6425,-0.54752 5.258,3.4044 5.258,5.74734 0,1.1 -0.45,2 -1,2 -0.55,0 -1,0.66213 -1,1.47141 0,1.96179 7.8337,4.3615 9.3355,2.85974 z m -11.0855,-14.99343 c -1.3382,-0.53995 -1.6328,-3.17682 -0.6431,-5.75593 1.1747,-3.06112 8.3931,-1.1231 8.3931,2.25339 0,3.3994 -3.7762,5.10601 -7.75,3.50254 z m -181.69287,13.54357 c 4.92019,-1.23892 5.6231,-2.48205 2.15008,-3.80249 -1.8392,-0.69926 -2.63301,-2.32637 -4.01282,-8.22525 -2.12023,-9.06426 -2.1275,-8.85355 0.30556,-8.85355 1.1,0 2,0.45 2,1 0,0.55 0.9,1 2,1 1.47328,0 2,-0.66667 2,-2.53138 0,-3.67932 -1.967,-3.92951 -11.36827,-1.44596 -10.54158,2.78479 -11.06604,3.11079 -10.24803,6.37001 0.77221,3.07671 3.5778,3.47054 4.32655,0.60733 0.28766,-1.1 1.35796,-2 2.37845,-2 1.38296,0 2.23377,1.33686 3.34121,5.25 2.82068,9.96692 2.89578,10.68779 1.1819,11.34547 -1.64667,0.63188 -1.27483,2.40453 0.50439,2.40453 0.54899,0 2.99743,-0.50342 5.44098,-1.11871 z m 24.08586,-5.49192 c 4.32133,-0.88584 7.99136,-1.73274 8.15563,-1.882 0.16427,-0.14925 0.003,-1.44947 -0.35841,-2.88937 -0.6931,-2.76155 -4.44026,-3.80346 -4.44026,-1.23463 0,1.37288 -2.89065,2.57676 -6.25,2.60298 -1.32485,0.0103 -1.75,-0.80907 -1.75,-3.37281 0,-3.24693 0.18539,-3.41425 4.5,-4.06127 2.475,-0.37115 4.5,-0.83544 4.5,-1.03176 0,-2.57772 -1.38531,-3.22134 -5.125,-2.38109 -2.20171,0.49469 -4.42428,0.63914 -4.93905,0.32099 -1.53148,-0.9465 -1.0624,-5.19791 0.64584,-5.85342 2.53918,-0.97438 5.21977,-0.70231 5.64485,0.57292 0.73563,2.20691 3.77336,-0.0374 3.77336,-2.78782 0,-2.60068 -0.12448,-2.65549 -4.75,-2.09153 -9.7942,1.19414 -15.16185,2.76557 -14.58463,4.26978 0.30173,0.78631 1.07288,1.42966 1.71366,1.42966 1.47749,0 4.97829,16.36489 3.60101,16.83333 -1.50736,0.51269 -1.16123,3.16667 0.413,3.16667 0.76617,0 4.92867,-0.72478 9.25,-1.61063 z m 141.35701,-0.80604 c 0,-0.77916 -0.3577,-1.56666 -0.7948,-1.75 -0.437,-0.18333 -1.7683,-5.00205 -2.9582,-10.70827 -1.19,-5.70622 -2.3852,-10.59649 -2.6559,-10.86727 -1.1414,-1.14133 -9.5912,-1.48302 -9.5912,-0.38784 0,0.62153 0.4501,1.13005 1,1.13005 0.55,0 1,0.40735 1,0.90523 0,1.56356 -8.9382,15.48071 -10.5058,16.35799 -2.5275,1.41445 -1.6745,2.53052 2.4691,3.23058 4.7618,0.8045 6.6745,-0.0204 4.9277,-2.12521 -2.0405,-2.4586 0.2905,-3.64816 5.2333,-2.67068 2.8824,0.57002 4.4722,1.44508 4.6912,2.58215 0.1999,1.03815 -0.2925,1.71994 -1.2421,1.71994 -2.7302,0 -1.7102,2.84642 1.1766,3.28375 5.6753,0.85973 7.2501,0.7076 7.2501,-0.70042 z m -13.2501,-10.27266 c -2.3198,-0.60624 -2.2294,-1.146 0.9761,-5.82854 l 2.726,-3.98213 0.6557,3 c 1.6011,7.3261 1.03,8.21865 -4.3578,6.81067 z m -99.99995,5.70029 c 2.63853,-1.60874 3.25,-2.6198 3.25,-5.37382 0,-4.2093 -1.63949,-5.61711 -8.28431,-7.11366 -4.53035,-1.02032 -5.21569,-1.49324 -5.21569,-3.59908 0,-1.94224 0.58682,-2.49118 2.95069,-2.76019 1.8649,-0.21222 3.38205,0.25414 4.12294,1.26737 1.42641,1.95073 4.42637,1.04352 4.42637,-1.33857 0,-2.61281 -2.07297,-4.09301 -5.73212,-4.09301 -7.28089,0 -12.76701,4.37531 -11.51057,9.17995 0.70247,2.68627 2.70716,3.91622 8.46818,5.19554 4.57899,1.01684 5.27451,1.48838 5.27451,3.57595 0,3.11405 -5.02147,4.7916 -7.5347,2.51716 -2.23334,-2.02115 -5.36159,-1.94371 -4.57229,0.11319 0.33385,0.86998 0.60699,2.21998 0.60699,3 0,2.26702 9.76016,1.86183 13.75,-0.57083 z m 44.18588,-4.57921 c -1.64808,-1.75431 -1.97741,-2.96617 -1.45385,-5.34991 0.37228,-1.69501 1.09113,-3.08184 1.59743,-3.08184 0.50629,0 0.92054,-0.675 0.92054,-1.5 0,-1.11111 -1.16667,-1.5 -4.5,-1.5 -3.33333,0 -4.5,0.38889 -4.5,1.5 0,0.825 0.45,1.5 1,1.5 0.55,0 1,0.675 1,1.5 0,2.33171 -1.38188,1.80235 -5.3466,-2.04814 -4.73917,-4.60262 -5.03675,-8.45186 -0.6534,-8.45186 2.28422,0 3,0.45485 3,1.90638 0,1.41405 0.51651,1.77131 2,1.38337 1.41665,-0.37046 2,-1.36402 2,-3.40638 0,-2.55387 -0.3714,-2.90148 -3.25,-3.04181 -4.96545,-0.24208 -7.03837,0.0534 -9.56188,1.36292 -1.88283,0.97707 -2.26177,1.89364 -2.04189,4.93892 0.18364,2.54348 -0.32954,4.40168 -1.60479,5.81081 -2.62762,2.90348 -2.43008,7.90779 0.40268,10.20162 2.59716,2.10306 9.56754,2.47943 13.41903,0.72457 1.95618,-0.8913 2.92048,-0.79514 4.7289,0.47152 1.70965,1.19749 2.606,1.31364 3.62311,0.46951 1.11339,-0.92403 0.97612,-1.52115 -0.77928,-3.38968 z m -17.39221,-0.77616 c -1.35438,-0.99034 -1.66306,-2.04378 -1.17208,-4 0.84706,-3.37492 1.34943,-3.33422 5.9825,0.48475 2.86147,2.35867 3.47824,3.35052 2.47785,3.98469 -1.98349,1.25737 -5.21101,1.04949 -7.28827,-0.46944 z m 55.873,3.83049 c 2.45477,-1.85748 2.55663,-7.30122 0.16927,-9.0469 -1.6435,-1.20175 -1.61908,-1.40604 0.41065,-3.43577 1.19831,-1.19831 1.9013,-2.82712 1.58073,-3.66252 -0.31753,-0.82745 -0.57732,-1.84543 -0.57732,-2.26216 0,-1.56585 -5.74574,-3.28618 -12.75,-3.81748 -6.28358,-0.47662 -7.25,-0.33074 -7.25,1.09441 0,0.90439 0.5167,1.64434 1.14822,1.64434 1.4743,0 0.39559,15.63982 -1.21234,17.57727 -2.0933,2.52227 0.13068,3.42293 8.37314,3.39093 5.56634,-0.0216 8.80514,-0.49653 10.10765,-1.48212 z m -12.41667,-4.95997 c 0,-4.12318 1.57627,-5.16735 5.71701,-3.78711 2.19584,0.73195 2.78299,1.54302 2.78299,3.84433 0,2.71647 -0.29171,2.93778 -4.25,3.22417 l -4.25,0.3075 z m 1,-10.52611 c 0,-2.99469 0.15146,-3.1082 3.75,-2.81037 3.25057,0.26904 3.75,0.64332 3.75,2.81037 0,2.16705 -0.49943,2.54133 -3.75,2.81037 -3.59854,0.29783 -3.75,0.18432 -3.75,-2.81037 z m -36.79064,54.82754 c -2.86515,-2.73316 -5.20936,-5.16247 -5.20936,-5.39846 0,-0.23599 1.3151,-0.42908 2.92245,-0.42908 2.44023,0 3.10869,-0.56431 4.05115,-3.42001 1.75391,-5.31438 3.42739,-6.15696 5.92421,-2.98277 1.15621,1.46987 2.10219,3.51181 2.10219,4.53764 0,1.40571 0.73897,1.86514 3,1.86514 1.65,0 3,0.39534 3,0.87853 0,0.48319 -2.38079,2.91249 -5.29064,5.39846 l -5.29064,4.51993 z"
       id="path4854" />
    <text
       xml:space="preserve"
       style="font-style:normal;font-variant:normal;font-weight:normal;font-stretch:normal;font-size:48px;line-height:0;font-family:'Hoyle PERSONAL USE ONLY';-inkscape-font-specification:'Hoyle PERSONAL USE ONLY';text-align:center;letter-spacing:6.30403px;text-anchor:middle;fill:#ffffff;fill-opacity:1;stroke:none;stroke-width:1.05232;stroke-linecap:square;stroke-linejoin:round;paint-order:markers stroke fill"
       x="335.52829"
       y="838.63562"
       id="text4029-7"
       transform="scale(1.0518767,0.95068177)"><tspan
         id="tspan4027-8"
         x="338.6803"
         y="838.63562"
         dx="0"
         style="font-size:48px;fill:#ffffff;fill-opacity:1;stroke:none;stroke-width:1.05232">JERANBUQ</tspan></text>
    <text
       xml:space="preserve"
       style="font-size:53.3333px;font-family:'Merriweather Sans';-inkscape-font-specification:'Merriweather Sans';text-align:center;letter-spacing:6px;text-anchor:middle;fill:#ffffff;fill-opacity:1;stroke:none;stroke-width:1.48116;stroke-linecap:square;stroke-linejoin:round;stroke-opacity:1;paint-order:markers stroke fill"
       x="318.54593"
       y="1097.451"
       id="text4858"
       transform="scale(1.1139884,0.89767542)"><tspan
         id="tspan4856"
         x="321.54593"
         y="1097.451"
         style="font-style:normal;font-variant:normal;font-weight:normal;font-stretch:normal;font-size:53.3333px;font-family:'Hoyle PERSONAL USE ONLY';-inkscape-font-specification:'Hoyle PERSONAL USE ONLY';fill:#ffffff;fill-opacity:1;stroke:none;stroke-width:1.48116">ESTUDIO</tspan></text>
  </g>
</svg>
