<svg width="156" height="172" viewBox="0 0 156 172" fill="none" xmlns="http://www.w3.org/2000/svg">
<path d="M40.2628 170.531C40.7397 170.272 41.7034 169.071 42.4045 167.86L43.6791 165.659L45.802 167.639C48.8604 170.492 50.1412 170.055 51.6589 165.639C52.0774 164.421 52.1822 164.385 53.9069 164.872C54.9558 165.167 60.106 165.364 66.1629 165.34C77.2857 165.295 84.0828 164.472 91.4407 162.279L94.8751 161.255L97.6139 162.252C106.45 165.468 112.943 165.891 118.218 163.592C118.792 163.342 119.309 163.812 120.254 165.444C121.543 167.67 123.49 169.078 125.278 169.078C126.878 169.078 129.754 167.391 138.579 161.277C149.312 153.84 154.622 149.797 154.84 148.897C155.091 147.861 154.277 145.013 153.329 143.611C152.881 142.951 152.231 141.653 151.884 140.728C150.318 136.557 144.572 125.259 143.336 123.92C142.582 123.104 141.897 122.065 141.812 121.612C141.719 121.116 141.127 120.726 140.326 120.633C139.334 120.517 136.909 121.71 130.803 125.318C126.297 127.979 122.419 130.157 122.186 130.157C121.953 130.157 118.944 129.044 115.499 127.683L109.236 125.208L108.946 121.797C108.787 119.92 108.434 114.604 108.162 109.982C107.89 105.361 107.475 100.712 107.24 99.6514C106.741 97.3923 104.881 95.5676 103.057 95.546C102.02 95.5337 102.407 95.1912 105.093 93.7441C108.925 91.6791 111.587 88.5461 112.707 84.7828C113.466 82.2296 113.678 75.38 112.997 75.38C112.769 75.38 112.582 76.9632 112.58 78.8982C112.575 86.8316 110.244 90.3436 102.564 93.9849C100.042 95.1807 94.3458 97.8898 89.9058 100.005C81.0084 104.244 76.7507 105.891 72.0986 106.892C67.5399 107.874 66.8752 107.807 66.8752 106.362C66.8752 104.493 65.1777 103.937 62.1807 104.826L59.7523 105.546L59.705 103.557C59.5868 98.5904 58.5446 97.7539 54.7907 99.6123C53.3081 100.346 52.0402 100.87 51.9731 100.777C51.9059 100.683 51.5767 99.6334 51.2414 98.4442C50.9062 97.2549 50.4141 96.0116 50.1479 95.6813C49.2468 94.5629 47.5792 95.0548 45.6754 97.0005L43.7968 98.9204L42.1587 96.3999C40.2086 93.3995 38.9489 93.0007 37.4623 94.9131C36.5757 96.0536 36.3019 96.1582 35.508 95.66C35.0002 95.3414 34.12 94.8103 33.5521 94.48C32.9841 94.1497 32.1224 93.555 31.6373 93.1586C31.1521 92.7622 30.6257 92.5104 30.4674 92.599C30.3092 92.6877 30.049 92.5651 29.8893 92.3267C29.7295 92.0883 27.3551 89.9942 24.6127 87.6732C16.5561 80.8543 14.3619 78.5255 13.6834 76.0733C13.1729 74.2285 13.233 68.4625 13.7681 67.94C13.8563 67.8539 17.3474 68.9536 21.5261 70.3837C29.5785 73.1395 30.6954 73.2531 34.0443 71.6562C35.4347 70.9932 36.2621 70.9684 40.4549 71.4638C52.2955 72.8629 56.8151 76.0853 60.936 86.0668C64.3002 94.2156 66.2969 97.7899 68.661 99.8956C72.0733 102.935 75.9319 103.063 81.8332 100.332C83.6614 99.4856 87.3233 97.8848 89.9707 96.7743C94.8919 94.7101 99.4065 92.2812 99.03 91.9003C98.9145 91.7833 97.4553 92.3165 95.7874 93.0852C86.6804 97.2821 77.6667 100.817 75.2005 101.159C70.2077 101.852 66.1284 97.1831 61.9124 85.9511C59.8096 80.3488 58.5602 78.1069 56.4822 76.2072C52.6944 72.7445 47.1981 70.7507 40.0288 70.2388C37.8586 70.0838 35.8489 69.8106 35.5627 69.6317C35.1895 69.3983 35.242 67.7698 35.7485 63.8694C36.1367 60.879 36.5145 58.3759 36.588 58.3069C36.6615 58.2379 38.4265 58.5051 40.5102 58.9007C43.956 59.555 44.5573 59.5477 47.1582 58.8207C50.5755 57.8654 52.0561 56.9651 52.6029 55.5097C52.9315 54.6351 53.9457 54.1642 57.9239 53.039C64.9689 51.0464 66.4 50.8953 73.2858 51.4173C81.0749 52.0079 98.2314 54.4993 101.101 55.4566C106.032 57.1017 108.525 61.9739 110.37 73.5747C111.43 80.2371 111.037 81.6595 107.016 85.7218C105.441 87.3135 103.617 88.9779 102.964 89.4205C102.312 89.8631 102.013 90.2365 102.3 90.2504C103.436 90.3052 109.154 85.3733 110.351 83.3068C111.683 81.0065 112.326 77.9069 111.766 76.4841C111.579 76.009 111.348 74.3229 111.253 72.7373L111.08 69.8542L111.959 72.497C112.735 74.8281 112.845 74.9619 112.888 73.6319C112.951 71.6809 110.946 64.6938 109.335 61.2512C106.851 55.9419 103.578 54.1427 93.8136 52.7171C90.0973 52.1745 86.9826 51.6612 86.892 51.5763C86.8014 51.4914 87.9767 49.0155 89.5037 46.0743L92.2801 40.7266L93.9421 40.9782C98.7111 41.7 106.995 42.2883 108.465 42.0093C110.899 41.5472 111.99 40.2317 111.972 37.7807C111.947 34.4752 110.678 33.4248 106.051 32.8819C104.484 32.698 100.531 32.1159 97.2662 31.5882C88.1329 30.1122 71.8239 28.308 67.5328 28.2989C64.3855 28.2922 63.4571 28.4675 62.4673 29.2554L61.2554 30.22L58.067 20.2459C54.4433 8.91021 52.9349 5.53895 50.5311 3.40329C47.5869 0.787503 43.3075 0.360958 35.0596 1.86117C33.6232 2.12244 29.151 2.88939 25.1215 3.5655C15.9606 5.10258 10.4768 6.38687 7.45193 7.70361C3.29395 9.51358 0.383039 14.186 1.11203 17.88C1.27714 18.7168 2.03381 22.3205 2.79346 25.8882C4.27313 32.8374 5.82703 42.1016 6.29942 46.7901C6.71169 50.8821 7.83162 54.8524 8.76938 55.5462C9.21015 55.8724 10.0769 56.0107 10.6955 55.8536C11.8195 55.5681 11.8202 55.5707 11.7523 59.8784C11.7149 62.2491 11.9051 64.6062 12.1749 65.1164C12.4646 65.6642 12.5578 67.6326 12.4026 69.924C12.2411 72.3091 12.3684 74.7678 12.7328 76.3055C13.2833 78.6275 13.7051 79.1523 18.6132 83.6231C21.5212 86.272 26.5178 90.4201 29.7168 92.8411C32.9157 95.2621 35.5334 97.5004 35.5338 97.8152C35.5338 99.0289 34.689 98.8122 33.2036 97.2187C30.3875 94.1977 28.3796 94.5172 27.4098 98.1408C27.1176 99.2326 26.797 100.412 26.6973 100.761C26.5619 101.235 26.1553 101.136 25.0876 100.366C21.2033 97.5674 19.3262 98.2937 19.01 102.718C18.8114 105.497 18.7361 105.656 17.788 105.311C17.2322 105.109 15.7091 104.94 14.4033 104.937L12.029 104.931L12.0711 106.853C12.0942 107.91 12.2812 109.478 12.4866 110.336L12.86 111.898H10.3951C5.92133 111.898 5.11239 113.265 7.29722 117.132C7.9531 118.293 8.43133 119.291 8.35992 119.35C8.28852 119.409 7.12467 119.822 5.77364 120.269C4.42257 120.715 3.06103 121.393 2.74798 121.774C1.92368 122.779 2.98998 125.107 4.97716 126.641L6.57108 127.871L4.07658 129.376C0.234029 131.695 0.425811 133.477 4.76796 135.8L6.52931 136.742L5.08172 138.135C4.28556 138.9 3.31717 140.141 2.92972 140.892C2.2971 142.118 2.30544 142.347 3.01139 143.136C3.44371 143.62 4.84823 144.27 6.13249 144.582C7.41675 144.894 8.46752 145.224 8.46752 145.316C8.46752 145.407 7.9333 146.499 7.28038 147.742C5.20135 151.698 5.80448 152.741 10.1725 152.741H13.1121L12.4076 155.173C11.5942 157.98 11.8732 159.757 13.1939 160.182C14.0007 160.441 16.6555 159.946 18.6821 159.159C19.1997 158.958 19.3372 159.533 19.3262 161.853C19.3123 164.767 19.8831 166.195 21.0612 166.195C21.3945 166.195 22.8444 165.568 24.2833 164.802L26.8995 163.41L27.2214 165.146C28.1079 169.928 29.9518 170.731 32.958 167.645C33.9833 166.592 34.9566 165.727 35.1207 165.723C35.2849 165.718 35.6824 166.357 36.004 167.143C36.5841 168.56 38.5454 171 39.1045 171C39.2647 171 39.7859 170.789 40.2628 170.531ZM123.992 167.593C123.228 167.307 119.951 163.034 119.338 161.524C119.315 161.465 118.345 161.896 117.184 162.481C114.289 163.94 108.855 164.178 104.267 163.046C100.489 162.115 94.4996 159.746 83.9701 155.021C80.1831 153.321 76.1231 151.553 74.9478 151.091C73.151 150.384 72.6037 149.838 71.5088 147.66L70.2067 145.069L71.2891 144.794C72.0306 144.606 73.2547 145.058 75.175 146.228C76.7169 147.167 78.2507 147.936 78.5833 147.936C78.9159 147.936 79.3994 148.336 79.6578 148.824C80.1021 149.664 96.0781 156.985 101.97 159.049C105.131 160.156 107.974 160.183 113.517 159.156C118.547 158.225 120.544 156.958 119.649 155.265C119.345 154.691 118.539 154.18 117.804 154.094C116.658 153.961 116.184 153.299 113.936 148.686C110.824 142.298 110.428 140.032 112.127 138.321C114.184 136.25 139.519 121.401 140.4 121.75C141.044 122.005 140.926 122.202 139.766 122.813C134.308 125.686 115.977 137.126 114.227 138.75C112.564 140.295 112.779 141.63 115.398 146.014C116.424 147.732 119.188 153.029 121.539 157.786C125.557 165.914 126.707 167.75 126.707 166.034C126.707 165.196 117.217 146.125 115.79 144.099C115.261 143.347 114.703 142.096 114.549 141.32C114.279 139.954 114.469 139.781 120.608 135.841C124.093 133.603 130.081 129.883 133.914 127.575C140.086 123.858 140.993 123.447 141.838 123.981C142.984 124.705 146.068 130.071 148.02 134.736C148.797 136.593 150.193 139.472 151.121 141.134C152.675 143.916 154.464 148.373 154.146 148.671C152.527 150.192 136.931 161.22 131.456 164.714C126.917 167.611 125.501 168.157 123.992 167.593ZM59.7523 162.281V160.149L67.4688 160.145C74.8373 160.141 80.9997 159.393 85.1361 158C86.2869 157.612 87.0777 157.764 89.5286 158.844C91.1725 159.569 92.5176 160.289 92.5176 160.443C92.5176 160.832 86.9238 162.256 82.0707 163.102C79.8507 163.489 73.9209 163.942 68.8933 164.109L59.7523 164.413V162.281ZM66.7375 157.015C66.5854 155.854 66.3155 154.417 66.1378 153.822C65.8304 152.794 65.9401 152.741 68.3911 152.741C69.8275 152.741 71.3625 152.449 71.8603 152.08C72.7928 151.39 74.1796 151.857 82.0707 155.515L84.6824 156.725L81.1209 157.621C79.1621 158.114 75.1868 158.654 72.2869 158.822L67.0142 159.127L66.7375 157.015ZM102.49 158.047C99.4038 157.065 81.2917 148.762 80.793 148.1C80.482 147.687 79.1033 146.823 77.7292 146.178L75.2308 145.007L78.7882 143.442C84.2747 141.029 96.8593 133.901 102.268 130.144C103.321 129.412 105.2 128.239 106.445 127.536L108.707 126.258L114.391 128.507C117.518 129.744 120.163 130.9 120.27 131.074C120.377 131.249 118.534 132.574 116.175 134.018C110.724 137.355 109.42 138.835 109.801 141.247C109.955 142.224 111.281 145.738 112.747 149.056C115.108 154.402 115.555 155.106 116.667 155.237C117.396 155.322 117.923 155.683 117.923 156.098C117.923 157.699 106.092 159.193 102.49 158.047ZM76.2493 141.966C76.4187 141.069 75.983 140.309 74.3561 138.663L72.2428 136.524L74.2856 135.52C75.4091 134.968 76.687 133.962 77.1252 133.285C77.8764 132.125 77.8723 131.999 77.0534 131.083C76.5756 130.549 75.3722 129.65 74.3791 129.085C73.386 128.52 72.5735 127.901 72.5735 127.709C72.5735 127.517 73.1874 126.837 73.9378 126.198C77.2852 123.348 77.02 121.38 73.1364 120.253C71.6516 119.821 70.3782 119.418 70.3068 119.356C70.2354 119.294 70.7136 118.294 71.3695 117.132C72.8264 114.554 72.8872 113.136 71.5807 112.21C70.6449 111.547 71.143 111.231 80.2468 106.711C85.5593 104.073 91.4016 101.22 93.2298 100.371C95.0581 99.522 97.441 98.4078 98.5253 97.895C101.925 96.2874 103.244 96.0532 104.378 96.8564C106.001 98.0073 106.279 99.4203 107.01 110.269C107.389 115.9 107.728 120.678 107.763 120.887C107.797 121.097 107.8 122.243 107.769 123.434C107.705 125.92 108.895 125.001 95.1293 133.19C88.1785 137.325 77.2226 143.113 76.3195 143.127C76.1599 143.13 76.1282 142.607 76.2493 141.966ZM65.9255 111.029C65.9255 109.345 67.0257 108.658 70.1992 108.36C71.8968 108.201 73.82 107.941 74.4729 107.781C75.1259 107.621 73.902 108.483 71.7532 109.695C67.5406 112.071 65.9255 112.441 65.9255 111.029ZM22.5503 69.5938C16.6166 67.6114 13.9831 66.2591 13.2101 64.7976C12.9522 64.31 12.7412 61.4932 12.7412 58.538C12.7412 53.2189 12.7519 53.1671 13.8097 53.392C14.3973 53.5169 19.419 54.5466 24.9689 55.6801L35.0596 57.741L35.019 59.4731C34.9966 60.4257 34.7295 63.2537 34.4254 65.7575C33.9271 69.8602 33.7552 70.3696 32.6853 70.9158C30.7818 71.8875 28.5409 71.5953 22.5503 69.5938ZM30.5485 55.6202C7.20958 50.9591 7.99267 51.2486 7.99267 47.2819V45.2374L11.198 46.1382C12.9609 46.6336 18.3565 47.8919 23.1882 48.9343C28.0198 49.9767 34.3236 51.4449 37.1965 52.1969C42.39 53.5563 42.4208 53.5729 42.568 55.0919C42.8594 58.0998 42.9452 58.096 30.5485 55.6202ZM43.6071 56.0359V53.9899L47.3796 52.9772C50.5915 52.1149 51.1914 52.0678 51.4159 52.6599C52.2511 54.8622 51.2613 56.0893 47.6775 57.2948C43.9873 58.536 43.6071 58.4184 43.6071 56.0359ZM9.24726 54.6317C8.81842 54.3888 8.46752 53.6806 8.46752 53.0577C8.46752 51.9856 8.55595 51.9528 10.1295 52.4415C11.1849 52.7692 11.7916 53.2585 11.7916 53.782C11.7916 54.7657 10.34 55.2505 9.24726 54.6317ZM52.3758 51.6769C52.0259 49.7897 51.2784 49.332 47.1445 48.4737C45.5907 48.1511 44.0542 47.741 43.7301 47.5623C43.4061 47.3835 46.0772 46.422 49.6659 45.4256C60.0328 42.5472 61.3503 42.0865 62.4827 40.9442C63.0704 40.3515 63.5512 39.4242 63.5512 38.8836C63.5512 38.3303 63.8625 37.9008 64.2635 37.9008C64.6552 37.9008 64.9757 38.0065 64.9757 38.1357C64.9757 38.7081 60.986 50.2092 60.6196 50.6932C60.3948 50.99 58.8791 51.5992 57.2512 52.047C55.6233 52.4948 53.9291 52.9656 53.4864 53.0931C52.8762 53.2689 52.6074 52.9261 52.3758 51.6769ZM38.6211 51.2865C36.7929 50.792 31.8781 49.627 27.6993 48.6977C13.1456 45.4612 9.49203 44.5489 8.68066 43.9485C7.93576 43.3974 7.99715 43.2485 9.38095 42.2515L10.8978 41.1586L15.7371 42.3953C18.3987 43.0755 27.2007 45.1733 35.2971 47.057C43.3934 48.9407 50.1017 50.5651 50.2044 50.6668C50.653 51.1113 45.598 52.3229 43.6071 52.2481C42.693 52.2137 40.4493 51.781 38.6211 51.2865ZM77.3221 50.5651C74.3186 50.1882 69.7093 49.9583 67.0792 50.0542L62.2972 50.2285L64.3741 44.1992C65.5164 40.8831 66.5429 38.0769 66.6552 37.9632C66.8693 37.7465 79.1849 38.9791 86.6846 39.9677L91.0612 40.5446L88.2899 45.8296C85.072 51.9665 85.8418 51.6341 77.3221 50.5651ZM36.4842 46.0743C35.8313 45.8545 31.237 44.7621 26.2747 43.6467C21.3125 42.5314 17.0969 41.479 16.9069 41.3082C16.7169 41.1373 15.6969 38.4088 14.6404 35.2448C13.5838 32.0807 12.5371 29.0595 12.3144 28.531C10.9897 25.3865 9.27325 17.5846 9.24017 14.5574C9.17442 8.54778 10.6529 7.38513 20.6848 5.55776C39.2024 2.18463 45.2301 1.69107 48.3346 3.29371C51.502 4.9288 52.4953 6.96123 56.9115 20.8429C62.7181 39.0953 62.7794 39.3855 61.0582 40.4801C59.4482 41.5038 41.2398 46.5619 39.3334 46.5149C38.4192 46.4924 37.1371 46.2941 36.4842 46.0743ZM7.04294 42.0009C7.04294 41.0817 4.37204 27.529 3.41023 23.5678C2.00008 17.76 2.0499 14.1232 3.56793 12.0538C4.61346 10.6286 8.79588 7.80118 9.22151 8.23188C9.36767 8.37979 9.15099 9.15885 8.73996 9.96311C7.71203 11.9746 7.80085 16.0719 8.97413 20.7629C9.74508 23.8454 13.8593 37.1197 14.9879 40.1658C15.1479 40.5975 14.5825 40.6747 12.8127 40.4625C10.8924 40.2324 10.0885 40.3746 8.73213 41.1844C7.8031 41.7391 7.04294 42.1065 7.04294 42.0009ZM94.1796 39.7862C90.262 39.2925 82.6761 38.3388 77.3221 37.6668C71.968 36.9948 66.6868 36.4482 65.586 36.4521C63.2466 36.4605 62.5882 35.6266 62.4512 32.4811C62.3671 30.551 62.4302 30.4589 64.2554 29.8422C66.8194 28.976 74.7088 29.6716 93.4616 32.4174C101.424 33.5833 108.262 34.561 108.657 34.5899C109.052 34.6189 108.425 34.831 107.265 35.0613C105.689 35.374 104.006 35.2373 100.617 34.5212C95.5422 33.4491 64.9362 30.4214 63.766 30.8758C62.2719 31.4559 63.6689 32.1348 66.357 32.1348C74.3302 32.1348 98.1689 35.0164 104.203 36.7096C104.492 36.7908 104.861 37.5245 105.022 38.34C105.416 40.3357 106.288 40.2277 106.288 38.1833C106.288 36.6368 106.4 36.5248 108.247 36.209C109.666 35.9663 110.323 36.0539 110.634 36.5271C111.177 37.3543 110.735 39.8948 109.961 40.3922C108.989 41.0171 101.737 40.7386 94.1796 39.7862Z" stroke="#977656" stroke-opacity="0.5" stroke-width="1.75848"/>
</svg>
