<?xml version="1.0" encoding="UTF-8" standalone="no"?>
<!-- Created with Inkscape (http://www.inkscape.org/) -->

<svg
   width="105mm"
   height="145.96127mm"
   viewBox="0 0 105 145.96128"
   version="1.1"
   id="svg6691"
   xml:space="preserve"
   xmlns:inkscape="http://www.inkscape.org/namespaces/inkscape"
   xmlns:sodipodi="http://sodipodi.sourceforge.net/DTD/sodipodi-0.dtd"
   xmlns="http://www.w3.org/2000/svg"
   xmlns:svg="http://www.w3.org/2000/svg"><sodipodi:namedview
     id="namedview6693"
     pagecolor="#ffffff"
     bordercolor="#000000"
     borderopacity="0.25"
     inkscape:showpageshadow="2"
     inkscape:pageopacity="0.0"
     inkscape:pagecheckerboard="0"
     inkscape:deskcolor="#d1d1d1"
     inkscape:document-units="mm"
     showgrid="false"
     showguides="true"><sodipodi:guide
       position="151.56744,-190.45332"
       orientation="0,-1"
       id="guide10091"
       inkscape:locked="false" /></sodipodi:namedview><defs
     id="defs6688" /><g
     inkscape:label="Capa 1"
     inkscape:groupmode="layer"
     id="layer1"
     transform="translate(0,161.78225)"><path
       style="fill:#f2dac2;fill-opacity:1;stroke-width:0.0676943"
       d="m 13.758596,-132.67014 c 0.03674,-0.29797 0.143851,-0.92263 0.238178,-1.38815 l 0.17148,-0.8464 0.302925,-0.90447 0.302925,-0.90448 0.406047,-0.82744 c 0.223318,-0.4551 0.563385,-1.06785 0.755714,-1.36169 0.192329,-0.29386 0.535353,-0.77853 0.762295,-1.07708 l 0.412614,-0.54281 0.680449,-0.68269 0.680461,-0.68267 0.543468,-0.40772 c 0.298898,-0.22425 0.748076,-0.5327 0.998169,-0.68546 0.250081,-0.15274 0.675328,-0.38859 0.944986,-0.52408 0.269658,-0.13549 0.750102,-0.34634 1.06766,-0.46855 0.317545,-0.12217 0.879395,-0.30029 1.248552,-0.39577 0.369156,-0.0955 1.008788,-0.22293 1.421416,-0.28326 l 0.750216,-0.10971 1.184006,0.0364 1.184006,0.0364 0.740288,0.1484 0.740289,0.14842 0.797373,0.26316 0.79736,0.26316 0.795474,0.39769 0.79546,0.39767 0.641671,0.4293 c 0.3529,0.23611 0.793661,0.5544 0.979435,0.7073 0.185786,0.15291 0.524721,0.44151 0.753172,0.64135 0.228465,0.19983 0.696428,0.68153 1.039892,1.07044 0.343489,0.38891 0.743635,0.86669 0.889209,1.06173 0.145587,0.19504 0.456363,0.67485 0.690629,1.06623 0.234264,0.39141 0.520291,0.90108 0.635593,1.13263 0.115377,0.23153 0.303931,0.65844 0.41917,0.94865 0.115252,0.29022 0.284216,0.75636 0.375511,1.03583 0.09134,0.27949 0.253829,0.87083 0.361192,1.31409 l 0.195197,0.80596 0.07272,0.71822 0.07272,0.71823 -0.03246,5.58746 -0.03246,5.58746 0.08644,0.91442 c 0.04756,0.50292 0.143787,1.38689 0.213932,1.96434 0.07008,0.57745 0.204357,1.47669 0.298269,1.99829 0.09386,0.52162 0.263543,1.32945 0.376958,1.79521 0.11349,0.46575 0.342394,1.25843 0.508842,1.7615 l 0.302623,0.91466 0.39242,0.81319 0.392434,0.81316 0.596677,0.89016 c 0.328164,0.48959 0.66384,0.97761 0.74595,1.08451 0.08203,0.10694 0.295628,0.39259 0.474481,0.63493 0.178853,0.24233 0.747787,0.98968 1.264292,1.66077 0.516505,0.6711 1.290148,1.66684 1.719195,2.21275 0.42906,0.54591 1.071712,1.36954 1.42811,1.83028 0.356411,0.46074 0.949578,1.234264 1.318168,1.718932 0.368591,0.484675 1.083916,1.476009 1.589625,2.202965 0.50571,0.726957 1.43381,2.114742 2.062446,3.083964 0.628635,0.969223 1.451411,2.25798 1.828394,2.863903 0.37697,0.605924 1.091428,1.78012 1.587688,2.609327 0.496247,0.829206 1.283995,2.18342 1.750562,3.009363 0.466554,0.82595 1.053543,1.893329 1.304403,2.371956 0.250861,0.478632 0.828375,1.64195 1.283379,2.585156 0.454991,0.943205 0.891764,1.858026 0.970603,2.032934 0.07889,0.174909 0.249086,0.546718 0.378341,0.826241 0.129242,0.279524 0.393918,0.858896 0.588147,1.287495 0.194228,0.428599 0.418151,0.92244 0.497606,1.097423 0.07939,0.174991 0.144429,0.333703 0.144391,0.352693 -3.7e-5,0.019 0.08921,0.226495 0.198268,0.461106 0.109086,0.23461 0.46093,1.05165 0.781884,1.815645 0.320944,0.763994 0.942433,2.291085 1.38108,3.39354 0.438647,1.102454 1.026945,2.621969 1.307348,3.376693 0.280403,0.75473 0.75516,2.063287 1.05504,2.9079 0.299867,0.844619 0.795763,2.282647 1.101997,3.195626 0.306221,0.912977 0.75516,2.28497 0.997628,3.048874 0.242468,0.763905 0.682097,2.196843 0.976956,3.184307 0.294873,0.987464 0.692616,2.359399 0.883888,3.048745 0.191271,0.689344 0.420705,1.527734 0.509848,1.863079 0.08908,0.335351 0.401832,1.570042 0.694893,2.743751 0.293048,1.173709 0.610027,2.476978 0.704404,2.896157 0.09437,0.419167 0.247376,1.093178 0.340004,1.497799 0.0926,0.404623 0.304309,1.418237 0.470404,2.252469 0.166096,0.834244 0.405532,2.126468 0.532069,2.871612 0.12655,0.745145 0.291211,1.796803 0.36591,2.337014 0.07474,0.54021 0.166033,1.317486 0.202936,1.72728 0.03687,0.409794 0.06681,0.933572 0.06643,1.163958 l -7.3e-4,0.418891 -0.06631,0.173657 -0.06631,0.173645 -0.133584,-1.51e-4 -0.13357,-1.51e-4 -0.297578,-0.423645 c -0.163667,-0.233003 -0.510415,-0.789606 -0.770536,-1.236905 -0.26012,-0.447297 -0.851538,-1.499447 -1.314255,-2.338107 -0.462716,-0.838661 -1.372988,-2.515955 -2.022812,-3.72732 -0.649823,-1.211377 -1.583963,-2.964902 -2.075857,-3.896713 -0.491907,-0.93181 -1.061482,-2.014407 -1.265726,-2.405769 -0.204257,-0.391363 -0.636525,-1.214749 -0.960613,-1.829741 -0.324087,-0.615005 -1.279076,-2.459965 -2.12221,-4.099936 -0.843135,-1.63997 -1.75323,-3.408698 -2.022448,-3.930509 -0.269205,-0.521809 -1.2176,-2.382014 -2.107526,-4.133788 -0.889939,-1.751774 -2.755488,-5.472148 -4.145676,-8.267497 -1.390175,-2.79535 -3.126557,-6.317473 -3.858605,-7.826939 -0.732047,-1.509467 -1.634392,-3.384858 -2.005196,-4.167535 -0.370818,-0.782676 -0.825419,-1.743234 -1.010211,-2.13457 -0.184805,-0.391339 -0.457243,-0.97072 -0.605434,-1.287515 -0.148204,-0.316797 -0.541657,-1.170613 -0.874376,-1.89737 -0.332706,-0.726758 -0.968337,-2.157788 -1.412508,-3.180066 -0.44417,-1.022275 -1.07463,-2.501147 -1.401021,-3.286383 -0.32639,-0.785234 -0.874136,-2.113759 -1.217197,-2.952279 -0.343061,-0.83852 -0.818347,-2.02768 -1.056185,-2.642579 -0.237838,-0.614898 -0.927182,-2.444329 -1.531874,-4.065402 -0.604692,-1.62107 -1.188095,-3.17608 -1.296452,-3.45558 -0.108331,-0.2795 -0.404562,-1.01129 -0.658216,-1.62621 -0.253666,-0.61492 -0.745573,-1.68818 -1.093126,-2.38501 l -0.631932,-1.26699 -0.501117,-0.78742 c -0.27561,-0.43307 -0.669943,-1.00661 -0.876289,-1.27453 -0.206332,-0.2679 -0.685569,-0.80325 -1.064942,-1.18965 l -0.689772,-0.70256 -0.62169,-0.46953 -0.621703,-0.46952 -0.527174,-0.26306 c -0.289953,-0.14469 -0.801035,-0.35964 -1.135729,-0.47766 -0.334707,-0.11802 -1.080267,-0.33288 -1.656813,-0.47743 -0.576546,-0.14456 -1.428702,-0.34499 -1.893683,-0.44542 -0.464981,-0.1004 -1.469328,-0.33311 -2.231862,-0.51705 -0.762533,-0.18393 -1.736369,-0.44405 -2.164083,-0.57805 -0.4277,-0.134 -1.075612,-0.3628 -1.439786,-0.50848 -0.364186,-0.14566 -0.866146,-0.36877 -1.115484,-0.49578 -0.249338,-0.127 -0.716773,-0.39782 -1.038747,-0.60179 -0.321961,-0.20396 -0.839787,-0.57028 -1.150714,-0.814 -0.310939,-0.24374 -0.865505,-0.74339 -1.232396,-1.11032 l -0.667061,-0.66715 -0.472204,-0.61008 c -0.259718,-0.33554 -0.639645,-0.86935 -0.844304,-1.1862 -0.204634,-0.31687 -0.561762,-0.9573 -0.793573,-1.42319 -0.231824,-0.4659 -0.531641,-1.14761 -0.666256,-1.51493 -0.134615,-0.36732 -0.346496,-1.06854 -0.470845,-1.55825 -0.12431,-0.48975 -0.275609,-1.21051 -0.336103,-1.6017 l -0.109967,-0.71126 -0.02227,-1.4223 -0.02227,-1.42229 z m 2.984456,4.27023 0.168071,0.81293 0.242405,0.74528 0.242393,0.74527 0.396308,0.81319 0.396296,0.81318 0.399958,0.61001 c 0.219971,0.3355 0.553168,0.79303 0.740427,1.01676 0.187258,0.22372 0.473625,0.54523 0.636335,0.71447 0.162724,0.16924 0.531742,0.51293 0.820034,0.76372 0.288292,0.25083 0.73718,0.59312 0.99754,0.76066 0.260347,0.16755 0.723882,0.43971 1.030065,0.6048 l 0.556679,0.30015 0.676183,0.2335 c 0.3719,0.12842 0.919646,0.29114 1.217223,0.36159 l 0.541052,0.1281 1.285568,10e-4 1.285556,0.001 0.406135,-0.0885 c 0.223369,-0.0487 0.665073,-0.16445 0.981574,-0.25734 l 0.575426,-0.16887 0.765679,-0.37305 0.765692,-0.37306 0.656806,-0.49015 0.65682,-0.49017 0.576244,-0.60265 0.576244,-0.60267 0.440975,-0.62751 c 0.242531,-0.34513 0.554955,-0.84759 0.694263,-1.11661 0.139321,-0.26899 0.360928,-0.7434 0.49246,-1.05421 0.131533,-0.31081 0.329297,-0.87442 0.439465,-1.25245 0.110219,-0.37802 0.254862,-0.9768 0.321547,-1.3306 l 0.121164,-0.64327 0.0038,-1.45613 0.0038,-1.45613 -0.122298,-0.67336 c -0.06731,-0.37035 -0.16539,-0.84286 -0.218046,-1.05002 -0.05272,-0.20718 -0.173355,-0.62058 -0.268224,-0.91869 -0.09487,-0.29811 -0.314575,-0.86218 -0.48822,-1.25351 -0.17367,-0.39133 -0.463647,-0.96118 -0.644426,-1.26632 -0.180766,-0.30515 -0.498676,-0.78059 -0.706443,-1.05653 -0.207779,-0.27593 -0.541807,-0.69145 -0.742276,-0.92337 l -0.364501,-0.42167 -0.648616,-0.54361 c -0.356738,-0.299 -0.847815,-0.67542 -1.091277,-0.83649 -0.243449,-0.16107 -0.714885,-0.43013 -1.047629,-0.59794 -0.332745,-0.16781 -0.873105,-0.40017 -1.200803,-0.51638 l -0.59581,-0.21129 -0.689079,-0.14649 -0.689092,-0.14648 -1.04875,9.4e-4 -1.048749,9.5e-4 -0.707789,0.14643 -0.707777,0.14644 -0.646162,0.23903 c -0.355392,0.13148 -0.880993,0.36272 -1.168002,0.51389 l -0.521827,0.27485 0.04114,0.0668 0.04114,0.0668 -0.07549,-0.0468 -0.07549,-0.0468 -0.517964,0.3823 c -0.284869,0.21025 -0.729556,0.5815 -0.988179,0.825 l -0.470228,0.44271 -0.428078,0.54724 c -0.235435,0.30098 -0.539492,0.72112 -0.675693,0.93363 -0.136187,0.21249 -0.398334,0.6869 -0.582535,1.05421 l -0.334908,0.66783 -0.26728,0.77345 -0.267267,0.77344 -0.144253,0.74485 c -0.07939,0.40965 -0.15754,0.83623 -0.173783,0.94798 -0.01623,0.11172 -0.02114,0.88889 -0.01132,1.72702 l 0.0185,1.52389 0.16807,0.81291 z m 31.653942,40.37555 0.17971,0.369291 0.239222,0.280643 0.239234,0.280646 0.331008,0.204483 0.331008,0.204489 0.356662,0.106482 0.356663,0.106482 0.309103,-0.0013 c 0.17002,-7.53e-4 0.439842,-0.03132 0.599608,-0.06802 0.159767,-0.03669 0.427273,-0.130853 0.594451,-0.209256 l 0.303981,-0.142548 0.334758,-0.300385 0.33477,-0.300393 0.212623,-0.43045 0.212636,-0.430456 0.0502,-0.419811 0.0502,-0.419809 -0.05196,-0.333254 -0.05196,-0.333254 -0.168888,-0.370983 -0.168901,-0.370981 -0.357732,-0.357358 -0.357732,-0.357359 -0.338004,-0.15883 -0.338016,-0.158829 -0.422202,-0.07322 -0.422203,-0.07321 -0.423586,0.08656 -0.423586,0.08655 -0.394245,0.209067 -0.394246,0.209065 -0.263241,0.298409 -0.263228,0.298411 -0.149449,0.30765 c -0.08216,0.169208 -0.173985,0.40263 -0.20398,0.518716 l -0.05461,0.211066 0.01611,0.581174 0.0161,0.581177 0.179709,0.369291 z m -22.876572,55.841176 c 0.01334,-0.167606 0.08682,-0.792311 0.163063,-1.388219 0.07625,-0.595918 0.259265,-1.784322 0.406588,-2.640898 0.147348,-0.856588 0.409382,-2.242994 0.582322,-3.080925 0.172939,-0.83793 0.452172,-2.132897 0.62052,-2.877701 0.168347,-0.744804 0.550941,-2.326797 0.850205,-3.51554 0.299263,-1.188745 0.683216,-2.666439 0.853212,-3.283784 0.170021,-0.617348 0.462062,-1.655624 0.649006,-2.307285 0.186931,-0.651659 0.539253,-1.839869 0.782929,-2.640464 0.243676,-0.800595 0.652818,-2.110647 0.909177,-2.911228 0.256371,-0.800581 0.740225,-2.262934 1.075234,-3.249673 0.335009,-0.986741 0.936996,-2.692189 1.337759,-3.789885 0.400762,-1.09769 0.835006,-2.270566 0.965003,-2.606391 0.129985,-0.33582 0.544424,-1.387397 0.920979,-2.336841 0.376542,-0.949442 0.967583,-2.396433 1.313425,-3.215536 0.345829,-0.819103 0.895816,-2.098516 1.222181,-2.843142 0.326352,-0.744624 0.700554,-1.582319 0.831533,-1.861544 0.130992,-0.279224 0.337073,-0.720908 0.457973,-0.98152 0.120914,-0.260609 0.313217,-0.671832 0.427349,-0.913826 0.114119,-0.241994 0.432393,-0.912127 0.707223,-1.489188 0.274841,-0.577058 0.838138,-1.70407 1.251798,-2.504469 0.413646,-0.800401 1.065722,-2.003504 1.449059,-2.673563 0.383349,-0.670059 1.046811,-1.804574 1.474374,-2.521144 l 0.77738,-1.302857 0.06291,7.3e-5 c 0.0346,3.9e-5 0.06291,0.02963 0.06278,0.06575 -6.3e-5,0.03612 0.170097,0.455383 0.378153,0.931684 0.208044,0.476302 0.650981,1.475862 0.984304,2.221245 0.333336,0.745385 0.660795,1.477215 0.727682,1.626293 0.06694,0.149077 0.747284,1.612769 1.511956,3.252648 l 1.390314,2.9816 -0.03536,0.140067 c -0.01938,0.07703 -0.719503,1.539142 -1.555742,3.24912 -0.836226,1.70998 -2.719969,5.500143 -4.186089,8.422583 -1.46612,2.922439 -2.872212,5.709497 -3.124645,6.193456 -0.252433,0.48396 -0.940846,1.824169 -1.529823,2.978243 -0.588964,1.154072 -1.245884,2.433363 -1.459829,2.842867 -0.213932,0.409505 -0.687708,1.323278 -1.052813,2.030608 -0.365107,0.707331 -1.198351,2.306431 -1.851648,3.55356 -0.653296,1.24712 -1.799015,3.424931 -2.546035,4.839569 -0.74702,1.414638 -1.991092,3.744719 -2.764597,5.177965 -0.773493,1.433234 -1.796424,3.306405 -2.273144,4.162615 -0.476733,0.856199 -1.119825,1.983118 -1.429091,2.504256 -0.309279,0.521148 -0.657034,1.076959 -0.772801,1.235143 l -0.210472,0.287592 -0.136578,-1.51e-4 -0.136565,-1.63e-4 -0.06568,-0.173797 -0.06568,-0.173808 0.01283,-0.554326 c 0.0075,-0.304879 0.02378,-0.69146 0.03724,-0.859067 z M 51.69122,-98.458591 c 0.211353,-0.27887 0.829407,-1.080825 1.373466,-1.782119 0.544047,-0.7013 1.09602,-1.41707 1.226584,-1.5906 0.130576,-0.17353 0.589002,-0.75684 1.018728,-1.29624 0.429727,-0.53941 1.116441,-1.41944 1.526023,-1.95565 0.409596,-0.5362 0.824299,-1.06907 0.921571,-1.18416 0.09726,-0.11513 0.45903,-0.60084 0.803903,-1.07944 0.344873,-0.47862 0.803073,-1.14884 1.018213,-1.48939 0.215127,-0.34056 0.498097,-0.83218 0.628799,-1.09246 0.130702,-0.2603 0.346534,-0.74902 0.479626,-1.08607 0.133093,-0.33704 0.378946,-1.08345 0.546337,-1.65869 0.167391,-0.57524 0.383462,-1.442 0.480155,-1.92614 0.09676,-0.48413 0.22284,-1.15591 0.280315,-1.49286 0.0575,-0.33692 0.164938,-1.15967 0.238794,-1.82836 0.07386,-0.66867 0.169166,-1.68811 0.211781,-2.26544 l 0.07751,-1.04969 -0.03699,-5.04572 -0.03712,-5.04573 0.07939,-0.76289 0.07952,-0.76288 0.240958,-0.95237 0.240971,-0.95236 0.310298,-0.8238 c 0.170663,-0.45309 0.41683,-1.03702 0.547041,-1.29761 0.130212,-0.26061 0.435917,-0.80482 0.679341,-1.20937 l 0.4426,-0.73553 0.520556,-0.65176 c 0.286303,-0.35846 0.793258,-0.92688 1.126556,-1.26314 0.33331,-0.33625 0.86519,-0.81728 1.181981,-1.06893 0.31679,-0.25166 0.833458,-0.62741 1.148172,-0.83499 0.314702,-0.20759 0.93297,-0.55761 1.373919,-0.77785 l 0.801727,-0.40041 0.79317,-0.25963 c 0.436244,-0.14278 1.021623,-0.30626 1.300831,-0.36327 0.279207,-0.057 0.765716,-0.13544 1.081135,-0.17431 l 0.573476,-0.0707 0.90651,0.001 0.906522,0.001 0.718924,0.10657 c 0.395415,0.0586 0.962399,0.1684 1.259964,0.24399 0.297565,0.0756 0.830086,0.24583 1.183364,0.37825 0.353291,0.13244 0.884378,0.36266 1.180206,0.5116 0.295829,0.14897 0.736854,0.39554 0.980065,0.54796 0.24321,0.15243 0.685443,0.45807 0.982744,0.67922 l 0.540536,0.40208 0.677139,0.68637 0.677152,0.68638 0.411332,0.54376 c 0.226237,0.29908 0.566543,0.7826 0.756229,1.07451 0.1897,0.29192 0.510982,0.87069 0.71398,1.28618 0.202998,0.41548 0.478758,1.06032 0.612807,1.43296 0.134049,0.37266 0.31747,0.95193 0.40762,1.28728 0.09021,0.33538 0.225382,0.97555 0.300522,1.42264 l 0.136603,0.81287 0.03724,1.1238 0.03724,1.12381 -0.08329,0.87409 c -0.0458,0.48078 -0.14468,1.19064 -0.219732,1.5775 -0.07512,0.38686 -0.242506,1.0696 -0.372088,1.51722 l -0.235624,0.81384 -0.345037,0.8171 c -0.189774,0.44939 -0.469724,1.04617 -0.622105,1.32616 -0.152394,0.28001 -0.484936,0.82321 -0.738993,1.20712 -0.254056,0.38391 -0.647672,0.92483 -0.874689,1.20203 -0.22703,0.27721 -0.707903,0.79712 -1.068629,1.15537 l -0.655838,0.65135 -0.65385,0.489 c -0.359607,0.26893 -0.913996,0.6458 -1.231956,0.83746 -0.317973,0.19167 -0.877244,0.48717 -1.242815,0.65668 l -0.664683,0.30818 -0.9817,0.32676 c -0.539932,0.17972 -1.408167,0.43351 -1.929403,0.56398 -0.521235,0.13046 -1.770127,0.41998 -2.775304,0.64335 -1.005191,0.22338 -2.212524,0.5113 -2.682978,0.63979 -0.470442,0.12848 -1.134471,0.34112 -1.475607,0.4725 -0.341137,0.13139 -0.809364,0.34947 -1.040496,0.4846 -0.231132,0.13513 -0.66418,0.43599 -0.962323,0.66859 -0.298144,0.23259 -0.812233,0.69331 -1.14241,1.02383 -0.33019,0.3305 -0.794681,0.84786 -1.032204,1.14968 -0.237524,0.30183 -0.662873,0.90913 -0.945226,1.34957 l -0.513372,0.80081 -0.572935,1.13042 c -0.315116,0.62173 -0.783809,1.62869 -1.041565,2.23769 -0.257742,0.60899 -0.593771,1.42713 -0.746718,1.81807 -0.152947,0.39097 -0.474744,1.22872 -0.715099,1.86169 -0.240354,0.63298 -0.780463,2.064794 -1.200237,3.18181 -0.419774,1.117018 -1.108489,2.883907 -1.530477,3.926423 -0.421976,1.042515 -0.996786,2.442851 -1.277352,3.111856 -0.280567,0.669006 -0.535843,1.224575 -0.567286,1.234599 l -0.05712,0.01823 -0.695044,-1.100596 c -0.382267,-0.605328 -0.96996,-1.527594 -1.305976,-2.04948 -0.336015,-0.521887 -1.123788,-1.728944 -1.750625,-2.68235 -0.626824,-0.953405 -1.139629,-1.761859 -1.139566,-1.796564 6.3e-5,-0.0347 0.17304,-0.291265 0.384393,-0.57013 z m 13.631151,-29.342439 c 0.05549,0.29873 0.15121,0.74076 0.212673,0.98229 0.06153,0.24154 0.180477,0.65257 0.264475,0.91343 0.08405,0.26084 0.285347,0.76396 0.447441,1.11802 0.162095,0.35406 0.422392,0.85722 0.578459,1.11816 0.156067,0.26093 0.451292,0.70076 0.656064,0.97739 0.20476,0.27665 0.579151,0.7151 0.831987,0.97435 0.252835,0.25924 0.70292,0.66161 1.000195,0.89416 0.297275,0.23256 0.783822,0.56518 1.081198,0.73916 l 0.5407,0.31634 0.680235,0.2675 0.680234,0.26751 0.638374,0.15294 0.638387,0.15294 1.353222,0.003 1.353221,0.003 0.710784,-0.18268 c 0.390923,-0.10053 0.954535,-0.27591 1.252452,-0.38987 0.29793,-0.11399 0.785509,-0.33847 1.083514,-0.4989 0.298005,-0.16044 0.737734,-0.42175 0.977183,-0.58069 0.239435,-0.15893 0.666318,-0.48866 0.948621,-0.73274 0.282303,-0.24408 0.690149,-0.62764 0.906334,-0.85238 0.216184,-0.22471 0.600212,-0.68265 0.853413,-1.01761 0.253188,-0.33496 0.601823,-0.8539 0.774751,-1.15323 0.17294,-0.29931 0.436608,-0.80403 0.585957,-1.1216 0.149349,-0.31757 0.382695,-0.91037 0.518556,-1.31732 l 0.24701,-0.73994 0.166435,-0.83985 0.166435,-0.83982 0.05649,-0.8531 0.05649,-0.85309 -0.05184,-0.84414 -0.05184,-0.84415 -0.146644,-0.74768 -0.146643,-0.74767 -0.26567,-0.77917 -0.265669,-0.77916 -0.339992,-0.67741 c -0.187006,-0.37256 -0.446787,-0.84527 -0.577313,-1.05045 -0.130526,-0.20516 -0.429035,-0.61972 -0.66335,-0.92125 l -0.426027,-0.54823 -0.459684,-0.43483 c -0.252823,-0.23916 -0.670307,-0.59295 -0.927761,-0.78621 -0.25744,-0.19326 -0.68577,-0.47643 -0.951842,-0.62929 -0.266072,-0.15285 -0.747914,-0.38609 -1.070768,-0.51832 l -0.587002,-0.2404 -0.653334,-0.16674 -0.653334,-0.16673 -0.810094,-0.0713 -0.810093,-0.0713 -0.733016,0.0725 -0.733029,0.0725 -0.636474,0.16472 c -0.350057,0.0906 -0.829986,0.23739 -1.066528,0.32622 -0.236529,0.0888 -0.687809,0.29082 -1.00285,0.4489 -0.315041,0.15808 -0.772234,0.4186 -1.015998,0.57891 -0.243764,0.16032 -0.733268,0.53318 -1.087804,0.82859 l -0.64459,0.53708 -0.381248,0.4333 c -0.209679,0.23832 -0.49704,0.58466 -0.638563,0.76963 -0.141522,0.18496 -0.407431,0.56495 -0.590914,0.84439 -0.183471,0.27944 -0.497972,0.84314 -0.698894,1.25268 l -0.365294,0.74458 -0.271407,0.8124 c -0.149273,0.44683 -0.320766,1.04094 -0.381109,1.32025 -0.06027,0.27929 -0.152557,0.79731 -0.204936,1.15113 l -0.09525,0.64329 0.02227,1.28684 0.02227,1.28685 z"
       id="path10151" /></g></svg>
