<?xml version="1.0" encoding="UTF-8" standalone="no"?>
<!-- Created with Inkscape (http://www.inkscape.org/) -->

<svg
   width="105mm"
   height="141.71062mm"
   viewBox="0 0 105 141.71062"
   version="1.1"
   id="svg6691"
   xml:space="preserve"
   xmlns:inkscape="http://www.inkscape.org/namespaces/inkscape"
   xmlns:sodipodi="http://sodipodi.sourceforge.net/DTD/sodipodi-0.dtd"
   xmlns="http://www.w3.org/2000/svg"
   xmlns:svg="http://www.w3.org/2000/svg"><sodipodi:namedview
     id="namedview6693"
     pagecolor="#ffffff"
     bordercolor="#000000"
     borderopacity="0.25"
     inkscape:showpageshadow="2"
     inkscape:pageopacity="0.0"
     inkscape:pagecheckerboard="0"
     inkscape:deskcolor="#d1d1d1"
     inkscape:document-units="mm"
     showgrid="false"
     showguides="true"><sodipodi:guide
       position="151.56744,-32.921723"
       orientation="0,-1"
       id="guide10091"
       inkscape:locked="false" /></sodipodi:namedview><defs
     id="defs6688" /><g
     inkscape:label="Capa 1"
     inkscape:groupmode="layer"
     id="layer1"><path
       style="fill:#f2dac2;fill-opacity:1;stroke-width:0.185611"
       d="m -0.01459427,30.875819 c 0.23021135,-0.602973 0.6144601,-1.36255 0.85392364,-1.687883 L 1.2747146,28.596363 2.0180071,28.110284 C 2.426815,27.842819 3.0781099,27.51258 3.4653272,27.37613 l 0.7040314,-0.248243 3.1212474,-0.254208 3.121228,-0.254209 9.131977,-0.253213 c 5.022586,-0.139203 15.423816,-0.379789 23.113866,-0.534402 L 56.6396,25.550801 59.456572,25.395028 c 1.549345,-0.08551 6.773475,-0.298619 11.609232,-0.473815 4.835726,-0.174996 11.88671,-0.417738 15.668779,-0.539407 l 6.876549,-0.221064 1.315421,0.135224 1.315387,0.135225 1.264281,0.414754 1.264313,0.414787 0.848433,0.755897 c 0.466653,0.415781 0.927183,0.927048 1.023433,1.136182 0.0961,0.209133 0.32513,0.82563 0.50871,1.369974 l 0.33372,0.989722 -0.0232,2.978579 -0.0232,2.97858 -0.59025,4.903171 c -0.32447,2.696761 -0.63883,5.861274 -0.69823,7.032256 l -0.10803,2.129053 -0.227365,0.197866 -0.227363,0.197864 -2.504929,-0.01989 -2.504996,-0.01989 -0.173338,-1.067575 C 94.308466,48.235393 94.0253,45.488718 93.77454,42.718841 93.523646,39.948997 93.30881,37.192544 93.296879,36.593414 l -0.0232,-1.089349 -0.430199,-0.07192 c -0.236642,-0.03944 -0.681955,-0.03712 -0.989623,0.0067 l -0.559424,0.07756 -0.105069,1.551996 c -0.05767,0.853602 -0.140197,2.61765 -0.182951,3.92011 -0.04276,1.302461 -0.145168,3.750915 -0.227031,5.440986 -0.08187,1.690105 -0.210791,3.186189 -0.286026,3.324661 l -0.136881,0.251888 -0.821785,0.0067 -0.821787,0.0067 -0.302928,-0.126274 -0.30293,-0.126275 -0.352709,-2.500157 c -0.1939,-1.375046 -0.494908,-3.873445 -0.668742,-5.551949 -0.173672,-1.678504 -0.349495,-3.738851 -0.390395,-4.578534 l -0.07425,-1.526675 -0.534567,-0.0464 -0.534565,-0.04607 -0.192563,0.133897 -0.192562,0.133899 -0.159087,3.946029 c -0.0875,2.170316 -0.220402,5.200598 -0.295307,6.733967 l -0.13655,2.787941 -0.244927,0.319831 -0.244929,0.319833 -0.449422,0.101078 -0.449454,0.101079 -0.43053,-0.08816 -0.430564,-0.08816 -0.134229,-0.342103 c -0.07356,-0.188341 -0.31584,-1.884675 -0.537635,-3.769927 -0.222059,-1.885252 -0.503544,-4.923687 -0.625777,-6.752032 l -0.222058,-3.324329 -0.138208,-0.05269 c -0.0759,-0.02983 -0.456747,-0.01656 -0.845947,0.02651 l -0.707574,0.07954 -0.08683,3.155133 c -0.04773,1.735311 -0.151134,4.749849 -0.229682,6.698969 l -0.142847,3.543901 -0.211454,0.392284 -0.211454,0.392316 -0.889927,0.0067 -0.889928,0.0067 -0.133236,-0.418832 c -0.07325,-0.230344 -0.310552,-2.204187 -0.52754,-4.386334 -0.216758,-2.182149 -0.391852,-4.345571 -0.388902,-4.807621 0.0026,-0.462049 -0.03447,-1.681685 -0.08319,-2.710317 l -0.08849,-1.870205 -0.991612,0.01 -0.991577,0.01 -0.08883,2.17731 c -0.04872,1.197497 -0.158093,4.274213 -0.242277,6.837143 l -0.153453,4.659867 -0.351053,0.270448 -0.351053,0.270449 -0.472588,0.0017 c -0.259843,0.0011 -0.611327,-0.05567 -0.780887,-0.126274 L 70.499448,49.767943 70.38974,48.795089 C 70.329411,48.260028 70.220378,46.826187 70.147463,45.60877 70.074548,44.391387 69.849174,41.695718 69.6472,39.618468 l -0.367525,-3.776866 -0.97156,0.01 -0.971494,0.01 0.05436,2.55786 c 0.02983,1.406795 -0.02983,4.457891 -0.130585,6.780201 l -0.18527,4.222378 -0.281718,0.26846 -0.281717,0.26846 -0.591738,0.0067 -0.59174,0.0067 -0.262824,-0.173337 -0.263158,-0.17334 -0.182286,-1.178174 c -0.100094,-0.647988 -0.207478,-2.07669 -0.237969,-3.174858 -0.02983,-1.0982 -0.167373,-2.712142 -0.303592,-3.586524 -0.136218,-0.874418 -0.332028,-2.534096 -0.435104,-3.688242 l -0.18759,-2.098395 -0.867026,0.0067 -0.866993,0.0067 0.06363,2.786879 c 0.0348,1.532741 -0.01656,4.402743 -0.111029,6.377745 -0.09611,1.97497 -0.225374,3.88319 -0.287683,4.240472 l -0.113012,0.649575 -0.530557,0.09546 c -0.29166,0.05236 -0.709397,0.07357 -0.927976,0.0474 l -0.397377,-0.04792 -0.193887,-0.456447 -0.193888,-0.456448 -0.159751,-2.365928 c -0.08783,-1.301268 -0.212779,-2.60605 -0.277408,-2.899466 -0.06463,-0.293317 -0.184608,-1.323308 -0.26614,-2.288604 -0.08187,-0.965296 -0.23167,-2.630675 -0.333156,-3.700802 l -0.184606,-1.945705 -0.367559,0.0067 c -0.202172,0.0028 -0.479051,0.05734 -0.615337,0.120314 l -0.247911,0.114342 -0.102408,2.750155 c -0.05634,1.512623 -0.200186,4.472842 -0.319833,6.578264 l -0.217419,3.828071 -0.244266,0.319168 -0.244265,0.31917 -0.408854,0.07623 -0.408822,0.07623 -0.46944,-0.112692 -0.469408,-0.112691 -0.141189,-0.44677 C 53.47457,49.219744 53.279021,47.686307 53.117813,46.057982 52.956736,44.429657 52.674954,41.603868 52.491837,39.77844 l -0.332957,-3.31896 -0.526877,0.0033 -0.526844,0.0033 0.01,0.572647 c 0.0067,0.314862 -0.05965,2.119773 -0.143841,4.010658 -0.08418,1.890886 -0.238962,4.568128 -0.344259,5.94947 l -0.191237,2.511491 -0.213773,0.27973 -0.213774,0.279729 -0.745324,0.0067 -0.745358,0.0067 -0.284367,-0.407726 -0.284369,-0.407761 -0.522868,-4.51059 c -0.287683,-2.480835 -0.540764,-5.320213 -0.562705,-6.309703 l -0.03978,-1.799079 -0.355329,-0.08849 -0.355361,-0.08849 -0.183613,0.13655 -0.183614,0.13655 -0.09479,2.826485 c -0.05203,1.554548 -0.207808,4.401715 -0.345948,6.327003 l -0.251226,3.500551 -0.339584,0.36146 -0.339619,0.361427 -0.643841,0.0066 -0.643906,0.0067 -0.269784,-0.214105 -0.269786,-0.214105 -0.402955,-3.254563 c -0.221765,-1.790134 -0.51505,-4.750584 -0.652064,-6.578863 l -0.248905,-3.324162 -0.158093,-0.104404 -0.158093,-0.104404 -0.192231,0.217088 -0.19223,0.217087 -0.09412,1.232034 c -0.0517,0.677611 -0.175659,2.882331 -0.27542,4.899359 -0.09976,2.017029 -0.255202,4.311797 -0.345883,5.099478 l -0.164722,1.432185 -0.497711,0.368551 -0.49771,0.36852 -0.355462,0.0011 c -0.195544,5.63e-4 -0.4998,-0.05899 -0.676188,-0.132574 l -0.320826,-0.133567 -0.455452,-2.644594 -0.455488,-2.644629 -0.363017,-3.929656 -0.363018,-3.929623 -0.259511,0.0023 -0.259512,0.0023 -0.09612,2.711975 c -0.05304,1.491544 -0.229351,4.152113 -0.391819,5.912315 l -0.295638,3.200407 -0.265808,0.546763 -0.265808,0.546798 -0.58869,0.232996 -0.58869,0.232997 -0.354732,-0.23366 -0.354731,-0.233659 -0.374651,-1.940337 C 31.375638,46.674556 31.086165,44.825664 30.938379,43.633072 30.790561,42.44048 30.58968,40.46889 30.491908,39.251706 l -0.177648,-2.21307 -0.204493,-0.143178 -0.204494,-0.14318 0.0033,0.450549 c 0.0023,0.247911 -0.110044,2.238591 -0.249898,4.423988 -0.139534,2.185396 -0.331896,4.764566 -0.427217,5.731519 l -0.173338,1.758047 -0.248243,0.457376 c -0.136551,0.251557 -0.367757,0.510339 -0.513787,0.575101 -0.146161,0.06463 -0.491579,0.120967 -0.767829,0.124624 l -0.502284,0.0067 -0.325466,-0.340679 -0.325467,-0.340678 -0.162733,-1.067676 c -0.0895,-0.587274 -0.395486,-2.643511 -0.680085,-4.569496 l -0.517432,-3.501744 -0.04044,-1.68616 -0.04044,-1.686193 -0.183945,0.230677 -0.183946,0.230675 -0.08882,2.902781 c -0.04905,1.596541 -0.216094,4.239645 -0.371304,5.873571 l -0.282379,2.970725 -0.452272,0.510736 -0.452273,0.510704 -0.66979,0.0067 -0.669791,0.0067 -0.332412,-0.518692 -0.332392,-0.518789 -0.135886,-0.88973 c -0.07456,-0.489426 -0.326123,-2.53761 -0.558887,-4.551589 -0.232666,-2.014013 -0.506859,-4.210909 -0.60924,-4.881992 l -0.186264,-1.220202 -0.119981,2.903081 c -0.06596,1.596706 -0.237638,4.086588 -0.381114,5.533123 l -0.260837,2.630013 -0.235981,0.626968 -0.235978,0.626938 -0.534833,0.171019 -0.53483,0.171018 -0.342703,-0.0855 -0.342699,-0.08551 -0.376441,-0.476964 -0.376472,-0.476964 -0.34131,-2.082652 c -0.187574,-1.145613 -0.498092,-3.146732 -0.68976,-4.447039 l -0.348466,-2.364237 -0.121299,1.070258 c -0.06696,0.588658 -0.174664,1.861157 -0.239624,2.827812 -0.06496,0.966654 -0.19422,2.480734 -0.286689,3.364631 -0.0928,0.883896 -0.238301,1.74436 -0.323147,1.912163 -0.08485,0.167706 -0.304586,0.426719 -0.488232,0.5754 l -0.333685,0.270448 -0.746584,0.0067 -0.746584,0.0067 L 10.767495,50.12158 10.517927,49.815999 10.278965,48.33135 C 10.147718,47.514768 9.9112743,46.126201 9.7539102,45.245586 9.5964796,44.36497 9.379823,43.09542 9.2723395,42.424371 l -0.1955444,-1.220102 -0.016563,0.8254 c -0.00998,0.453995 -0.1395324,2.276572 -0.2906653,4.050165 L 8.4948097,49.3046 8.1286101,49.807946 7.7624104,50.311291 7.2948931,50.395141 c -0.2571915,0.04607 -1.375409,0.07192 -2.4850099,0.05734 L 2.7924263,50.425965 2.5010986,49.66493 C 2.3408785,49.246365 1.9699568,47.634578 1.6768398,46.083178 1.3837214,44.531779 0.86832658,41.959037 0.53152058,40.366043 l -0.61237151,-2.896384 -0.17589019,-2.747637 -0.17589147,-2.747637 0.41853969,-1.096377 z"
       id="path10093" /><path
       style="fill:#f2dac2;fill-opacity:1;stroke-width:0.185611"
       d="m 1.8861934,62.352079 c 0.2302126,-0.602975 0.6144588,-1.36255 0.8539211,-1.687885 l 0.4353903,-0.591573 0.7432887,-0.486078 c 0.4088117,-0.267464 1.0601079,-0.597737 1.4473188,-0.734154 l 0.7040289,-0.248242 3.1212601,-0.254208 3.1212277,-0.254209 9.131977,-0.253214 c 5.022553,-0.139202 15.423817,-0.379788 23.113866,-0.534402 l 13.981923,-0.281053 2.816972,-0.155773 c 1.549312,-0.08551 6.773476,-0.298952 11.609201,-0.473815 4.835758,-0.174997 11.886708,-0.417738 15.668811,-0.539407 l 6.87655,-0.221064 1.315421,0.135223 1.315386,0.135225 1.26428,0.414754 1.264284,0.414754 0.84846,0.75593 c 0.46663,0.415748 0.92718,0.927049 1.02343,1.136181 0.0961,0.209135 0.32514,0.825598 0.50872,1.369976 l 0.33372,0.989721 -0.0232,2.978579 -0.0232,2.978579 -0.59022,4.903172 c -0.32448,2.696762 -0.63887,5.861274 -0.69826,7.032257 l -0.10804,2.129052 -0.22736,0.197866 -0.22737,0.197865 -2.504958,-0.01989 -2.504963,-0.01989 -0.173339,-1.067575 C 96.20919,79.711649 95.926023,76.964974 95.675229,74.195098 95.424335,71.425253 95.2095,68.6688 95.197602,68.069671 l -0.0232,-1.08935 -0.430166,-0.07192 c -0.236642,-0.03978 -0.681955,-0.03712 -0.989621,0.0067 l -0.559459,0.07756 -0.105069,1.551996 c -0.05767,0.853603 -0.140197,2.61765 -0.182951,3.920111 -0.04276,1.302462 -0.145168,3.750915 -0.227031,5.440986 -0.08187,1.690104 -0.210791,3.186188 -0.286026,3.324627 l -0.136881,0.251889 -0.821752,0.0067 -0.821787,0.0067 -0.302928,-0.126274 -0.302929,-0.126275 -0.352709,-2.500157 C 89.461287,77.367636 89.160247,74.869235 88.986444,73.190731 88.812443,71.512194 88.636949,69.45188 88.596051,68.612198 l -0.07425,-1.526675 -0.534534,-0.0464 -0.534567,-0.04607 -0.192561,0.1339 -0.192562,0.133897 -0.159088,3.946029 c -0.0875,2.170317 -0.220402,5.200599 -0.295306,6.733969 l -0.13655,2.787939 -0.244927,0.319833 -0.24493,0.319831 -0.449454,0.101079 -0.449422,0.101078 -0.43053,-0.08816 -0.430562,-0.08816 -0.134231,-0.342071 c -0.07357,-0.188254 -0.315523,-1.884588 -0.53765,-3.769839 -0.222059,-1.885252 -0.503577,-4.923688 -0.625776,-6.752065 l -0.222058,-3.324296 -0.138209,-0.05271 c -0.0759,-0.02983 -0.456745,-0.01656 -0.845946,0.02651 l -0.707574,0.07954 -0.08683,3.155099 c -0.04773,1.735344 -0.151133,4.749885 -0.229682,6.699003 l -0.142847,3.543868 -0.211454,0.392316 -0.211454,0.392317 -0.889927,0.0067 -0.889896,0.0067 -0.133235,-0.41883 C 78.146795,80.806091 77.90916,78.832249 77.69247,76.650101 77.475712,74.467952 77.300651,72.30453 77.303568,71.84248 c 0.0027,-0.462049 -0.03447,-1.681685 -0.08319,-2.710318 l -0.08849,-1.870204 -0.991579,0.01 -0.991578,0.01 -0.08882,2.17731 c -0.04872,1.197497 -0.158093,4.274212 -0.242276,6.837143 l -0.153454,4.659867 -0.35102,0.270448 -0.351052,0.270449 -0.472622,0.0017 c -0.259843,0.0011 -0.611325,-0.05569 -0.780854,-0.126274 l -0.308232,-0.128263 -0.109712,-0.972853 c -0.06033,-0.535065 -0.169361,-1.968904 -0.242276,-3.186321 -0.07292,-1.217383 -0.298288,-3.913052 -0.500296,-5.990302 l -0.367525,-3.776866 -0.971526,0.01 -0.971527,0.01 0.05436,2.557861 c 0.02983,1.406795 -0.02983,4.457892 -0.130585,6.780202 l -0.18527,4.222377 -0.282049,0.26846 -0.281717,0.26846 -0.591738,0.0067 -0.591738,0.0067 -0.263157,-0.173338 -0.263157,-0.173339 -0.182289,-1.178174 c -0.100094,-0.647984 -0.207476,-2.076687 -0.237967,-3.174854 -0.02983,-1.0982 -0.167374,-2.712141 -0.303592,-3.586525 -0.136219,-0.874417 -0.331996,-2.534096 -0.435071,-3.688242 l -0.187259,-2.098395 -0.867027,0.0067 -0.866992,0.0067 0.06363,2.786879 c 0.0348,1.53274 -0.01656,4.402742 -0.111029,6.377745 -0.09612,1.97497 -0.225374,3.883189 -0.287683,4.240439 l -0.113024,0.649607 -0.530589,0.09545 c -0.291661,0.05236 -0.709364,0.07357 -0.927944,0.0474 l -0.397387,-0.04841 -0.193888,-0.456416 -0.193886,-0.456447 -0.159751,-2.365927 c -0.08783,-1.301269 -0.21278,-2.606051 -0.277409,-2.899467 -0.06463,-0.293317 -0.184607,-1.323309 -0.266139,-2.288604 -0.08187,-0.965295 -0.231672,-2.630675 -0.333156,-3.700803 l -0.184608,-1.945704 -0.367557,0.0067 c -0.202174,0.0028 -0.479053,0.05734 -0.61537,0.120314 l -0.247911,0.114342 -0.102422,2.75019 c -0.05634,1.512621 -0.200184,4.47284 -0.319831,6.578262 l -0.21742,3.828071 -0.244265,0.31917 -0.244265,0.319168 -0.408855,0.07623 -0.408854,0.07623 -0.469407,-0.112692 -0.46944,-0.112691 -0.141191,-0.44677 c -0.07755,-0.24561 -0.273096,-1.779047 -0.434303,-3.407371 -0.161076,-1.628326 -0.44286,-4.454115 -0.62601,-6.279543 l -0.332923,-3.31896 -0.526877,0.0033 -0.526879,0.0033 0.01,0.572648 c 0.0067,0.314861 -0.05966,2.119773 -0.143843,4.010657 -0.08418,1.890887 -0.238962,4.568128 -0.344224,5.949471 l -0.191237,2.511492 -0.213773,0.279728 -0.214105,0.279729 -0.745325,0.0067 -0.745324,0.0066 -0.284369,-0.407728 -0.284367,-0.40776 -0.522835,-4.510591 C 49.038564,73.752393 48.785448,70.913015 48.76354,69.923524 l -0.03978,-1.799079 -0.355362,-0.08849 -0.355327,-0.08849 -0.183614,0.13655 -0.183612,0.136551 -0.0948,2.826484 c -0.05203,1.554548 -0.207807,4.401714 -0.345981,6.327004 l -0.251226,3.500551 -0.339585,0.36146 -0.339618,0.361426 -0.643873,0.0067 -0.643873,0.0067 -0.269786,-0.214105 -0.269786,-0.214105 -0.402955,-3.254563 c -0.221773,-1.790204 -0.515089,-4.750653 -0.65207,-6.578931 l -0.249236,-3.324164 -0.158093,-0.104403 -0.158095,-0.104072 -0.192229,0.217089 -0.192232,0.217087 -0.09412,1.232032 c -0.0517,0.677614 -0.175659,2.882331 -0.27542,4.899359 -0.09976,2.01703 -0.255534,4.311798 -0.345915,5.099479 l -0.164391,1.432185 -0.497712,0.368553 -0.49771,0.368518 -0.355461,0.0011 c -0.195546,5.64e-4 -0.4998,-0.05899 -0.676188,-0.132572 L 39.214638,81.38542 38.759152,78.740824 38.303697,76.096197 37.94068,72.16654 l -0.363017,-3.929623 -0.259512,0.0023 -0.259511,0.0023 -0.09612,2.711975 c -0.05304,1.491544 -0.229351,4.152114 -0.391818,5.912315 l -0.295638,3.200406 -0.265809,0.546764 -0.265809,0.546796 -0.588721,0.232997 -0.58869,0.232997 -0.354667,-0.233318 -0.354732,-0.233659 -0.374652,-1.940335 c -0.206151,-1.067179 -0.495623,-2.916071 -0.643408,-4.108663 -0.147819,-1.192592 -0.3487,-3.164181 -0.446472,-4.381365 l -0.177647,-2.21307 -0.204494,-0.143179 -0.204495,-0.143178 0.0033,0.450548 c 0.0026,0.247911 -0.110044,2.238591 -0.2499,4.423987 -0.139534,2.185396 -0.331896,4.764567 -0.427183,5.73152 l -0.173339,1.758048 -0.248243,0.457376 c -0.136549,0.251556 -0.367724,0.510339 -0.513785,0.5751 -0.146162,0.06463 -0.491581,0.12098 -0.767829,0.124625 l -0.502252,0.0067 -0.325466,-0.340678 -0.325467,-0.340679 -0.162732,-1.067676 c -0.08948,-0.587187 -0.395492,-2.643424 -0.680059,-4.569407 l -0.517433,-3.501745 -0.04044,-1.68616 -0.04044,-1.686194 -0.183944,0.230678 -0.183945,0.230676 -0.08883,2.90278 c -0.04872,1.596542 -0.216094,4.239645 -0.371302,5.873572 l -0.28238,2.970724 -0.452273,0.510736 -0.452272,0.510705 -0.669792,0.0067 -0.669822,0.0067 -0.332382,-0.518769 -0.332394,-0.51879 -0.135887,-0.889729 c -0.07458,-0.48936 -0.326129,-2.537543 -0.558861,-4.551556 -0.232666,-2.013979 -0.506859,-4.210877 -0.609238,-4.881959 l -0.186264,-1.2202 -0.119982,2.903079 c -0.06596,1.596707 -0.237637,4.086589 -0.381081,5.533124 l -0.260836,2.630012 -0.23598,0.62697 -0.23598,0.626937 -0.534798,0.171019 -0.534832,0.171019 -0.3427,-0.08551 -0.3427,-0.08551 -0.376475,-0.476964 -0.376441,-0.476964 -0.341308,-2.082652 C 17.053929,77.535441 16.74341,75.534321 16.551744,74.234014 l -0.348468,-2.364238 -0.121299,1.070261 c -0.06661,0.588656 -0.174665,1.861157 -0.239625,2.82781 -0.06496,0.966655 -0.194219,2.480736 -0.28702,3.364633 -0.0928,0.883895 -0.2383,1.744358 -0.323148,1.912163 -0.08518,0.167703 -0.304585,0.426718 -0.488231,0.575398 l -0.333719,0.27045 -0.74655,0.0067 -0.746585,0.0067 -0.249567,-0.305559 -0.249569,-0.305581 -0.238962,-1.484648 c -0.131579,-0.816583 -0.36769,-2.20515 -0.525055,-3.085765 -0.157429,-0.880615 -0.374087,-2.150164 -0.481571,-2.821216 l -0.195544,-1.2201 -0.01656,0.825398 c -0.01,0.453997 -0.139533,2.276574 -0.290665,4.050166 l -0.274758,3.224766 -0.366198,0.503347 -0.3661997,0.503345 -0.4675505,0.08385 c -0.2571916,0.04607 -1.3753771,0.07192 -2.484978,0.05734 L 4.6924594,81.902619 4.4011303,81.141586 C 4.2410446,80.723019 3.8700027,79.111233 3.5768843,77.559833 3.283766,76.008434 2.7683737,73.435693 2.4315651,71.842698 L 1.8191949,68.946314 1.6433047,66.198678 1.4674132,63.45104 1.8859529,62.354662 Z"
       id="path10093-1" /><path
       style="fill:#f2dac2;fill-opacity:1;stroke-width:0.185611"
       d="m 4.9434376,96.395975 c 0.2303457,-0.603009 0.6144755,-1.362551 0.8539352,-1.687917 l 0.4353686,-0.591541 0.7433027,-0.486078 c 0.4088207,-0.267464 1.0601182,-0.597737 1.4473304,-0.734187 l 0.7040275,-0.247911 3.121228,-0.254209 3.12126,-0.254208 9.131944,-0.253214 c 5.022587,-0.139201 15.423849,-0.379755 23.1139,-0.534401 l 13.981921,-0.281055 2.81694,-0.155773 C 65.96394,90.829968 71.18807,90.616862 76.023828,90.441666 80.859553,90.26667 87.910537,90.02393 91.69264,89.902294 l 6.87655,-0.221065 1.315386,0.135225 1.315424,0.135223 1.26428,0.414756 1.26428,0.414787 0.84843,0.755929 c 0.46666,0.415748 0.92718,0.927015 1.02343,1.136148 0.0961,0.209134 0.32513,0.82563 0.50872,1.369974 l 0.33371,0.989722 -0.0232,2.978579 -0.0232,2.978578 -0.59025,4.90321 c -0.32447,2.69673 -0.63883,5.86123 -0.69823,7.03221 L 105,115.05462 l -0.22736,0.19788 -0.22736,0.19787 -2.50496,-0.0198 -2.504967,-0.0198 -0.173339,-1.06757 c -0.09546,-0.58717 -0.37866,-3.33381 -0.629422,-6.10369 -0.250895,-2.76987 -0.465728,-5.52633 -0.47766,-6.12546 l -0.0232,-1.08932 -0.430198,-0.0719 c -0.236643,-0.0395 -0.681922,-0.0371 -0.989623,0.007 l -0.559424,0.0776 -0.105069,1.552 c -0.05767,0.8536 -0.140195,2.61769 -0.18295,3.92014 -0.04276,1.30247 -0.145168,3.75092 -0.227031,5.44099 -0.08187,1.69007 -0.210791,3.18616 -0.286026,3.32463 l -0.136881,0.25189 -0.821786,0.006 -0.821786,0.006 -0.302928,-0.12623 -0.302928,-0.12624 -0.352679,-2.50015 c -0.193886,-1.37512 -0.494926,-3.87352 -0.66873,-5.55202 -0.17367,-1.6785 -0.349528,-3.73885 -0.390426,-4.5785 l -0.07425,-1.52671 -0.534567,-0.0461 -0.534534,-0.0461 -0.192562,0.1339 -0.192561,0.1339 -0.159088,3.94603 c -0.0875,2.17032 -0.220402,5.2006 -0.295306,6.73396 l -0.13655,2.78798 -0.244928,0.31985 -0.244928,0.32015 -0.449422,0.10104 -0.449421,0.10104 -0.430564,-0.0883 -0.430529,-0.0883 -0.134231,-0.3421 c -0.07357,-0.18826 -0.315854,-1.88459 -0.537682,-3.76984 -0.222059,-1.88526 -0.503545,-4.92366 -0.625743,-6.75204 l -0.22206,-3.32433 -0.138208,-0.0527 c -0.0759,-0.0298 -0.456745,-0.0166 -0.845912,0.0265 l -0.707608,0.0795 -0.08683,3.15513 c -0.04773,1.73531 -0.151133,4.74986 -0.229682,6.69901 l -0.142847,3.54386 -0.211454,0.39232 -0.211452,0.39231 -0.889929,0.006 -0.889928,0.006 -0.133236,-0.41879 c -0.07325,-0.23033 -0.310551,-2.20418 -0.52754,-4.38634 -0.216757,-2.18214 -0.391819,-4.34559 -0.388902,-4.80764 0.0026,-0.46204 -0.03447,-1.68168 -0.08319,-2.71028 l -0.08849,-1.87021 -0.991579,0.01 -0.99161,0.01 -0.08883,2.17731 c -0.04872,1.19753 -0.158092,4.27425 -0.242276,6.83714 l -0.153453,4.65986 -0.351053,0.27046 -0.351054,0.27044 -0.472588,0.003 c -0.259842,0.001 -0.611327,-0.0556 -0.780887,-0.12624 l -0.308231,-0.12827 -0.109712,-0.97285 c -0.06033,-0.53506 -0.16936,-1.96889 -0.242277,-3.18627 -0.07325,-1.21742 -0.298288,-3.91306 -0.500295,-5.99034 l -0.367526,-3.77684 -0.971526,0.01 -0.971527,0.01 0.05436,2.55782 c 0.02983,1.4068 -0.02983,4.45793 -0.130585,6.7802 l -0.18527,4.22242 -0.281717,0.26846 -0.282049,0.26845 -0.591738,0.006 -0.591705,0.006 -0.263157,-0.17333 -0.263157,-0.17334 -0.182288,-1.17815 c -0.100093,-0.64798 -0.207476,-2.07668 -0.237968,-3.17489 -0.02983,-1.0982 -0.167373,-2.71214 -0.303592,-3.58652 -0.136219,-0.87439 -0.331994,-2.53409 -0.435104,-3.68821 l -0.18759,-2.09839 -0.866994,0.007 -0.867025,0.007 0.06363,2.78684 c 0.0348,1.53278 -0.01656,4.40275 -0.111029,6.37775 -0.09612,1.975 -0.225373,3.88318 -0.287682,4.24047 l -0.113012,0.64958 -0.530589,0.0955 c -0.29166,0.0524 -0.709397,0.0735 -0.927944,0.0473 l -0.397386,-0.0481 -0.193888,-0.45644 -0.193887,-0.45642 -0.160082,-2.36596 c -0.08783,-1.30127 -0.21278,-2.60601 -0.277408,-2.89944 -0.06463,-0.29331 -0.184608,-1.3233 -0.26614,-2.28863 -0.08187,-0.9653 -0.231671,-2.63064 -0.333156,-3.70077 l -0.184276,-1.9457 -0.367591,0.007 c -0.202174,0.003 -0.479053,0.0573 -0.615338,0.12031 l -0.24791,0.11434 -0.102421,2.75019 c -0.05634,1.51259 -0.200185,4.47282 -0.319831,6.57827 l -0.217421,3.82804 -0.244264,0.31916 -0.244265,0.31918 -0.408822,0.0762 -0.408854,0.0766 -0.469408,-0.11268 -0.469439,-0.11268 -0.14119,-0.44677 c -0.07756,-0.2456 -0.2731,-1.77903 -0.43431,-3.40736 -0.161076,-1.62831 -0.442858,-4.45411 -0.625975,-6.27954 l -0.332956,-3.31899 -0.526844,0.003 -0.526878,0.003 0.01,0.57268 c 0.0067,0.31486 -0.05965,2.11977 -0.143841,4.01062 -0.08418,1.8909 -0.238964,4.56818 -0.34426,5.94947 l -0.191234,2.51151 -0.213774,0.27973 -0.213774,0.27971 -0.745325,0.006 -0.745323,0.006 -0.28437,-0.40775 -0.284368,-0.40773 -0.522833,-4.51063 c -0.287684,-2.48083 -0.540798,-5.3202 -0.562739,-6.30966 l -0.03978,-1.79911 -0.355328,-0.0885 -0.355362,-0.0885 -0.183612,0.13655 -0.183614,0.13655 -0.0948,2.82649 c -0.05203,1.55458 -0.207807,4.40174 -0.345983,6.32703 l -0.251225,3.50055 -0.339618,0.36143 -0.339585,0.36146 -0.643873,0.006 -0.643872,0.006 -0.269787,-0.2141 -0.269785,-0.2141 -0.402955,-3.2546 c -0.221728,-1.79004 -0.515046,-4.75045 -0.65206,-6.57876 l -0.248905,-3.32416 -0.158092,-0.10407 -0.158094,-0.1044 -0.19223,0.21708 -0.192231,0.21709 -0.09412,1.23203 c -0.0517,0.67762 -0.17566,2.8823 -0.275419,4.89934 -0.09976,2.01702 -0.255534,4.31179 -0.345915,5.0995 l -0.164391,1.43218 -0.497712,0.36853 -0.497744,0.36851 -0.355427,0.001 c -0.195546,5.7e-4 -0.4998,-0.059 -0.676221,-0.13256 l -0.320827,-0.13324 -0.455454,-2.64464 -0.455453,-2.64462 -0.363017,-3.92962 -0.363018,-3.92963 -0.259512,0.002 -0.259511,0.002 -0.09611,2.71194 c -0.05304,1.49157 -0.229352,4.15211 -0.39182,5.91235 l -0.295636,3.20038 -0.26581,0.54679 -0.265808,0.54677 -0.588689,0.23299 -0.588689,0.23299 -0.354732,-0.23366 -0.354698,-0.23367 -0.374685,-1.94032 c -0.206151,-1.06718 -0.495591,-2.91607 -0.643375,-4.10867 -0.147819,-1.19255 -0.348701,-3.16418 -0.446473,-4.38135 l -0.177646,-2.21305 -0.204495,-0.14317 -0.204493,-0.14318 0.0033,0.45051 c 0.0026,0.24791 -0.110044,2.23859 -0.2499,4.42402 -0.139532,2.18539 -0.331896,4.76457 -0.427215,5.73148 l -0.17334,1.75806 -0.248242,0.45737 c -0.13655,0.25156 -0.367757,0.51037 -0.513785,0.57513 -0.146161,0.0646 -0.49158,0.121 -0.767829,0.12458 l -0.502252,0.006 -0.325466,-0.34067 -0.325467,-0.34068 -0.162731,-1.06765 c -0.08949,-0.58722 -0.395466,-2.64348 -0.680066,-4.56941 l -0.517399,-3.50175 -0.04044,-1.68619 -0.04044,-1.68616 -0.183946,0.23067 -0.183945,0.23068 -0.08883,2.90282 c -0.04872,1.59654 -0.216093,4.2396 -0.37127,5.87353 l -0.282379,2.97076 -0.45224,0.5107 -0.452272,0.51071 -0.669823,0.006 -0.669791,0.006 -0.332393,-0.51879 -0.332427,-0.51879 -0.135887,-0.88976 c -0.07451,-0.48901 -0.326079,-2.5372 -0.558843,-4.55118 -0.232666,-2.01398 -0.506826,-4.21087 -0.609238,-4.88198 l -0.186266,-1.22017 -0.119982,2.90307 c -0.06594,1.59668 -0.237635,4.08658 -0.38108,5.53309 l -0.260837,2.63005 -0.23598,0.62693 -0.235979,0.62694 -0.534797,0.17102 -0.534833,0.17102 -0.342701,-0.0854 -0.342701,-0.0854 -0.376472,-0.47693 -0.376474,-0.47696 -0.341276,-2.08268 c -0.187591,-1.14547 -0.498143,-3.14656 -0.689777,-4.44689 l -0.3485,-2.3642 -0.121299,1.07026 c -0.06661,0.58862 -0.174665,1.86115 -0.239625,2.82781 -0.06496,0.96662 -0.194219,2.4807 -0.286689,3.36459 -0.0928,0.88389 -0.238299,1.74436 -0.323146,1.91217 -0.08485,0.1677 -0.304586,0.42671 -0.488233,0.57543 l -0.333684,0.27044 -0.746585,0.006 -0.746551,0.006 -0.249568,-0.30558 -0.249567,-0.30559 -0.238964,-1.48463 c -0.131247,-0.81656 -0.367689,-2.20517 -0.525087,-3.08578 -0.15743,-0.88061 -0.374055,-2.15017 -0.481538,-2.82121 l -0.195545,-1.2201 -0.01656,0.82543 c -0.01,0.454 -0.139532,2.27654 -0.290666,4.05017 l -0.274757,3.22473 -0.366166,0.50334 -0.366199,0.50338 -0.467551,0.0839 c -0.257191,0.0461 -1.375377,0.0719 -2.4849778,0.0574 l -2.0174594,-0.0265 -0.291329,-0.76103 C 7.2989948,114.7668 6.927958,113.15502 6.6348384,111.60358 6.3418531,110.05219 5.8263099,107.47949 5.489509,105.88646 l -0.6123869,-2.89639 -0.1759899,-2.74764 -0.17599,-2.747634 0.4185653,-1.096344 z"
       id="path10093-1-8" /></g></svg>
