<?xml version="1.0" encoding="UTF-8" standalone="no"?>
<svg
   width="12"
   height="12"
   viewBox="0 0 12 12"
   fill="none"
   version="1.1"
   id="svg192"
   sodipodi:docname="location.svg"
   inkscape:export-filename="location.svg"
   inkscape:export-xdpi="96"
   inkscape:export-ydpi="96"
   inkscape:version="1.2.2 (732a01da63, 2022-12-09)"
   xmlns:inkscape="http://www.inkscape.org/namespaces/inkscape"
   xmlns:sodipodi="http://sodipodi.sourceforge.net/DTD/sodipodi-0.dtd"
   xmlns="http://www.w3.org/2000/svg"
   xmlns:svg="http://www.w3.org/2000/svg">
  <defs
     id="defs196" />
  <sodipodi:namedview
     id="namedview194"
     pagecolor="#ffffff"
     bordercolor="#000000"
     borderopacity="0.25"
     inkscape:showpageshadow="2"
     inkscape:pageopacity="0.0"
     inkscape:pagecheckerboard="0"
     inkscape:deskcolor="#d1d1d1"
     showgrid="false"
     inkscape:zoom="68.583333"
     inkscape:cx="6.0072904"
     inkscape:cy="6.0145808"
     inkscape:window-width="1445"
     inkscape:window-height="1032"
     inkscape:window-x="484"
     inkscape:window-y="15"
     inkscape:window-maximized="0"
     inkscape:current-layer="svg192" />
  <path
     fill-rule="evenodd"
     clip-rule="evenodd"
     d="m 8.8123282,7.8689731 c 0.1892173,0.099401 0.3415735,0.2077252 0.4448801,0.3276678 0.072976,0.0847 0.1202663,0.1719691 0.1202663,0.2662891 0,0.092054 -0.045109,0.1776339 -0.1150587,0.2603848 C 9.1632612,8.8404215 9.0168866,8.947106 8.8353752,9.0447828 8.2145572,9.3783479 7.2115468,9.5889017 6.0824432,9.5889017 4.9533397,9.5889017 3.9502309,9.3783479 3.3295114,9.0447828 3.1479647,8.947106 3.0016043,8.8404215 2.9024847,8.7233148 2.8324924,8.640571 2.78744,8.5549911 2.78744,8.46293 2.78744,8.368624 2.834695,8.2813482 2.9076993,8.1966409 3.0109708,8.0766983 3.1633481,7.9683812 3.3525583,7.8689731 3.4874058,7.7983474 3.54091,7.6285811 3.4717128,7.4900883 3.4028182,7.3518559 3.237218,7.2970006 3.1021171,7.367943 2.5369988,7.6643233 2.238266,8.0637498 2.238266,8.462923 c 0,0.3098917 0.1710598,0.6150756 0.5096318,0.8726388 0.6257933,0.4756465 1.8828902,0.8163192 3.3345877,0.8163192 1.4517046,0 2.7088436,-0.3406727 3.3346088,-0.8163192 C 9.7556559,9.0779986 9.9267311,8.7728147 9.9267311,8.462923 9.9267311,8.0637498 9.6280003,7.6643233 9.0628398,7.367943 8.9277952,7.2970006 8.7621597,7.3518559 8.6932652,7.4900883 8.6240681,7.6285741 8.6775722,7.7983474 8.8124197,7.8689731 Z M 6.0824574,1.8479945 c -1.4712541,0 -2.6656913,1.2244824 -2.6656913,2.732703 0,0.6910285 0.3945849,1.5678612 0.8836376,2.3653139 0.7020911,1.1445503 1.5794234,2.1290316 1.5794234,2.1290316 0.051851,0.05848 0.1254669,0.091695 0.2026303,0.091695 0.077163,0 0.1507798,-0.033216 0.2026302,-0.091695 0,0 0.8773323,-0.9843969 1.5794234,-2.1290316 0.4890527,-0.7974667 0.8836376,-1.6742994 0.8836376,-2.3653139 0,-1.5082417 -1.1944513,-2.732703 -2.6656912,-2.732703 z m 0,0.5629793 c 1.1680969,0 2.1165194,0.9722674 2.1165194,2.1697237 0,0.6063283 -0.3704402,1.3660403 -0.7996131,2.0658091 C 6.9279039,7.4155218 6.3737708,8.1096889 6.0824432,8.4583347 5.7911298,8.1096044 5.2369826,7.4154373 4.7655229,6.6465066 4.33635,5.9466744 3.9659098,5.1869766 3.9659098,4.5806975 c 0,-1.1974563 0.9484225,-2.1697237 2.1165123,-2.1697237 z m 0,0.6755775 c -0.6851173,0 -1.2411646,0.5700233 -1.2411646,1.2723607 0,0.702274 0.5560473,1.2723043 1.2411646,1.2723043 0.6851172,0 1.2411645,-0.5700303 1.2411645,-1.2723043 0,-0.7023374 -0.5560473,-1.2723607 -1.2411645,-1.2723607 z m 0,0.562979 c 0.3819741,0 0.6919925,0.3178087 0.6919925,0.7093817 0,0.3915096 -0.3100184,0.7093253 -0.6919925,0.7093253 -0.3819742,0 -0.6919927,-0.3178157 -0.6919927,-0.7093253 0,-0.391573 0.3100185,-0.7093817 0.6919927,-0.7093817 z"
     fill="white"
     id="path190"
     style="fill:#f2dac2;fill-opacity:1;stroke-width:0.703723" />
</svg>
