<?xml version="1.0" encoding="UTF-8" standalone="no"?>
<svg
   width="15"
   height="14"
   viewBox="0 0 15 14"
   fill="none"
   version="1.1"
   id="svg332"
   sodipodi:docname="wp.svg"
   inkscape:export-filename="wp.svg"
   inkscape:export-xdpi="96"
   inkscape:export-ydpi="96"
   inkscape:version="1.2.2 (732a01da63, 2022-12-09)"
   xmlns:inkscape="http://www.inkscape.org/namespaces/inkscape"
   xmlns:sodipodi="http://sodipodi.sourceforge.net/DTD/sodipodi-0.dtd"
   xmlns="http://www.w3.org/2000/svg"
   xmlns:svg="http://www.w3.org/2000/svg">
  <defs
     id="defs336" />
  <sodipodi:namedview
     id="namedview334"
     pagecolor="#ffffff"
     bordercolor="#000000"
     borderopacity="0.25"
     inkscape:showpageshadow="2"
     inkscape:pageopacity="0.0"
     inkscape:pagecheckerboard="0"
     inkscape:deskcolor="#d1d1d1"
     showgrid="false"
     inkscape:zoom="64"
     inkscape:cx="3.390625"
     inkscape:cy="12.945312"
     inkscape:window-width="1445"
     inkscape:window-height="1032"
     inkscape:window-x="673"
     inkscape:window-y="13"
     inkscape:window-maximized="0"
     inkscape:current-layer="svg332" />
  <path
     d="M 9.5567779,10.453236 H 9.5563483 C 8.2828747,10.452452 6.8224098,9.7861512 5.5493547,8.6251017 c -0.00214,-0.00201 -0.00427,-0.00401 -0.00641,-0.00602 C 4.3044834,7.4257759 3.5937544,6.0565839 3.5929383,4.8625297 c 0,-0.4396157 0.2401379,-0.9018968 0.6763179,-1.3020121 0.3000597,-0.2753115 0.7429824,-0.5530601 1.056334,-0.5530601 0.4827991,0 0.6111567,0.2140047 0.8056206,0.5380502 0.047338,0.078979 0.1010864,0.1684164 0.1704993,0.2766428 0.038438,0.059729 0.091478,0.1353688 0.147598,0.2155722 C 6.8059718,4.5470736 7.0304663,4.9032541 6.9080246,5.2011128 6.81192,5.432919 6.5577814,5.6231311 6.3120497,5.8071051 6.221045,5.8751868 6.0906474,5.9728482 6.0328622,6.0318036 6.0774732,6.2643935 6.4024637,6.7567159 6.9692455,7.2879698 7.5352219,7.8185687 8.0597545,8.1231164 8.3084605,8.1656016 8.3711095,8.1114346 8.4744504,7.9900774 8.5465904,7.9053108 8.743556,7.6739448 8.9472533,7.4346874 9.1953795,7.3451322 c 0.05712,-0.02069 0.1199287,-0.031255 0.1861753,-0.031255 0.2830202,0 0.6156444,0.1912106 1.0545632,0.4612825 0.08536,0.05261 0.166204,0.1023315 0.23041,0.1386007 0.114985,0.06485 0.210439,0.1152367 0.294616,0.159623 0.345508,0.1823099 0.573771,0.3027868 0.573771,0.7552652 0,0.2936497 -0.296549,0.7089146 -0.590307,0.9901099 -0.426677,0.4086945 -0.919494,0.6340475 -1.3878301,0.6343695 z M 6.0160807,8.1816101 c 1.1322643,1.0316073 2.4555889,1.6479391 3.54016,1.6487121 0.6559083,-7.838e-4 1.2798193,-0.7984483 1.3142853,-1.0069987 -2.15e-4,-0.042603 -0.0029,-0.064958 -0.0048,-0.075641 -0.03392,-0.027583 -0.137859,-0.082426 -0.23041,-0.1312566 -0.08385,-0.044278 -0.188107,-0.09923 -0.311902,-0.1690821 C 10.248117,8.404741 10.162331,8.3519054 10.071391,8.2959564 9.8992804,8.1900598 9.5532349,7.9771718 9.405927,7.9414614 9.3149868,8.0010825 9.1556535,8.1882884 9.065787,8.2938519 8.8378139,8.5614759 8.6409772,8.7926378 8.3634432,8.7936363 7.6871253,8.7929707 6.7656017,7.9780522 6.4992125,7.7283479 6.2328447,7.4786221 5.3635983,6.6146689 5.3629005,5.9820817 c 0,-0.2619656 0.2476214,-0.4472818 0.5344104,-0.6618448 C 6.0093165,5.2364797 6.2078281,5.0878616 6.2717654,5.0029878 6.2335641,4.8646019 6.0067075,4.5405886 5.8937571,4.3794194 5.8340823,4.2942126 5.7778324,4.2137838 5.7326308,4.1435978 5.6578816,4.0271363 5.5991516,3.9293569 5.5520496,3.850839 5.4999549,3.7640755 5.4414612,3.6665215 5.4120425,3.6348159 c -0.011275,-0.00177 -0.035249,-0.00434 -0.080687,-0.00455 -0.2227014,0.032027 -1.0740068,0.6169008 -1.0740068,1.2319227 7.086e-4,1.017145 0.6581514,2.2578395 1.7586242,3.3194561 z"
     fill="#ffffff"
     id="path260"
     style="stroke-width:1.07367;fill:#f2dac2;fill-opacity:1" />
  <path
     d="m 1.0115793,13.298224 c -0.0837685,0 -0.16634424,-0.02974 -0.22946554,-0.0861 -0.0958687,-0.08579 -0.12826108,-0.216775 -0.0822226,-0.333376 L 1.795619,10.101983 C 0.99318722,8.9244421 0.61742282,7.524017 0.73581693,6.140395 0.86064222,4.6817553 1.5320857,3.3135726 2.6262668,2.2878598 3.8594134,1.1317889 5.5105413,0.49509284 7.275382,0.49509284 c 1.8283057,0 3.555954,0.67573696 4.864763,1.90288296 2.65541,2.4894417 2.708127,6.4905519 0.117463,8.9195342 -1.233007,1.155919 -2.8839949,1.792607 -4.6484921,1.792607 h -1.181e-4 c -1.2791536,0 -2.5247549,-0.335201 -3.6142547,-0.970923 l -2.8537714,1.134873 c -0.041766,0.01643 -0.085905,0.02448 -0.129571,0.02448 z m 3.0149085,-1.821809 c 0.064077,0 0.1276706,0.01729 0.1828467,0.05122 1.0158673,0.627347 2.1914543,0.959005 3.3998099,0.959005 1.5872013,0 3.0711256,-0.571732 4.1789426,-1.610124 C 14.119677,8.6906282 14.06696,5.0844797 11.670624,2.8379997 10.487222,1.7285402 8.9263142,1.1176424 7.2754117,1.1176424 c -1.5874268,0 -3.0717702,0.571859 -4.1792219,1.6103486 -2.0101859,1.8845446 -2.28579804,4.8958993 -0.6554242,7.1603097 0.059922,0.08321 0.073332,0.1882153 0.036193,0.2823223 l -0.8870233,2.247833 2.3067883,-0.917239 c 0.041647,-0.01653 0.085787,-0.0248 0.1296783,-0.0248 z"
     fill="#ffffff"
     id="path262"
     style="stroke-width:1.07367;fill:#f2dac2;fill-opacity:1" />
  <path
     d="m 0.85935646,13.170395 c -0.00451,0.0021 -0.00929,0.0038 -0.014269,0.0049 -0.00479,0.0012 -0.00976,0.0018 -0.015019,0.0018 -0.016052,0 -0.028818,-0.0041 -0.0383,-0.01232 -0.00929,-0.0084 -0.013892,-0.01979 -0.013892,-0.03415 0,-0.01452 0.0046,-0.02582 0.013892,-0.03415 0.00948,-0.0084 0.022247,-0.01266 0.0383,-0.01266 0.00526,0 0.010231,5.95e-4 0.015019,0.0018 0.00498,0.0012 0.00976,0.0028 0.014269,0.0049 v 0.0186 c -0.00451,-0.0028 -0.00901,-0.0049 -0.013518,-0.0063 -0.00432,-0.0014 -0.00892,-0.0021 -0.013892,-0.0021 -0.00882,0 -0.01577,0.0027 -0.021027,0.0081 -0.00507,0.0052 -0.00751,0.01249 -0.00751,0.02183 0,0.0092 0.00244,0.01648 0.00751,0.02183 0.00526,0.0052 0.012203,0.0077 0.021027,0.0077 0.00498,0 0.00957,-5.1e-4 0.013892,-0.0017 0.00451,-0.0014 0.00901,-0.0037 0.013518,-0.0067 z"
     fill="#ffffff"
     id="path264"
     style="stroke-width:0.849432" />
  <path
     d="m 0.93247296,13.126395 c -0.00206,-8.5e-4 -0.00404,-0.0016 -0.00601,-0.0021 -0.00206,-4.25e-4 -0.00404,-6.79e-4 -0.00601,-6.79e-4 -0.00601,0 -0.010701,0.002 -0.013893,0.0056 -0.003,0.0036 -0.00451,0.0087 -0.00451,0.01512 v 0.031 h -0.02328 v -0.06719 h 0.02328 v 0.01087 c 0.00272,-0.0044 0.00601,-0.0076 0.00976,-0.0095 0.00394,-0.0021 0.00864,-0.0031 0.013892,-0.0031 h 0.00263 c 9.386e-4,0 0.00225,1.7e-4 0.00376,3.4e-4 z"
     fill="#ffffff"
     id="path266"
     style="stroke-width:0.849432" />
  <path
     d="m 1.0153623,13.141515 v 0.006 h -0.053693 c 7.509e-4,0.0052 0.00272,0.009 0.00601,0.01155 0.00319,0.0024 0.00789,0.0036 0.013892,0.0036 0.00498,0 0.00995,-5.09e-4 0.01502,-0.0018 0.00498,-0.0014 0.010138,-0.0035 0.015394,-0.0063 v 0.01648 c -0.00526,0.0021 -0.010701,0.0037 -0.016146,0.0046 -0.00554,9.34e-4 -0.010889,0.0014 -0.016145,0.0014 -0.013048,0 -0.023186,-0.003 -0.030413,-0.0092 -0.00732,-0.0064 -0.010889,-0.01512 -0.010889,-0.02642 0,-0.0107 0.00347,-0.01937 0.010513,-0.02565 0.00723,-0.0064 0.01699,-0.0095 0.029288,-0.0095 0.011264,0 0.020276,0.0031 0.027034,0.0095 0.00676,0.0063 0.010138,0.01495 0.010138,0.02565 z m -0.02328,-0.0074 c 0,-0.0039 -0.00141,-0.0071 -0.00413,-0.0095 -0.00253,-0.0025 -0.00582,-0.0038 -0.00976,-0.0038 -0.00451,0 -0.00817,0.0012 -0.010889,0.0035 -0.00282,0.0024 -0.00451,0.0057 -0.00526,0.0099 z"
     fill="#ffffff"
     id="path268"
     style="stroke-width:0.849432" />
  <path
     d="m 1.0650183,13.145082 c -0.00479,0 -0.00845,8.5e-4 -0.01089,0.0025 -0.00225,0.0014 -0.00338,0.0037 -0.00338,0.0066 0,0.0027 8.494e-4,0.0048 0.00263,0.0064 0.00197,0.0014 0.00469,0.0021 0.00826,0.0021 0.00423,0 0.00788,-0.0014 0.01089,-0.0042 0.00301,-0.0028 0.00451,-0.0064 0.00451,-0.01087 v -0.0025 z m 0.035294,-0.0082 v 0.03839 h -0.023274 v -0.0099 c -0.00301,0.0041 -0.00657,0.007 -0.010516,0.0088 -0.00375,0.0018 -0.00845,0.0028 -0.013897,0.0028 -0.00751,0 -0.013701,-0.002 -0.018394,-0.006 -0.00451,-0.0042 -0.00676,-0.0095 -0.00676,-0.0158 0,-0.0079 0.00282,-0.01384 0.00864,-0.01758 0.00573,-0.0037 0.014835,-0.0057 0.027407,-0.0057 h 0.013523 v -0.0014 c 0,-0.0036 -0.0015,-0.006 -0.00451,-0.0074 -0.00281,-0.0016 -0.00714,-0.0025 -0.013141,-0.0025 -0.00507,0 -0.00967,5.1e-4 -0.013888,0.0014 -0.00432,10e-4 -0.00817,0.0023 -0.011644,0.0039 v -0.01622 c 0.00469,-0.0011 0.00957,-0.0019 0.014642,-0.0025 0.00498,-6.79e-4 0.00996,-10e-4 0.015018,-10e-4 0.012954,0 0.02234,0.0025 0.028167,0.0074 0.00573,0.0048 0.00863,0.01249 0.00863,0.02319 z"
     fill="#ffffff"
     id="path270"
     style="stroke-width:0.849432" />
  <path
     d="m 1.1465893,13.08885 v 0.01937 h 0.023657 v 0.01512 h -0.023657 v 0.02888 c 0,0.0031 5.606e-4,0.0052 0.00188,0.0063 0.0015,9.35e-4 0.00422,0.0014 0.00826,0.0014 h 0.011646 v 0.01546 h -0.019535 c -0.00929,0 -0.015765,-0.0018 -0.01952,-0.0053 -0.00375,-0.0036 -0.00563,-0.0095 -0.00563,-0.01801 v -0.0288 h -0.011272 v -0.01512 h 0.011272 v -0.01937 z"
     fill="#ffffff"
     id="path272"
     style="stroke-width:0.849432" />
  <path
     d="m 1.2559536,13.141515 v 0.006 h -0.053701 c 7.56e-4,0.0052 0.00273,0.009 0.00601,0.01155 0.00319,0.0024 0.00788,0.0036 0.013888,0.0036 0.00498,0 0.00996,-5.09e-4 0.015018,-0.0018 0.00498,-0.0014 0.010142,-0.0035 0.0154,-0.0063 v 0.01648 c -0.00526,0.0021 -0.010703,0.0037 -0.016148,0.0046 -0.00554,9.34e-4 -0.01089,0.0014 -0.016148,0.0014 -0.013047,0 -0.023181,-0.003 -0.03041,-0.0092 -0.00732,-0.0064 -0.01089,-0.01512 -0.01089,-0.02642 0,-0.0107 0.00347,-0.01937 0.010516,-0.02565 0.00722,-0.0064 0.016989,-0.0095 0.029288,-0.0095 0.011263,0 0.020276,0.0031 0.027029,0.0095 0.00676,0.0063 0.010142,0.01495 0.010142,0.02565 z m -0.023283,-0.0074 c 0,-0.0039 -0.00141,-0.0071 -0.00413,-0.0095 -0.00254,-0.0025 -0.00582,-0.0038 -0.00977,-0.0038 -0.0045,0 -0.00816,0.0012 -0.010881,0.0035 -0.00282,0.0024 -0.00451,0.0057 -0.00526,0.0099 z"
     fill="#ffffff"
     id="path274"
     style="stroke-width:0.849432" />
  <path
     d="m 1.3226085,13.117985 v -0.03619 h 0.022901 v 0.09361 h -0.022901 v -0.0099 c -0.00329,0.0041 -0.00676,0.007 -0.010516,0.0087 -0.00375,0.0019 -0.00816,0.0029 -0.013141,0.0029 -0.00901,0 -0.016428,-0.0033 -0.022153,-0.0099 -0.00554,-0.0065 -0.00826,-0.0152 -0.00826,-0.02574 0,-0.01028 0.00272,-0.01877 0.00826,-0.02531 0.00573,-0.0065 0.013141,-0.0099 0.022153,-0.0099 0.0047,0 0.00901,9.34e-4 0.012767,0.0028 0.00394,0.002 0.0076,0.0048 0.01089,0.0087 z m -0.015392,0.04366 c 0.00497,0 0.00872,-0.0015 0.011263,-0.0049 0.00272,-0.0035 0.00413,-0.0085 0.00413,-0.01512 0,-0.0064 -0.00141,-0.01104 -0.00413,-0.01444 -0.00254,-0.0035 -0.00629,-0.0053 -0.011263,-0.0053 -0.00479,0 -0.00855,0.0018 -0.011263,0.0053 -0.00254,0.0034 -0.00375,0.0081 -0.00375,0.01444 0,0.0066 0.00121,0.01164 0.00375,0.01512 0.00272,0.0034 0.00647,0.0049 0.011263,0.0049 z"
     fill="#ffffff"
     id="path276"
     style="stroke-width:0.849432" />
  <path
     d="m 1.4514843,13.161646 c 0.00498,0 0.00873,-0.0015 0.011263,-0.0049 0.00273,-0.0035 0.00414,-0.0085 0.00414,-0.01512 0,-0.0064 -0.00141,-0.01104 -0.00414,-0.01444 -0.00253,-0.0035 -0.00629,-0.0053 -0.011263,-0.0053 -0.00478,0 -0.00854,0.0018 -0.011264,0.0053 -0.00253,0.0034 -0.00375,0.0081 -0.00375,0.01444 0,0.0066 0.00122,0.01164 0.00375,0.01512 0.00273,0.0034 0.00648,0.0049 0.011264,0.0049 z m -0.015018,-0.04366 c 0.00301,-0.0039 0.00639,-0.0068 0.010142,-0.0087 0.00394,-0.0019 0.00844,-0.0028 0.013515,-0.0028 0.00873,0 0.015961,0.0033 0.021779,0.0099 0.00573,0.0065 0.00863,0.01503 0.00863,0.02531 0,0.01053 -0.00291,0.0192 -0.00863,0.02574 -0.00582,0.0065 -0.013047,0.0099 -0.021779,0.0099 -0.00507,0 -0.00957,-0.001 -0.013515,-0.0029 -0.00375,-0.0018 -0.00714,-0.0047 -0.010142,-0.0087 v 0.0099 h -0.023283 v -0.09361 h 0.023283 z"
     fill="#ffffff"
     id="path278"
     style="stroke-width:0.849432" />
  <path
     d="m 1.4979397,13.108132 h 0.022909 l 0.01952,0.04536 0.016521,-0.04536 h 0.022909 l -0.030418,0.07356 c -0.00301,0.0075 -0.00657,0.01274 -0.010516,0.0158 -0.00403,0.003 -0.00939,0.0046 -0.016139,0.0046 h -0.013141 v -0.01444 h 0.00713 c 0.00395,0 0.00685,-5.95e-4 0.00864,-0.0018 0.00169,-0.0012 0.0031,-0.0031 0.00413,-0.0059 l 7.56e-4,-0.0021 z"
     fill="#ffffff"
     id="path280"
     style="stroke-width:0.849432" />
  <path
     d="m 1.6398797,13.085622 h 0.066833 v 0.01758 h -0.042055 v 0.01656 h 0.039431 v 0.01758 h -0.039431 v 0.03797 h -0.024778 z"
     fill="#ffffff"
     id="path282"
     style="stroke-width:0.849432" />
  <path
     d="m 1.7284839,13.0818 h 0.023283 v 0.09361 h -0.023283 z"
     fill="#ffffff"
     id="path284"
     style="stroke-width:0.849432" />
  <path
     d="m 1.8058332,13.145082 c -0.00478,0 -0.00844,8.5e-4 -0.01089,0.0025 -0.00225,0.0014 -0.00338,0.0037 -0.00338,0.0066 0,0.0027 8.494e-4,0.0048 0.00263,0.0064 0.00197,0.0014 0.00469,0.0021 0.00826,0.0021 0.00423,0 0.00789,-0.0014 0.01089,-0.0042 0.00301,-0.0028 0.00451,-0.0064 0.00451,-0.01087 v -0.0025 z m 0.035294,-0.0082 v 0.03839 h -0.023274 v -0.0099 c -0.00301,0.0041 -0.00657,0.007 -0.010516,0.0088 -0.00375,0.0018 -0.00844,0.0028 -0.013888,0.0028 -0.00751,0 -0.01371,-0.002 -0.018399,-0.006 -0.00451,-0.0042 -0.00676,-0.0095 -0.00676,-0.0158 0,-0.0079 0.00282,-0.01384 0.00864,-0.01758 0.00573,-0.0037 0.014831,-0.0057 0.027403,-0.0057 h 0.013523 v -0.0014 c 0,-0.0036 -0.0015,-0.006 -0.00451,-0.0074 -0.00281,-0.0016 -0.00714,-0.0025 -0.013141,-0.0025 -0.00507,0 -0.00967,5.1e-4 -0.013888,0.0014 -0.00432,10e-4 -0.00817,0.0023 -0.011646,0.0039 v -0.01622 c 0.0047,-0.0011 0.00958,-0.0019 0.014644,-0.0025 0.00498,-6.79e-4 0.00996,-10e-4 0.015018,-10e-4 0.012954,0 0.022348,0.0025 0.028167,0.0074 0.00573,0.0048 0.00863,0.01249 0.00863,0.02319 z"
     fill="#ffffff"
     id="path286"
     style="stroke-width:0.849432" />
  <path
     d="m 1.8874041,13.08885 v 0.01937 h 0.023657 v 0.01512 h -0.023657 v 0.02888 c 0,0.0031 5.606e-4,0.0052 0.00188,0.0063 0.0015,9.35e-4 0.00422,0.0014 0.00827,0.0014 h 0.011637 v 0.01546 h -0.019528 c -0.00929,0 -0.015766,-0.0018 -0.01952,-0.0053 -0.00375,-0.0036 -0.00563,-0.0095 -0.00563,-0.01801 v -0.0288 h -0.011264 v -0.01512 h 0.011264 v -0.01937 z"
     fill="#ffffff"
     id="path288"
     style="stroke-width:0.849432" />
  <path
     d="m 1.9573378,13.145082 c -0.00478,0 -0.00844,8.5e-4 -0.01089,0.0025 -0.00225,0.0014 -0.00338,0.0037 -0.00338,0.0066 0,0.0027 8.495e-4,0.0048 0.00263,0.0064 0.00197,0.0014 0.00469,0.0021 0.00826,0.0021 0.00423,0 0.00789,-0.0014 0.01089,-0.0042 0.00301,-0.0028 0.00451,-0.0064 0.00451,-0.01087 v -0.0025 z m 0.035294,-0.0082 v 0.03839 h -0.023274 v -0.0099 c -0.00301,0.0041 -0.00657,0.007 -0.010516,0.0088 -0.00375,0.0018 -0.00844,0.0028 -0.013888,0.0028 -0.00751,0 -0.01371,-0.002 -0.018399,-0.006 -0.00451,-0.0042 -0.00676,-0.0095 -0.00676,-0.0158 0,-0.0079 0.00282,-0.01384 0.00864,-0.01758 0.00573,-0.0037 0.014831,-0.0057 0.027403,-0.0057 h 0.013523 v -0.0014 c 0,-0.0036 -0.0015,-0.006 -0.00451,-0.0074 -0.00281,-0.0016 -0.00714,-0.0025 -0.013141,-0.0025 -0.00507,0 -0.00967,5.1e-4 -0.013888,0.0014 -0.00432,10e-4 -0.00817,0.0023 -0.011646,0.0039 v -0.01622 c 0.0047,-0.0011 0.00958,-0.0019 0.014644,-0.0025 0.00498,-6.79e-4 0.00996,-10e-4 0.015018,-10e-4 0.012954,0 0.022349,0.0025 0.028167,0.0074 0.00573,0.0048 0.00863,0.01249 0.00863,0.02319 z"
     fill="#ffffff"
     id="path290"
     style="stroke-width:0.849432" />
  <path
     d="m 2.0673647,13.126395 c -0.00206,-8.5e-4 -0.00403,-0.0016 -0.00601,-0.0021 -0.00206,-4.25e-4 -0.00403,-6.79e-4 -0.00601,-6.79e-4 -0.00601,0 -0.010694,0.002 -0.013888,0.0056 -0.00301,0.0036 -0.0045,0.0087 -0.0045,0.01512 v 0.031 h -0.023283 v -0.06719 h 0.023283 v 0.01087 c 0.00272,-0.0044 0.00601,-0.0076 0.00976,-0.0095 0.00394,-0.0021 0.00864,-0.0031 0.013888,-0.0031 h 0.00263 c 9.344e-4,0 0.00225,1.7e-4 0.00375,3.4e-4 z"
     fill="#ffffff"
     id="path292"
     style="stroke-width:0.849432" />
  <path
     d="m 2.1036864,13.08885 v 0.01937 h 0.023657 v 0.01512 h -0.023657 v 0.02888 c 0,0.0031 5.691e-4,0.0052 0.00188,0.0063 0.0015,9.35e-4 0.00423,0.0014 0.00827,0.0014 h 0.011637 v 0.01546 h -0.01952 c -0.00929,0 -0.015774,-0.0018 -0.019528,-0.0053 -0.00375,-0.0036 -0.00563,-0.0095 -0.00563,-0.01801 v -0.0288 h -0.011273 v -0.01512 h 0.011264 v -0.01937 z"
     fill="#ffffff"
     id="path294"
     style="stroke-width:0.849432" />
  <path
     d="m 0.82968836,13.204967 v 0.0141 h -0.012391 c -0.00329,0 -0.00563,5.94e-4 -0.00713,0.0017 -0.00131,0.0013 -0.00188,0.0031 -0.00188,0.0057 v 0.0049 h 0.019901 v 0.01512 h -0.019901 v 0.05207 h -0.022904 v -0.05207 h -0.011264 v -0.01512 h 0.011264 v -0.0049 c 0,-0.0072 0.00206,-0.01274 0.00638,-0.01622 0.00451,-0.0036 0.011359,-0.0053 0.020651,-0.0053 z"
     fill="#ffffff"
     id="path296"
     style="stroke-width:0.849432" />
  <path
     d="m 0.89323946,13.249732 c -0.00206,-9.34e-4 -0.00404,-0.0016 -0.00601,-0.0021 -0.00206,-5.1e-4 -0.00404,-7.65e-4 -0.00601,-7.65e-4 -0.00601,0 -0.010701,0.002 -0.013893,0.0057 -0.003,0.0035 -0.00451,0.0086 -0.00451,0.01512 v 0.031 h -0.02328 v -0.06728 h 0.02328 v 0.01087 c 0.00272,-0.0043 0.00601,-0.0076 0.00976,-0.0094 0.00394,-0.0021 0.00864,-0.0032 0.013892,-0.0032 h 0.00263 c 9.387e-4,0 0.00225,1.7e-4 0.00375,3.39e-4 z"
     fill="#ffffff"
     id="path298"
     style="stroke-width:0.849432" />
  <path
     d="m 0.93856676,13.245145 c -0.00507,0 -0.00892,0.0017 -0.01164,0.0053 -0.00253,0.0033 -0.00376,0.0081 -0.00376,0.01444 0,0.0065 0.00122,0.01155 0.00376,0.01512 0.00272,0.0033 0.00657,0.0049 0.01164,0.0049 0.00498,0 0.00882,-0.0016 0.01164,-0.0049 0.00272,-0.0036 0.00413,-0.0086 0.00413,-0.01512 0,-0.0064 -0.00141,-0.01113 -0.00413,-0.01444 -0.00282,-0.0036 -0.00666,-0.0053 -0.01164,-0.0053 z m 0,-0.01554 c 0.012485,0 0.022153,0.0032 0.028911,0.0095 0.00695,0.0062 0.010513,0.01469 0.010513,0.02574 0,0.01121 -0.00357,0.02005 -0.010513,0.02642 -0.00676,0.0061 -0.016427,0.0091 -0.028911,0.0091 -0.012297,0 -0.021965,-0.003 -0.028911,-0.0091 -0.00704,-0.0064 -0.010513,-0.0152 -0.010513,-0.02642 0,-0.01104 0.00347,-0.01954 0.010513,-0.02574 0.00695,-0.0063 0.016615,-0.0095 0.028911,-0.0095 z"
     fill="#ffffff"
     id="path300"
     style="stroke-width:0.849432" />
  <path
     d="m 1.0614507,13.242257 c 0.00272,-0.0039 0.0061,-0.007 0.010134,-0.0091 0.00395,-0.0023 0.00845,-0.0036 0.013523,-0.0036 0.00798,0 0.014075,0.0025 0.018399,0.0074 0.0045,0.0048 0.00675,0.01155 0.00675,0.02047 v 0.0412 h -0.023274 v -0.03525 c 1.869e-4,-4.25e-4 3.738e-4,-8.49e-4 3.738e-4,-0.0014 v -0.0025 c 0,-0.0049 -7.475e-4,-0.0085 -0.00225,-0.01062 -0.0015,-0.0021 -0.00394,-0.0031 -0.00714,-0.0031 -0.00451,0 -0.00807,0.0018 -0.010516,0.0053 -0.00225,0.0033 -0.00338,0.0081 -0.00338,0.01444 v 0.03313 h -0.023274 v -0.03525 c 0,-0.0075 -7.56e-4,-0.01232 -0.00225,-0.01444 -0.00131,-0.0021 -0.00366,-0.0031 -0.00713,-0.0031 -0.00432,0 -0.0077,0.0018 -0.010138,0.0053 -0.00225,0.0033 -0.00338,0.0081 -0.00338,0.01444 v 0.03313 h -0.02328 v -0.06728 h 0.02328 v 0.0099 c 0.00272,-0.004 0.00582,-0.0069 0.00939,-0.0088 0.00376,-0.0018 0.00789,-0.0028 0.012391,-0.0028 0.00498,0 0.00939,0.0013 0.01314,0.0036 0.00375,0.0021 0.00657,0.0052 0.00864,0.0091 z"
     fill="#ffffff"
     id="path302"
     style="stroke-width:0.849432" />
  <path
     d="m 1.2025413,13.212017 v 0.01937 h 0.023657 v 0.01512 h -0.023657 v 0.02888 c 0,0.0031 5.606e-4,0.0052 0.00188,0.0063 0.0015,10e-4 0.00422,0.0014 0.00826,0.0014 h 0.011637 v 0.01546 h -0.019528 c -0.00929,0 -0.015765,-0.0018 -0.01952,-0.0053 -0.00375,-0.0035 -0.00563,-0.0095 -0.00563,-0.01792 v -0.02888 h -0.011263 v -0.01512 h 0.011263 v -0.01937 z"
     fill="#ffffff"
     id="path304"
     style="stroke-width:0.849432" />
  <path
     d="m 1.3126446,13.257377 v 0.0412 h -0.023274 v -0.03134 c 0,-0.0058 -1.869e-4,-0.0099 -3.822e-4,-0.01198 -2.803e-4,-0.0023 -7.475e-4,-0.0039 -0.0015,-0.0049 -7.56e-4,-0.0014 -0.00206,-0.0025 -0.00375,-0.0031 -0.0015,-8.5e-4 -0.00319,-0.0014 -0.00488,-0.0014 -0.00507,0 -0.00892,0.0018 -0.011637,0.0054 -0.00254,0.0035 -0.00375,0.0083 -0.00375,0.01444 v 0.03304 H 1.240188 v -0.09361 h 0.023283 v 0.03627 c 0.00319,-0.004 0.00685,-0.0069 0.01089,-0.0088 0.00394,-0.0019 0.00826,-0.0028 0.012758,-0.0028 0.00827,0 0.014457,0.0025 0.018781,0.0074 0.0045,0.0048 0.00675,0.01155 0.00675,0.02039 z"
     fill="#ffffff"
     id="path306"
     style="stroke-width:0.849432" />
  <path
     d="m 1.4053941,13.264852 v 0.0059 h -0.053693 c 7.475e-4,0.0052 0.00272,0.0091 0.00601,0.01164 0.00319,0.0024 0.00788,0.0035 0.013897,0.0035 0.00497,0 0.00995,-5.1e-4 0.015018,-0.0017 0.00497,-0.0014 0.010134,-0.0036 0.015392,-0.0064 v 0.01656 c -0.00526,0.0021 -0.010703,0.0037 -0.016148,0.0046 -0.00554,8.5e-4 -0.01089,0.0014 -0.016139,0.0014 -0.013056,0 -0.023189,-0.003 -0.030418,-0.0091 -0.00732,-0.0064 -0.01089,-0.0152 -0.01089,-0.02642 0,-0.01079 0.00347,-0.01937 0.010516,-0.02574 0.00723,-0.0063 0.016989,-0.0095 0.029288,-0.0095 0.011263,0 0.020276,0.0032 0.027037,0.0095 0.00675,0.0064 0.010134,0.01495 0.010134,0.02574 z m -0.023283,-0.0074 c 0,-0.004 -0.0014,-0.0071 -0.00413,-0.0095 -0.00253,-0.0025 -0.00582,-0.0039 -0.00976,-0.0039 -0.00451,0 -0.00817,0.0013 -0.01089,0.0036 -0.00282,0.0024 -0.00451,0.0056 -0.00526,0.0099 z"
     fill="#ffffff"
     id="path308"
     style="stroke-width:0.849432" />
  <path
     d="m 1.4696876,13.20879 h 0.027785 l 0.034538,0.06158 v -0.06158 h 0.023657 v 0.08978 H 1.5278826 L 1.4933446,13.2369 v 0.06167 h -0.023657 z"
     fill="#ffffff"
     id="path310"
     style="stroke-width:0.849432" />
  <path
     d="m 1.6127489,13.245145 c -0.00507,0 -0.00892,0.0017 -0.011637,0.0053 -0.00254,0.0033 -0.00375,0.0081 -0.00375,0.01444 0,0.0065 0.00121,0.01155 0.00375,0.01512 0.00272,0.0033 0.00657,0.0049 0.011637,0.0049 0.00498,0 0.00883,-0.0016 0.011637,-0.0049 0.00273,-0.0036 0.00414,-0.0086 0.00414,-0.01512 0,-0.0064 -0.00141,-0.01113 -0.00414,-0.01444 -0.00281,-0.0036 -0.00666,-0.0053 -0.011637,-0.0053 z m 0,-0.01554 c 0.012487,0 0.022153,0.0032 0.028915,0.0095 0.00694,0.0062 0.010508,0.01469 0.010508,0.02574 0,0.01121 -0.00357,0.02005 -0.010508,0.02642 -0.00676,0.0061 -0.016428,0.0091 -0.028915,0.0091 -0.0123,0 -0.021966,-0.003 -0.028915,-0.0091 -0.00703,-0.0064 -0.010508,-0.0152 -0.010508,-0.02642 0,-0.01104 0.00347,-0.01954 0.010508,-0.02574 0.00695,-0.0063 0.016615,-0.0095 0.028915,-0.0095 z"
     fill="#ffffff"
     id="path312"
     style="stroke-width:0.849432" />
  <path
     d="m 1.6681233,13.272242 v -0.04086 h 0.023283 v 0.0067 0.01368 0.01096 c 0,0.0054 9.35e-5,0.0094 3.738e-4,0.01198 1.869e-4,0.0024 7.475e-4,0.004 0.0015,0.0049 9.343e-4,0.0014 0.00225,0.0026 0.00375,0.0035 0.0015,7.64e-4 0.00319,0.0011 0.00525,0.0011 0.0047,0 0.00845,-0.0018 0.011272,-0.0053 0.00272,-0.0036 0.00413,-0.0083 0.00413,-0.01444 v -0.03313 h 0.022901 v 0.06728 h -0.022901 v -0.0099 c -0.00357,0.004 -0.00732,0.0069 -0.011263,0.0087 -0.00375,0.0019 -0.00808,0.0028 -0.012767,0.0028 -0.00826,0 -0.014644,-0.0023 -0.019155,-0.0071 -0.00432,-0.0049 -0.00638,-0.01189 -0.00638,-0.02107 z"
     fill="#ffffff"
     id="path314"
     style="stroke-width:0.849432" />
  <path
     d="m 1.8349517,13.257462 v 0.0412 h -0.023283 v -0.03134 c 0,-0.0059 -1.869e-4,-0.0099 -3.738e-4,-0.01198 -2.803e-4,-0.0023 -7.56e-4,-0.004 -0.0015,-0.0049 -7.475e-4,-0.0014 -0.00206,-0.0025 -0.00375,-0.0032 -0.0015,-8.5e-4 -0.00319,-0.0014 -0.00488,-0.0014 -0.00506,0 -0.00891,0.0018 -0.011637,0.0053 -0.00253,0.0036 -0.00375,0.0083 -0.00375,0.01444 v 0.03313 h -0.0233 v -0.06728 h 0.023283 v 0.0099 c 0.00319,-0.004 0.00685,-0.0069 0.01089,-0.0088 0.00394,-0.0018 0.00826,-0.0028 0.012767,-0.0028 0.00826,0 0.014457,0.0025 0.018772,0.0074 0.0045,0.0048 0.00676,0.01155 0.00676,0.02047 z"
     fill="#ffffff"
     id="path316"
     style="stroke-width:0.849432" />
  <path
     d="m 1.9028892,13.20879 h 0.040926 c 0.012206,0 0.021593,0.0026 0.028167,0.0077 0.00647,0.0049 0.00976,0.01215 0.00976,0.02149 0,0.0094 -0.00329,0.01673 -0.00976,0.02183 -0.00657,0.0049 -0.015961,0.0074 -0.028167,0.0074 h -0.016139 v 0.03134 h -0.024787 z m 0.024786,0.0169 v 0.02497 h 0.013514 c 0.00469,0 0.00835,-10e-4 0.01089,-0.0031 0.00272,-0.0023 0.00413,-0.0054 0.00413,-0.0095 0,-0.004 -0.00141,-0.0071 -0.00413,-0.0092 -0.00254,-0.0021 -0.0062,-0.0031 -0.01089,-0.0031 z"
     fill="#ffffff"
     id="path318"
     style="stroke-width:0.849432" />
  <path
     d="m 2.0517691,13.249732 c -0.00206,-9.34e-4 -0.00403,-0.0016 -0.00601,-0.0021 -0.00206,-5.1e-4 -0.00403,-7.65e-4 -0.00601,-7.65e-4 -0.00601,0 -0.010703,0.002 -0.013897,0.0057 -0.003,0.0035 -0.0045,0.0086 -0.0045,0.01512 v 0.031 h -0.023283 v -0.06728 h 0.023283 v 0.01087 c 0.00272,-0.0043 0.00601,-0.0076 0.00976,-0.0094 0.00394,-0.0021 0.00864,-0.0032 0.013897,-0.0032 h 0.00262 c 9.428e-4,0 0.00225,1.7e-4 0.00375,3.39e-4 z"
     fill="#ffffff"
     id="path320"
     style="stroke-width:0.849432" />
  <path
     d="m 2.0970183,13.245145 c -0.00506,0 -0.00891,0.0017 -0.011637,0.0053 -0.00253,0.0033 -0.00375,0.0081 -0.00375,0.01444 0,0.0065 0.00122,0.01155 0.00375,0.01512 0.00273,0.0033 0.00657,0.0049 0.011637,0.0049 0.00498,0 0.00883,-0.0016 0.011646,-0.0049 0.00272,-0.0036 0.00413,-0.0086 0.00413,-0.01512 0,-0.0064 -0.00141,-0.01113 -0.00413,-0.01444 -0.00282,-0.0036 -0.00667,-0.0053 -0.011646,-0.0053 z m 0,-0.01554 c 0.012487,0 0.022153,0.0032 0.028915,0.0095 0.00695,0.0062 0.010516,0.01469 0.010516,0.02574 0,0.01121 -0.00357,0.02005 -0.010516,0.02642 -0.00676,0.0061 -0.016428,0.0091 -0.028915,0.0091 -0.012291,0 -0.021958,-0.003 -0.028906,-0.0091 -0.00704,-0.0064 -0.010516,-0.0152 -0.010516,-0.02642 0,-0.01104 0.00347,-0.01954 0.010516,-0.02574 0.00695,-0.0063 0.016615,-0.0095 0.028906,-0.0095 z"
     fill="#ffffff"
     id="path322"
     style="stroke-width:0.849432" />
  <path
     d="m 2.1531573,13.231384 h 0.023283 v 0.06617 c 0,0.0088 -0.00245,0.01563 -0.00714,0.02039 -0.00451,0.0049 -0.01117,0.0074 -0.019902,0.0074 h -0.011637 v -0.01444 h 0.00413 c 0.00422,0 0.00714,-9.34e-4 0.00864,-0.0028 0.00169,-0.0017 0.00262,-0.0052 0.00262,-0.01053 z m 0,-0.02642 h 0.023283 v 0.01758 h -0.023283 z"
     fill="#ffffff"
     id="path324"
     style="stroke-width:0.849432" />
  <path
     d="m 2.2699287,13.264852 v 0.0059 h -0.053701 c 7.56e-4,0.0052 0.00273,0.0091 0.00601,0.01164 0.00319,0.0024 0.00788,0.0035 0.013888,0.0035 0.00498,0 0.00996,-5.1e-4 0.015018,-0.0017 0.00498,-0.0014 0.010142,-0.0036 0.0154,-0.0064 v 0.01656 c -0.00526,0.0021 -0.010703,0.0037 -0.016148,0.0046 -0.00554,8.5e-4 -0.01089,0.0014 -0.016148,0.0014 -0.013047,0 -0.023181,-0.003 -0.03041,-0.0091 -0.00732,-0.0064 -0.01089,-0.0152 -0.01089,-0.02642 0,-0.01079 0.00347,-0.01937 0.010516,-0.02574 0.00722,-0.0063 0.016989,-0.0095 0.029288,-0.0095 0.011264,0 0.020276,0.0032 0.027029,0.0095 0.00676,0.0064 0.010142,0.01495 0.010142,0.02574 z m -0.023283,-0.0074 c 0,-0.004 -0.00141,-0.0071 -0.00413,-0.0095 -0.00254,-0.0025 -0.00582,-0.0039 -0.00977,-0.0039 -0.0045,0 -0.00816,0.0013 -0.010881,0.0036 -0.00282,0.0024 -0.00451,0.0056 -0.00526,0.0099 z"
     fill="#ffffff"
     id="path326"
     style="stroke-width:0.849432" />
  <path
     d="m 2.3455026,13.233508 v 0.01724 c -0.00301,-0.0019 -0.00619,-0.0032 -0.00939,-0.0042 -0.00329,-8.49e-4 -0.00657,-0.0014 -0.00976,-0.0014 -0.00657,0 -0.011552,0.0017 -0.015018,0.0053 -0.00357,0.0035 -0.00526,0.0083 -0.00526,0.01444 0,0.0063 0.00169,0.01121 0.00526,0.01478 0.00347,0.0035 0.00844,0.0053 0.015018,0.0053 0.00347,0 0.00685,-4.25e-4 0.010134,-0.0014 0.00319,-8.5e-4 0.0062,-0.0025 0.00901,-0.0046 v 0.01767 c -0.00357,0.0014 -0.00714,0.0023 -0.01089,0.0028 -0.00375,6.8e-4 -0.00751,10e-4 -0.011264,10e-4 -0.013047,0 -0.023181,-0.003 -0.03041,-0.0091 -0.00732,-0.0064 -0.01089,-0.0152 -0.01089,-0.02642 0,-0.01104 0.00357,-0.01954 0.01089,-0.02574 0.00723,-0.0063 0.017362,-0.0095 0.03041,-0.0095 0.00375,0 0.00751,3.39e-4 0.011264,0.0011 0.00375,5.1e-4 0.00732,0.0014 0.01089,0.0028 z"
     fill="#ffffff"
     id="path328"
     style="stroke-width:0.849432" />
  <path
     d="m 2.3903696,13.212017 v 0.01937 h 0.023657 v 0.01512 h -0.023657 v 0.02888 c 0,0.0031 5.606e-4,0.0052 0.00188,0.0063 0.0015,10e-4 0.00422,0.0014 0.00826,0.0014 h 0.011646 v 0.01546 h -0.019528 c -0.00929,0 -0.015766,-0.0018 -0.019529,-0.0053 -0.00375,-0.0035 -0.00563,-0.0095 -0.00563,-0.01792 v -0.02888 h -0.011264 v -0.01512 h 0.011264 v -0.01937 z"
     fill="#ffffff"
     id="path330"
     style="stroke-width:0.849432" />
</svg>
